<svg width="273" height="50" viewBox="0 0 273 50" fill="none" xmlns="http://www.w3.org/2000/svg">
<path d="M39.7119 16.6187L35.3027 21.0786L40.1494 25.8433L24.1289 41.6528L7.90039 25.8433L24.1289 9.61182L26.3428 11.9321L31.085 7.08252L25.499 1.81201C25.1312 1.47467 24.6672 1.26011 24.1719 1.19873C23.6816 1.25819 23.2236 1.47328 22.8643 1.81201L0.864258 23.5356C0.58437 23.7844 0.361946 24.0916 0.212891 24.4351C0.0638351 24.7785 -0.00854492 25.1506 0.000976562 25.5249C0.010498 25.8992 0.102226 26.2666 0.268555 26.6021C0.434883 26.9375 0.671696 27.2331 0.963867 27.4673L22.7148 49.0249C23.2477 49.4286 23.9079 49.6278 24.5752 49.5874C25.3173 49.3865 25.9952 48.9989 26.5449 48.4614L47.2168 27.2134C47.7061 26.7672 48.0412 26.1776 48.1738 25.5288C48.1185 24.8973 47.8434 24.3055 47.3955 23.8569L39.7119 16.6187Z" fill="white"/>
<path d="M27.1808 34.1868L31.591 29.7259L26.7443 24.9622L42.7638 9.15363L58.9943 24.9622L42.7638 41.1937L40.5499 38.8743L35.8078 43.723L41.3937 48.9925C41.7614 49.3302 42.2254 49.5451 42.7208 49.6068C43.2114 49.5467 43.6696 49.3314 44.0294 48.9925L66.0294 27.2698C66.3091 27.0211 66.5319 26.7138 66.6808 26.3704C66.8298 26.027 66.9013 25.6557 66.8917 25.2816C66.8822 24.9074 66.7914 24.5398 66.6251 24.2044C66.4589 23.869 66.2218 23.5743 65.9298 23.3401L44.1779 1.78253C43.6453 1.37863 42.9858 1.1785 42.3185 1.2171C41.5763 1.41775 40.8983 1.80541 40.3488 2.34308L19.6769 23.5931C19.1873 24.0392 18.8518 24.6287 18.7189 25.2776C18.7747 25.9089 19.0511 26.5003 19.4992 26.9485L27.1808 34.1868Z" fill="white"/>
<path d="M100.477 33.56C100.477 35.2667 99.7306 36.7067 98.2373 37.88C96.744 39.0533 94.864 39.64 92.5973 39.64C90.624 39.64 88.8906 39.1333 87.3973 38.12C85.904 37.08 84.8373 35.72 84.1973 34.04L87.4773 32.64C87.9573 33.8133 88.6506 34.7333 89.5573 35.4C90.4906 36.04 91.504 36.36 92.5973 36.36C93.7706 36.36 94.744 36.1067 95.5173 35.6C96.3173 35.0933 96.7173 34.4933 96.7173 33.8C96.7173 32.5467 95.7573 31.6267 93.8373 31.04L90.4773 30.2C86.664 29.24 84.7573 27.4 84.7573 24.68C84.7573 22.8933 85.4773 21.4667 86.9173 20.4C88.384 19.3067 90.2506 18.76 92.5173 18.76C94.2506 18.76 95.8106 19.1733 97.1973 20C98.6106 20.8267 99.5973 21.9333 100.157 23.32L96.8773 24.68C96.504 23.8533 95.8906 23.2133 95.0373 22.76C94.2106 22.28 93.2773 22.04 92.2373 22.04C91.2773 22.04 90.4106 22.28 89.6373 22.76C88.8906 23.24 88.5173 23.8267 88.5173 24.52C88.5173 25.64 89.5706 26.44 91.6773 26.92L94.6373 27.68C98.5306 28.64 100.477 30.6 100.477 33.56ZM112.836 39.64C109.929 39.64 107.516 38.6533 105.596 36.68C103.702 34.6533 102.756 32.16 102.756 29.2C102.756 26.1867 103.702 23.6933 105.596 21.72C107.516 19.7467 109.929 18.76 112.836 18.76C114.836 18.76 116.582 19.2667 118.076 20.28C119.569 21.2667 120.689 22.64 121.436 24.4L118.076 25.8C117.036 23.3467 115.209 22.12 112.596 22.12C110.916 22.12 109.462 22.8 108.236 24.16C107.036 25.52 106.436 27.2 106.436 29.2C106.436 31.2 107.036 32.88 108.236 34.24C109.462 35.6 110.916 36.28 112.596 36.28C115.289 36.28 117.182 35.0533 118.276 32.6L121.556 34C120.836 35.76 119.702 37.1467 118.156 38.16C116.636 39.1467 114.862 39.64 112.836 39.64ZM124.774 10.36H128.454V19.4L128.294 22.12H128.454C129.014 21.16 129.868 20.36 131.014 19.72C132.188 19.08 133.401 18.76 134.654 18.76C137.054 18.76 138.894 19.4533 140.174 20.84C141.481 22.2 142.134 24.1467 142.134 26.68V39H138.454V27.4C138.454 23.88 136.894 22.12 133.774 22.12C132.281 22.12 131.014 22.7467 129.974 24C128.961 25.2267 128.454 26.6667 128.454 28.32V39H124.774V10.36ZM145.334 29.2C145.334 26.1867 146.281 23.6933 148.174 21.72C150.094 19.7467 152.507 18.76 155.414 18.76C158.321 18.76 160.721 19.7467 162.614 21.72C164.534 23.6933 165.494 26.1867 165.494 29.2C165.494 32.24 164.534 34.7333 162.614 36.68C160.721 38.6533 158.321 39.64 155.414 39.64C152.507 39.64 150.094 38.6533 148.174 36.68C146.281 34.7067 145.334 32.2133 145.334 29.2ZM149.014 29.2C149.014 31.3067 149.627 33.0133 150.854 34.32C152.081 35.6267 153.601 36.28 155.414 36.28C157.227 36.28 158.747 35.6267 159.974 34.32C161.201 33.0133 161.814 31.3067 161.814 29.2C161.814 27.12 161.201 25.4267 159.974 24.12C158.721 22.7867 157.201 22.12 155.414 22.12C153.627 22.12 152.107 22.7867 150.854 24.12C149.627 25.4267 149.014 27.12 149.014 29.2ZM167.717 29.2C167.717 26.1867 168.663 23.6933 170.557 21.72C172.477 19.7467 174.89 18.76 177.797 18.76C180.703 18.76 183.103 19.7467 184.997 21.72C186.917 23.6933 187.877 26.1867 187.877 29.2C187.877 32.24 186.917 34.7333 184.997 36.68C183.103 38.6533 180.703 39.64 177.797 39.64C174.89 39.64 172.477 38.6533 170.557 36.68C168.663 34.7067 167.717 32.2133 167.717 29.2ZM171.397 29.2C171.397 31.3067 172.01 33.0133 173.237 34.32C174.463 35.6267 175.983 36.28 177.797 36.28C179.61 36.28 181.13 35.6267 182.357 34.32C183.583 33.0133 184.197 31.3067 184.197 29.2C184.197 27.12 183.583 25.4267 182.357 24.12C181.103 22.7867 179.583 22.12 177.797 22.12C176.01 22.12 174.49 22.7867 173.237 24.12C172.01 25.4267 171.397 27.12 171.397 29.2ZM194.704 10.36V39H191.024V10.36H194.704ZM213.993 33.56C213.993 35.2667 213.246 36.7067 211.753 37.88C210.26 39.0533 208.38 39.64 206.113 39.64C204.14 39.64 202.406 39.1333 200.913 38.12C199.42 37.08 198.353 35.72 197.713 34.04L200.993 32.64C201.473 33.8133 202.166 34.7333 203.073 35.4C204.006 36.04 205.02 36.36 206.113 36.36C207.286 36.36 208.26 36.1067 209.033 35.6C209.833 35.0933 210.233 34.4933 210.233 33.8C210.233 32.5467 209.273 31.6267 207.353 31.04L203.993 30.2C200.18 29.24 198.273 27.4 198.273 24.68C198.273 22.8933 198.993 21.4667 200.433 20.4C201.9 19.3067 203.766 18.76 206.033 18.76C207.766 18.76 209.326 19.1733 210.713 20C212.126 20.8267 213.113 21.9333 213.673 23.32L210.393 24.68C210.02 23.8533 209.406 23.2133 208.553 22.76C207.726 22.28 206.793 22.04 205.753 22.04C204.793 22.04 203.926 22.28 203.153 22.76C202.406 23.24 202.033 23.8267 202.033 24.52C202.033 25.64 203.086 26.44 205.193 26.92L208.153 27.68C212.046 28.64 213.993 30.6 213.993 33.56ZM224.761 39.32C223.161 39.32 221.827 38.8267 220.761 37.84C219.721 36.8533 219.187 35.48 219.161 33.72V22.76H215.721V19.4H219.161V13.4H222.841V19.4H227.641V22.76H222.841V32.52C222.841 33.8267 223.094 34.72 223.601 35.2C224.107 35.6533 224.681 35.88 225.321 35.88C225.614 35.88 225.894 35.8533 226.161 35.8C226.454 35.72 226.721 35.6267 226.961 35.52L228.121 38.8C227.161 39.1467 226.041 39.32 224.761 39.32ZM233.431 33C233.431 33.96 233.831 34.76 234.631 35.4C235.457 36.04 236.417 36.36 237.511 36.36C239.057 36.36 240.431 35.7867 241.631 34.64C242.857 33.4933 243.471 32.1467 243.471 30.6C242.324 29.6933 240.724 29.24 238.671 29.24C237.177 29.24 235.924 29.6 234.911 30.32C233.924 31.04 233.431 31.9333 233.431 33ZM238.191 18.76C240.911 18.76 243.057 19.4933 244.631 20.96C246.204 22.4 246.991 24.3867 246.991 26.92V39H243.471V36.28H243.311C241.791 38.52 239.764 39.64 237.231 39.64C235.071 39.64 233.257 39 231.791 37.72C230.351 36.44 229.631 34.84 229.631 32.92C229.631 30.8933 230.391 29.28 231.911 28.08C233.457 26.88 235.511 26.28 238.071 26.28C240.257 26.28 242.057 26.68 243.471 27.48V26.64C243.471 25.36 242.964 24.28 241.951 23.4C240.937 22.4933 239.751 22.04 238.391 22.04C236.337 22.04 234.711 22.9067 233.511 24.64L230.271 22.6C232.057 20.04 234.697 18.76 238.191 18.76ZM269.506 47.64H265.826V39L265.986 36.28H265.826C265.186 37.2933 264.266 38.1067 263.066 38.72C261.893 39.3333 260.586 39.64 259.146 39.64C256.586 39.64 254.386 38.6267 252.546 36.6C250.733 34.5467 249.826 32.08 249.826 29.2C249.826 26.32 250.733 23.8533 252.546 21.8C254.386 19.7733 256.586 18.76 259.146 18.76C260.586 18.76 261.893 19.0667 263.066 19.68C264.266 20.2933 265.186 21.1067 265.826 22.12H265.986V19.4H269.506V47.64ZM259.746 36.28C261.559 36.28 263.039 35.6267 264.186 34.32C265.386 33.0133 265.986 31.3067 265.986 29.2C265.986 27.1467 265.386 25.4533 264.186 24.12C263.013 22.7867 261.533 22.12 259.746 22.12C257.986 22.12 256.506 22.7867 255.306 24.12C254.106 25.4533 253.506 27.1467 253.506 29.2C253.506 31.28 254.106 32.9733 255.306 34.28C256.506 35.6133 257.986 36.28 259.746 36.28Z" fill="white"/>
</svg>
