<svg width="244" height="49" viewBox="0 0 244 49" fill="none" xmlns="http://www.w3.org/2000/svg">
<path d="M97.654 31.376C97.654 32.8267 97.0193 34.0507 95.75 35.048C94.4807 36.0453 92.8827 36.544 90.956 36.544C89.2787 36.544 87.8053 36.1133 86.536 35.252C85.2667 34.368 84.36 33.212 83.816 31.784L86.604 30.594C87.012 31.5913 87.6013 32.3733 88.372 32.94C89.1653 33.484 90.0267 33.756 90.956 33.756C91.9533 33.756 92.7807 33.5407 93.438 33.11C94.118 32.6793 94.458 32.1693 94.458 31.58C94.458 30.5147 93.642 29.7327 92.01 29.234L89.154 28.52C85.9127 27.704 84.292 26.14 84.292 23.828C84.292 22.3093 84.904 21.0967 86.128 20.19C87.3747 19.2607 88.9613 18.796 90.888 18.796C92.3613 18.796 93.6873 19.1473 94.866 19.85C96.0673 20.5527 96.906 21.4933 97.382 22.672L94.594 23.828C94.2767 23.1253 93.7553 22.5813 93.03 22.196C92.3273 21.788 91.534 21.584 90.65 21.584C89.834 21.584 89.0973 21.788 88.44 22.196C87.8053 22.604 87.488 23.1027 87.488 23.692C87.488 24.644 88.3833 25.324 90.174 25.732L92.69 26.378C95.9993 27.194 97.654 28.86 97.654 31.376ZM108.159 36.544C105.688 36.544 103.637 35.7053 102.005 34.028C100.395 32.3053 99.5907 30.186 99.5907 27.67C99.5907 25.1087 100.395 22.9893 102.005 21.312C103.637 19.6347 105.688 18.796 108.159 18.796C109.859 18.796 111.343 19.2267 112.613 20.088C113.882 20.9267 114.834 22.094 115.469 23.59L112.613 24.78C111.729 22.6947 110.176 21.652 107.955 21.652C106.527 21.652 105.291 22.23 104.249 23.386C103.229 24.542 102.719 25.97 102.719 27.67C102.719 29.37 103.229 30.798 104.249 31.954C105.291 33.11 106.527 33.688 107.955 33.688C110.244 33.688 111.853 32.6453 112.783 30.56L115.571 31.75C114.959 33.246 113.995 34.4247 112.681 35.286C111.389 36.1247 109.881 36.544 108.159 36.544ZM118.306 11.656H121.434V19.34L121.298 21.652H121.434C121.91 20.836 122.636 20.156 123.61 19.612C124.608 19.068 125.639 18.796 126.704 18.796C128.744 18.796 130.308 19.3853 131.396 20.564C132.507 21.72 133.062 23.3747 133.062 25.528V36H129.934V26.14C129.934 23.148 128.608 21.652 125.956 21.652C124.687 21.652 123.61 22.1847 122.726 23.25C121.865 24.2927 121.434 25.5167 121.434 26.922V36H118.306V11.656ZM135.782 27.67C135.782 25.1087 136.587 22.9893 138.196 21.312C139.828 19.6347 141.879 18.796 144.35 18.796C146.821 18.796 148.861 19.6347 150.47 21.312C152.102 22.9893 152.918 25.1087 152.918 27.67C152.918 30.254 152.102 32.3733 150.47 34.028C148.861 35.7053 146.821 36.544 144.35 36.544C141.879 36.544 139.828 35.7053 138.196 34.028C136.587 32.3507 135.782 30.2313 135.782 27.67ZM138.91 27.67C138.91 29.4607 139.431 30.9113 140.474 32.022C141.517 33.1327 142.809 33.688 144.35 33.688C145.891 33.688 147.183 33.1327 148.226 32.022C149.269 30.9113 149.79 29.4607 149.79 27.67C149.79 25.902 149.269 24.4627 148.226 23.352C147.161 22.2187 145.869 21.652 144.35 21.652C142.831 21.652 141.539 22.2187 140.474 23.352C139.431 24.4627 138.91 25.902 138.91 27.67ZM154.807 27.67C154.807 25.1087 155.612 22.9893 157.221 21.312C158.853 19.6347 160.905 18.796 163.375 18.796C165.846 18.796 167.886 19.6347 169.495 21.312C171.127 22.9893 171.943 25.1087 171.943 27.67C171.943 30.254 171.127 32.3733 169.495 34.028C167.886 35.7053 165.846 36.544 163.375 36.544C160.905 36.544 158.853 35.7053 157.221 34.028C155.612 32.3507 154.807 30.2313 154.807 27.67ZM157.935 27.67C157.935 29.4607 158.457 30.9113 159.499 32.022C160.542 33.1327 161.834 33.688 163.375 33.688C164.917 33.688 166.209 33.1327 167.251 32.022C168.294 30.9113 168.815 29.4607 168.815 27.67C168.815 25.902 168.294 24.4627 167.251 23.352C166.186 22.2187 164.894 21.652 163.375 21.652C161.857 21.652 160.565 22.2187 159.499 23.352C158.457 24.4627 157.935 25.902 157.935 27.67ZM177.747 11.656V36H174.619V11.656H177.747ZM194.142 31.376C194.142 32.8267 193.508 34.0507 192.238 35.048C190.969 36.0453 189.371 36.544 187.444 36.544C185.767 36.544 184.294 36.1133 183.024 35.252C181.755 34.368 180.848 33.212 180.304 31.784L183.092 30.594C183.5 31.5913 184.09 32.3733 184.86 32.94C185.654 33.484 186.515 33.756 187.444 33.756C188.442 33.756 189.269 33.5407 189.926 33.11C190.606 32.6793 190.946 32.1693 190.946 31.58C190.946 30.5147 190.13 29.7327 188.498 29.234L185.642 28.52C182.401 27.704 180.78 26.14 180.78 23.828C180.78 22.3093 181.392 21.0967 182.616 20.19C183.863 19.2607 185.45 18.796 187.376 18.796C188.85 18.796 190.176 19.1473 191.354 19.85C192.556 20.5527 193.394 21.4933 193.87 22.672L191.082 23.828C190.765 23.1253 190.244 22.5813 189.518 22.196C188.816 21.788 188.022 21.584 187.138 21.584C186.322 21.584 185.586 21.788 184.928 22.196C184.294 22.604 183.976 23.1027 183.976 23.692C183.976 24.644 184.872 25.324 186.662 25.732L189.178 26.378C192.488 27.194 194.142 28.86 194.142 31.376ZM203.295 36.272C201.935 36.272 200.802 35.8527 199.895 35.014C199.011 34.1753 198.558 33.008 198.535 31.512V22.196H195.611V19.34H198.535V14.24H201.663V19.34H205.743V22.196H201.663V30.492C201.663 31.6027 201.878 32.362 202.309 32.77C202.74 33.1553 203.227 33.348 203.771 33.348C204.02 33.348 204.258 33.3253 204.485 33.28C204.734 33.212 204.961 33.1327 205.165 33.042L206.151 35.83C205.335 36.1247 204.383 36.272 203.295 36.272ZM210.664 30.9C210.664 31.716 211.004 32.396 211.684 32.94C212.387 33.484 213.203 33.756 214.132 33.756C215.447 33.756 216.614 33.2687 217.634 32.294C218.677 31.3193 219.198 30.1747 219.198 28.86C218.224 28.0893 216.864 27.704 215.118 27.704C213.849 27.704 212.784 28.01 211.922 28.622C211.084 29.234 210.664 29.9933 210.664 30.9ZM214.71 18.796C217.022 18.796 218.847 19.4193 220.184 20.666C221.522 21.89 222.19 23.5787 222.19 25.732V36H219.198V33.688H219.062C217.77 35.592 216.048 36.544 213.894 36.544C212.058 36.544 210.517 36 209.27 34.912C208.046 33.824 207.434 32.464 207.434 30.832C207.434 29.1093 208.08 27.738 209.372 26.718C210.687 25.698 212.432 25.188 214.608 25.188C216.467 25.188 217.997 25.528 219.198 26.208V25.494C219.198 24.406 218.768 23.488 217.906 22.74C217.045 21.9693 216.036 21.584 214.88 21.584C213.135 21.584 211.752 22.3207 210.732 23.794L207.978 22.06C209.497 19.884 211.741 18.796 214.71 18.796ZM241.328 43.344H238.2V36L238.336 33.688H238.2C237.656 34.5493 236.874 35.2407 235.854 35.762C234.857 36.2833 233.746 36.544 232.522 36.544C230.346 36.544 228.476 35.6827 226.912 33.96C225.371 32.2147 224.6 30.118 224.6 27.67C224.6 25.222 225.371 23.1253 226.912 21.38C228.476 19.6573 230.346 18.796 232.522 18.796C233.746 18.796 234.857 19.0567 235.854 19.578C236.874 20.0993 237.656 20.7907 238.2 21.652H238.336V19.34H241.328V43.344ZM233.032 33.688C234.574 33.688 235.832 33.1327 236.806 32.022C237.826 30.9113 238.336 29.4607 238.336 27.67C238.336 25.9247 237.826 24.4853 236.806 23.352C235.809 22.2187 234.551 21.652 233.032 21.652C231.536 21.652 230.278 22.2187 229.258 23.352C228.238 24.4853 227.728 25.9247 227.728 27.67C227.728 29.438 228.238 30.8773 229.258 31.988C230.278 33.1213 231.536 33.688 233.032 33.688Z" fill="#0066F5"/>
<path d="M39.7119 15.4199L35.3027 19.8799L40.1494 24.6445L24.1289 40.4541L7.90039 24.6445L24.1289 8.41309L26.3428 10.7334L31.085 5.88379L25.499 0.613281C25.1312 0.275938 24.6672 0.0613819 24.1719 0C23.6816 0.0594568 23.2236 0.274551 22.8643 0.613281L0.864258 22.3369C0.58437 22.5856 0.361946 22.8928 0.212891 23.2363C0.0638351 23.5798 -0.00854492 23.9519 0.000976562 24.3262C0.010498 24.7005 0.102226 25.0679 0.268555 25.4033C0.434883 25.7388 0.671696 26.0344 0.963867 26.2686L22.7148 47.8262C23.2477 48.2299 23.9079 48.4291 24.5752 48.3887C25.3173 48.1878 25.9952 47.8001 26.5449 47.2627L47.2168 26.0146C47.7061 25.5684 48.0412 24.9789 48.1738 24.3301C48.1185 23.6986 47.8434 23.1068 47.3955 22.6582L39.7119 15.4199Z" fill="#0066F5"/>
<path d="M27.1808 32.9881L31.591 28.5272L26.7443 23.7635L42.7638 7.95489L58.9943 23.7635L42.7638 39.9949L40.5499 37.6756L35.8078 42.5242L41.3937 47.7938C41.7614 48.1315 42.2254 48.3464 42.7208 48.408C43.2114 48.348 43.6696 48.1326 44.0294 47.7938L66.0294 26.0711C66.3091 25.8224 66.5319 25.5151 66.6808 25.1717C66.8298 24.8283 66.9013 24.457 66.8917 24.0828C66.8822 23.7086 66.7914 23.341 66.6251 23.0057C66.4589 22.6703 66.2218 22.3756 65.9298 22.1414L44.1779 0.583801C43.6453 0.179896 42.9858 -0.0202267 42.3185 0.018371C41.5763 0.219016 40.8983 0.606683 40.3488 1.14435L19.6769 22.3943C19.1873 22.8405 18.8518 23.43 18.7189 24.0789C18.7747 24.7102 19.0511 25.3016 19.4992 25.7498L27.1808 32.9881Z" fill="#0066F5"/>
</svg>
