<svg width="80" height="40" viewBox="0 0 80 40" fill="none" xmlns="http://www.w3.org/2000/svg">
<path d="M32 40H20C14.6957 40 9.60859 37.8929 5.85786 34.1421C2.10714 30.3914 0 25.3043 0 20C0 14.6957 2.10714 9.60859 5.85786 5.85786C9.60859 2.10714 14.6957 0 20 0H32C33.0609 0 34.0783 0.421428 34.8284 1.17157C35.5786 1.92172 36 2.93913 36 4C36 5.06087 35.5786 6.07828 34.8284 6.82843C34.0783 7.57857 33.0609 8 32 8H20C16.8174 8 13.7652 9.26428 11.5147 11.5147C9.26428 13.7652 8 16.8174 8 20C8 23.1826 9.26428 26.2348 11.5147 28.4853C13.7652 30.7357 16.8174 32 20 32H32C33.0609 32 34.0783 32.4214 34.8284 33.1716C35.5786 33.9217 36 34.9391 36 36C36 37.0609 35.5786 38.0783 34.8284 38.8284C34.0783 39.5786 33.0609 40 32 40ZM60 40H48C46.9391 40 45.9217 39.5786 45.1716 38.8284C44.4214 38.0783 44 37.0609 44 36C44 34.9391 44.4214 33.9217 45.1716 33.1716C45.9217 32.4214 46.9391 32 48 32H60C63.1826 32 66.2348 30.7357 68.4853 28.4853C70.7357 26.2348 72 23.1826 72 20C72 16.8174 70.7357 13.7652 68.4853 11.5147C66.2348 9.26428 63.1826 8 60 8H48C46.9391 8 45.9217 7.57857 45.1716 6.82843C44.4214 6.07828 44 5.06087 44 4C44 2.93913 44.4214 1.92172 45.1716 1.17157C45.9217 0.421428 46.9391 0 48 0H60C65.3043 0 70.3914 2.10714 74.1421 5.85786C77.8929 9.60859 80 14.6957 80 20C80 25.3043 77.8929 30.3914 74.1421 34.1421C70.3914 37.8929 65.3043 40 60 40Z" fill="#0066F5"/>
<path d="M52 24H28C26.9391 24 25.9217 23.5786 25.1716 22.8284C24.4214 22.0783 24 21.0609 24 20C24 18.9391 24.4214 17.9217 25.1716 17.1716C25.9217 16.4214 26.9391 16 28 16H52C53.0609 16 54.0783 16.4214 54.8284 17.1716C55.5786 17.9217 56 18.9391 56 20C56 21.0609 55.5786 22.0783 54.8284 22.8284C54.0783 23.5786 53.0609 24 52 24Z" fill="#5AC8FB"/>
</svg>
