<svg width="70" height="70" viewBox="0 0 70 70" fill="none" xmlns="http://www.w3.org/2000/svg">
<path d="M17.5 56C17.0403 56.0001 16.5852 55.9097 16.1605 55.7338C15.7358 55.558 15.3499 55.3002 15.0249 54.9751C14.6998 54.6501 14.442 54.2642 14.2662 53.8395C14.0903 53.4148 13.9999 52.9597 14 52.5V38.5C14 37.5717 14.3687 36.6815 15.0251 36.0251C15.6815 35.3687 16.5717 35 17.5 35C18.4283 35 19.3185 35.3687 19.9749 36.0251C20.6313 36.6815 21 37.5717 21 38.5V52.5C21.0001 52.9597 20.9097 53.4148 20.7338 53.8395C20.558 54.2642 20.3002 54.6501 19.9751 54.9751C19.6501 55.3002 19.2642 55.558 18.8395 55.7338C18.4148 55.9097 17.9597 56.0001 17.5 56ZM35 56C34.5403 56.0001 34.0852 55.9097 33.6605 55.7338C33.2358 55.558 32.8499 55.3002 32.5249 54.9751C32.1998 54.6501 31.942 54.2642 31.7662 53.8395C31.5903 53.4148 31.4999 52.9597 31.5 52.5V17.5C31.5 16.5717 31.8687 15.6815 32.5251 15.0251C33.1815 14.3687 34.0717 14 35 14C35.9283 14 36.8185 14.3687 37.4749 15.0251C38.1313 15.6815 38.5 16.5717 38.5 17.5V52.5C38.5001 52.9597 38.4097 53.4148 38.2338 53.8395C38.058 54.2642 37.8002 54.6501 37.4751 54.9751C37.1501 55.3002 36.7642 55.558 36.3395 55.7338C35.9148 55.9097 35.4597 56.0001 35 56ZM52.5 56C52.0403 56.0001 51.5852 55.9097 51.1605 55.7338C50.7358 55.558 50.3499 55.3002 50.0249 54.9751C49.6998 54.6501 49.442 54.2642 49.2662 53.8395C49.0903 53.4148 48.9999 52.9597 49 52.5V31.5C49 30.5717 49.3687 29.6815 50.0251 29.0251C50.6815 28.3687 51.5717 28 52.5 28C53.4283 28 54.3185 28.3687 54.9749 29.0251C55.6313 29.6815 56 30.5717 56 31.5V52.5C56.0001 52.9597 55.9097 53.4148 55.7338 53.8395C55.558 54.2642 55.3002 54.6501 54.9751 54.9751C54.6501 55.3002 54.2642 55.558 53.8395 55.7338C53.4148 55.9097 52.9597 56.0001 52.5 56Z" fill="#5AC8FB"/>
<path d="M59.5 0H10.5C7.71523 0 5.04451 1.10625 3.07538 3.07538C1.10625 5.04451 0 7.71523 0 10.5V59.5C0 62.2848 1.10625 64.9555 3.07538 66.9246C5.04451 68.8938 7.71523 70 10.5 70H59.5C62.2848 70 64.9555 68.8938 66.9246 66.9246C68.8938 64.9555 70 62.2848 70 59.5V10.5C70 7.71523 68.8938 5.04451 66.9246 3.07538C64.9555 1.10625 62.2848 0 59.5 0ZM21 52.5C21 53.4283 20.6313 54.3185 19.9749 54.9749C19.3185 55.6313 18.4283 56 17.5 56C16.5717 56 15.6815 55.6313 15.0251 54.9749C14.3687 54.3185 14 53.4283 14 52.5V38.5C14 37.5717 14.3687 36.6815 15.0251 36.0251C15.6815 35.3688 16.5717 35 17.5 35C18.4283 35 19.3185 35.3688 19.9749 36.0251C20.6313 36.6815 21 37.5717 21 38.5V52.5ZM38.5 52.5C38.5 53.4283 38.1312 54.3185 37.4749 54.9749C36.8185 55.6313 35.9283 56 35 56C34.0717 56 33.1815 55.6313 32.5251 54.9749C31.8687 54.3185 31.5 53.4283 31.5 52.5V17.5C31.5 16.5717 31.8687 15.6815 32.5251 15.0251C33.1815 14.3687 34.0717 14 35 14C35.9283 14 36.8185 14.3687 37.4749 15.0251C38.1312 15.6815 38.5 16.5717 38.5 17.5V52.5ZM56 52.5C56 53.4283 55.6313 54.3185 54.9749 54.9749C54.3185 55.6313 53.4283 56 52.5 56C51.5717 56 50.6815 55.6313 50.0251 54.9749C49.3687 54.3185 49 53.4283 49 52.5V31.5C49 30.5717 49.3687 29.6815 50.0251 29.0251C50.6815 28.3687 51.5717 28 52.5 28C53.4283 28 54.3185 28.3687 54.9749 29.0251C55.6313 29.6815 56 30.5717 56 31.5V52.5Z" fill="#0066F5"/>
</svg>
