<svg width="263" height="89" viewBox="0 0 263 89" fill="none" xmlns="http://www.w3.org/2000/svg">
<path d="M18.5604 87.0533C17.8908 87.0533 17.2373 87.0446 16.573 87.0295C15.1967 87.0113 13.8236 86.89 12.4649 86.6666C11.1981 86.4457 9.97086 86.0348 8.82372 85.4475C7.6871 84.865 6.65041 84.1013 5.75337 83.1855C4.84334 82.2806 4.0857 81.231 3.51047 80.0783C2.92891 78.9182 2.52643 77.6747 2.31706 76.3911C2.09096 75.0118 1.96863 73.6172 1.95112 72.2192C1.93719 71.7499 1.91895 70.1875 1.91895 70.1875V18.7888C1.91895 18.7888 1.93837 17.2504 1.95123 16.7985C1.96799 15.4027 2.08961 14.0102 2.31504 12.6331C2.52479 11.346 2.92758 10.0989 3.50946 8.93492C4.08258 7.78307 4.83601 6.73269 5.74056 5.82448C6.64409 4.90765 7.68409 4.13999 8.82265 3.54949C9.96715 2.96405 11.1921 2.55608 12.4563 2.33922C13.8194 2.11353 15.1973 1.99151 16.5784 1.97419L18.5615 1.94702H244.428L246.435 1.97528C247.804 1.99174 249.169 2.11267 250.519 2.33704C251.797 2.55662 253.034 2.96744 254.192 3.55601C256.473 4.74604 258.329 6.62878 259.5 8.94035C260.072 10.0963 260.469 11.3332 260.676 12.6092C260.904 13.9976 261.032 15.401 261.058 16.8082C261.064 17.4384 261.064 18.1152 261.064 18.7888C261.082 19.6232 261.082 20.4173 261.082 21.218V67.7843C261.082 68.5927 261.082 69.3814 261.064 70.1766C261.064 70.9002 261.064 71.563 261.056 72.2452C261.03 73.6273 260.904 75.0057 260.68 76.3693C260.475 77.6621 260.075 78.9154 259.493 80.085C258.914 81.2251 258.161 82.2657 257.261 83.1682C256.363 84.0889 255.325 84.8571 254.185 85.4433C253.031 86.0351 251.795 86.4475 250.519 86.6666C249.161 86.8912 247.788 87.0125 246.411 87.0295C245.768 87.0446 245.094 87.0533 244.439 87.0533L242.057 87.0577L18.5604 87.0533Z" fill="black"/>
<path d="M54.4378 45.1692C54.4615 43.312 54.9487 41.4911 55.8543 39.8759C56.7598 38.2607 58.0543 36.9035 59.6171 35.9308C58.6243 34.4953 57.3145 33.314 55.7918 32.4806C54.2691 31.6472 52.5754 31.1848 50.8453 31.13C47.1546 30.7378 43.5767 33.3657 41.696 33.3657C39.7789 33.3657 36.8833 31.1689 33.7651 31.2339C31.7483 31.2998 29.7827 31.8936 28.0598 32.9573C26.337 34.021 24.9157 35.5183 23.9345 37.3034C19.6839 44.7536 22.8544 55.703 26.9261 61.7252C28.9633 64.6741 31.3442 67.9681 34.4595 67.8513C37.508 67.7233 38.6465 65.8833 42.3263 65.8833C45.972 65.8833 47.0402 67.8513 50.2187 67.777C53.4899 67.7232 55.5509 64.815 57.5166 61.8382C58.9803 59.7369 60.1066 57.4147 60.8538 54.9573C58.9533 54.1436 57.3315 52.7815 56.1906 51.0409C55.0496 49.3003 54.4401 47.2581 54.4378 45.1692Z" fill="white"/>
<path d="M48.4347 27.1695C50.2183 25.0018 51.097 22.2157 50.8842 19.4028C48.1592 19.6926 45.6422 21.011 43.8345 23.0955C42.9507 24.1138 42.2737 25.2984 41.8424 26.5818C41.4111 27.8651 41.2339 29.2219 41.3208 30.5746C42.6838 30.5888 44.0322 30.2897 45.2644 29.6999C46.4966 29.1101 47.5806 28.2449 48.4347 27.1695Z" fill="white"/>
<path d="M92.9734 60.3859H82.5702L80.0719 67.854H75.6655L85.5192 40.224H90.0973L99.951 67.854H95.4695L92.9734 60.3859ZM83.6476 56.9398H91.8939L87.8288 44.8196H87.715L83.6476 56.9398Z" fill="white"/>
<path d="M121.232 57.783C121.232 64.0429 117.922 68.0649 112.928 68.0649C111.662 68.1319 110.404 67.8368 109.297 67.2135C108.19 66.5902 107.278 65.6639 106.667 64.5405H106.572V74.5182H102.488V47.7096H106.441V51.0601H106.516C107.156 49.9422 108.083 49.0206 109.199 48.3935C110.314 47.7664 111.577 47.4572 112.852 47.4988C117.903 47.4989 121.232 51.5403 121.232 57.783ZM117.033 57.783C117.033 53.7045 114.951 51.0232 111.775 51.0232C108.654 51.0232 106.555 53.761 106.555 57.783C106.555 61.8418 108.654 64.5601 111.775 64.5601C114.951 64.5601 117.033 61.8983 117.033 57.783Z" fill="white"/>
<path d="M143.132 57.7829C143.132 64.0429 139.823 68.0649 134.828 68.0649C133.563 68.1319 132.305 67.8368 131.198 67.2135C130.09 66.5902 129.179 65.6638 128.568 64.5405H128.473V74.5182H124.389V47.7096H128.342V51.0601H128.417C129.057 49.9421 129.984 49.0206 131.099 48.3935C132.215 47.7664 133.478 47.4572 134.753 47.4988C139.804 47.4988 143.132 51.5403 143.132 57.7829ZM138.934 57.7829C138.934 53.7045 136.852 51.0232 133.676 51.0232C130.555 51.0232 128.456 53.761 128.456 57.7829C128.456 61.8418 130.555 64.5601 133.676 64.5601C136.852 64.5601 138.934 61.8983 138.934 57.7829H138.934Z" fill="white"/>
<path d="M157.607 60.1556C157.91 62.8956 160.539 64.6946 164.132 64.6946C167.575 64.6946 170.052 62.8955 170.052 60.425C170.052 58.2804 168.558 56.9962 165.021 56.1162L161.484 55.2536C156.472 54.0281 154.145 51.6553 154.145 47.805C154.145 43.0378 158.249 39.7633 164.076 39.7633C169.843 39.7633 173.797 43.0378 173.93 47.805H169.807C169.56 45.0477 167.309 43.3833 164.018 43.3833C160.728 43.3833 158.477 45.0673 158.477 47.5182C158.477 49.4716 159.915 50.6211 163.432 51.501L166.439 52.2484C172.039 53.5891 174.366 55.8663 174.366 59.9077C174.366 65.077 170.298 68.3145 163.829 68.3145C157.777 68.3145 153.69 65.153 153.426 60.1554L157.607 60.1556Z" fill="white"/>
<path d="M183.181 42.9423V47.7095H186.964V50.984H183.181V62.0894C183.181 63.8147 183.938 64.6186 185.602 64.6186C186.051 64.6107 186.499 64.5788 186.945 64.523V67.7779C186.197 67.9194 185.437 67.9834 184.677 67.9691C180.648 67.9691 179.077 66.4372 179.077 62.5304V50.984H176.184V47.7095H179.077V42.9423H183.181Z" fill="white"/>
<path d="M189.156 57.7828C189.156 51.4446 192.843 47.4618 198.593 47.4618C204.362 47.4618 208.033 51.4445 208.033 57.7828C208.033 64.1384 204.382 68.1039 198.593 68.1039C192.807 68.1039 189.156 64.1384 189.156 57.7828ZM203.871 57.7828C203.871 53.435 201.903 50.8688 198.593 50.8688C195.283 50.8688 193.317 53.4545 193.317 57.7828C193.317 62.1481 195.283 64.6947 198.593 64.6947C201.903 64.6947 203.871 62.1481 203.871 57.7828H203.871Z" fill="white"/>
<path d="M211.4 47.7095H215.296V51.1382H215.39C215.654 50.0673 216.274 49.121 217.145 48.4582C218.017 47.7954 219.087 47.4566 220.177 47.4987C220.647 47.497 221.117 47.5488 221.576 47.653V51.5206C220.982 51.3368 220.362 51.2524 219.741 51.2708C219.148 51.2464 218.556 51.3523 218.007 51.5812C217.458 51.8102 216.964 52.1567 216.56 52.597C216.155 53.0373 215.85 53.561 215.664 54.132C215.479 54.7031 215.418 55.3081 215.485 55.9054V67.854H211.4L211.4 47.7095Z" fill="white"/>
<path d="M240.408 61.9373C239.858 65.5942 236.34 68.1039 231.84 68.1039C226.051 68.1039 222.458 64.1775 222.458 57.8784C222.458 51.5598 226.07 47.4618 231.668 47.4618C237.173 47.4618 240.635 51.2903 240.635 57.3982V58.8149H226.581V59.0648C226.516 59.8062 226.608 60.553 226.85 61.2558C227.092 61.9585 227.479 62.6011 227.986 63.1407C228.492 63.6804 229.106 64.1049 229.786 64.3859C230.467 64.6669 231.199 64.7981 231.934 64.7707C232.899 64.8623 233.868 64.636 234.696 64.1255C235.524 63.615 236.167 62.8475 236.529 61.9373L240.408 61.9373ZM226.6 55.925H236.549C236.585 55.2584 236.485 54.5914 236.255 53.9657C236.025 53.34 235.67 52.7692 235.212 52.2891C234.753 51.809 234.202 51.43 233.592 51.1759C232.982 50.9218 232.327 50.798 231.668 50.8123C231.003 50.8083 230.343 50.9377 229.728 51.193C229.112 51.4483 228.553 51.8245 228.082 52.2998C227.611 52.7751 227.237 53.3402 226.983 53.9624C226.729 54.5847 226.599 55.2517 226.6 55.9251V55.925Z" fill="white"/>
<path d="M70.5998 28.24C69.0098 28.24 67.6798 27.705 66.6098 26.635C65.5498 25.565 65.0198 24.23 65.0198 22.63C65.0198 21.03 65.5498 19.7 66.6098 18.64C67.6698 17.56 68.9998 17.02 70.5998 17.02C72.2198 17.02 73.5348 17.605 74.5448 18.775L73.5548 19.735C72.7848 18.805 71.7998 18.34 70.5998 18.34C69.4098 18.34 68.4148 18.74 67.6148 19.54C66.8248 20.33 66.4298 21.36 66.4298 22.63C66.4298 23.9 66.8248 24.93 67.6148 25.72C68.4148 26.52 69.4098 26.92 70.5998 26.92C71.8498 26.92 72.9348 26.395 73.8548 25.345L74.8598 26.32C74.3498 26.93 73.7248 27.405 72.9848 27.745C72.2448 28.075 71.4498 28.24 70.5998 28.24ZM75.5196 24.325C75.5196 23.195 75.8746 22.26 76.5846 21.52C77.3046 20.78 78.2096 20.41 79.2996 20.41C80.3896 20.41 81.2896 20.78 81.9996 21.52C82.7196 22.26 83.0796 23.195 83.0796 24.325C83.0796 25.465 82.7196 26.4 81.9996 27.13C81.2896 27.87 80.3896 28.24 79.2996 28.24C78.2096 28.24 77.3046 27.87 76.5846 27.13C75.8746 26.39 75.5196 25.455 75.5196 24.325ZM76.8996 24.325C76.8996 25.115 77.1296 25.755 77.5896 26.245C78.0496 26.735 78.6196 26.98 79.2996 26.98C79.9796 26.98 80.5496 26.735 81.0096 26.245C81.4696 25.755 81.6996 25.115 81.6996 24.325C81.6996 23.545 81.4696 22.91 81.0096 22.42C80.5396 21.92 79.9696 21.67 79.2996 21.67C78.6296 21.67 78.0596 21.92 77.5896 22.42C77.1296 22.91 76.8996 23.545 76.8996 24.325ZM85.5667 28H84.1867V20.65H85.5067V21.67H85.5667C85.7767 21.31 86.0967 21.01 86.5267 20.77C86.9667 20.53 87.4017 20.41 87.8317 20.41C88.3717 20.41 88.8467 20.535 89.2567 20.785C89.6667 21.035 89.9667 21.38 90.1567 21.82C90.7667 20.88 91.6117 20.41 92.6917 20.41C93.5417 20.41 94.1967 20.67 94.6567 21.19C95.1167 21.71 95.3467 22.45 95.3467 23.41V28H93.9667V23.62C93.9667 22.93 93.8417 22.435 93.5917 22.135C93.3417 21.825 92.9217 21.67 92.3317 21.67C91.8017 21.67 91.3567 21.895 90.9967 22.345C90.6367 22.795 90.4567 23.325 90.4567 23.935V28H89.0767V23.62C89.0767 22.93 88.9517 22.435 88.7017 22.135C88.4517 21.825 88.0317 21.67 87.4417 21.67C86.9117 21.67 86.4667 21.895 86.1067 22.345C85.7467 22.795 85.5667 23.325 85.5667 23.935V28ZM98.7451 18.115C98.7451 18.385 98.6501 18.615 98.4601 18.805C98.2701 18.995 98.0401 19.09 97.7701 19.09C97.5001 19.09 97.2701 18.995 97.0801 18.805C96.8901 18.615 96.7951 18.385 96.7951 18.115C96.7951 17.845 96.8901 17.615 97.0801 17.425C97.2701 17.235 97.5001 17.14 97.7701 17.14C98.0401 17.14 98.2701 17.235 98.4601 17.425C98.6501 17.615 98.7451 17.845 98.7451 18.115ZM98.4601 20.65V28H97.0801V20.65H98.4601ZM100.256 20.65H101.576V21.67H101.636C101.846 21.31 102.166 21.01 102.596 20.77C103.036 20.53 103.491 20.41 103.961 20.41C104.861 20.41 105.551 20.67 106.031 21.19C106.521 21.7 106.766 22.43 106.766 23.38V28H105.386V23.47C105.356 22.27 104.751 21.67 103.571 21.67C103.021 21.67 102.561 21.895 102.191 22.345C101.821 22.785 101.636 23.315 101.636 23.935V28H100.256V20.65ZM111.613 26.98C112.293 26.98 112.848 26.735 113.278 26.245C113.728 25.755 113.953 25.115 113.953 24.325C113.953 23.555 113.728 22.92 113.278 22.42C112.838 21.92 112.283 21.67 111.613 21.67C110.953 21.67 110.398 21.92 109.948 22.42C109.498 22.92 109.273 23.555 109.273 24.325C109.273 25.105 109.498 25.74 109.948 26.23C110.398 26.73 110.953 26.98 111.613 26.98ZM111.568 31.48C111.158 31.48 110.773 31.425 110.413 31.315C110.053 31.215 109.723 31.07 109.423 30.88C109.133 30.69 108.883 30.465 108.673 30.205C108.463 29.945 108.303 29.655 108.193 29.335L109.498 28.795C109.648 29.225 109.908 29.57 110.278 29.83C110.648 30.09 111.078 30.22 111.568 30.22C112.318 30.22 112.903 29.995 113.323 29.545C113.743 29.095 113.953 28.475 113.953 27.685V26.98H113.893C113.633 27.37 113.278 27.68 112.828 27.91C112.388 28.13 111.908 28.24 111.388 28.24C110.428 28.24 109.603 27.865 108.913 27.115C108.233 26.345 107.893 25.415 107.893 24.325C107.893 23.235 108.233 22.31 108.913 21.55C109.603 20.79 110.428 20.41 111.388 20.41C111.908 20.41 112.388 20.525 112.828 20.755C113.278 20.975 113.633 21.28 113.893 21.67H113.953V20.65H115.273V27.685C115.273 28.865 114.938 29.79 114.268 30.46C113.588 31.14 112.688 31.48 111.568 31.48ZM126.667 25.135C126.667 26.075 126.322 26.83 125.632 27.4C124.932 27.96 124.082 28.24 123.082 28.24C122.192 28.24 121.407 27.98 120.727 27.46C120.047 26.94 119.577 26.23 119.317 25.33L120.637 24.79C120.727 25.11 120.852 25.4 121.012 25.66C121.172 25.92 121.357 26.145 121.567 26.335C121.787 26.515 122.027 26.66 122.287 26.77C122.547 26.87 122.822 26.92 123.112 26.92C123.742 26.92 124.257 26.76 124.657 26.44C125.057 26.11 125.257 25.675 125.257 25.135C125.257 24.685 125.092 24.3 124.762 23.98C124.452 23.67 123.872 23.37 123.022 23.08C122.162 22.77 121.627 22.56 121.417 22.45C120.277 21.87 119.707 21.015 119.707 19.885C119.707 19.095 120.022 18.42 120.652 17.86C121.292 17.3 122.077 17.02 123.007 17.02C123.827 17.02 124.537 17.23 125.137 17.65C125.737 18.06 126.137 18.575 126.337 19.195L125.047 19.735C124.927 19.335 124.687 19.005 124.327 18.745C123.977 18.475 123.547 18.34 123.037 18.34C122.497 18.34 122.042 18.49 121.672 18.79C121.302 19.07 121.117 19.435 121.117 19.885C121.117 20.255 121.262 20.575 121.552 20.845C121.872 21.115 122.567 21.435 123.637 21.805C124.727 22.175 125.502 22.63 125.962 23.17C126.432 23.7 126.667 24.355 126.667 25.135ZM127.668 24.325C127.668 23.195 128.023 22.26 128.733 21.52C129.453 20.78 130.358 20.41 131.448 20.41C132.538 20.41 133.438 20.78 134.148 21.52C134.868 22.26 135.228 23.195 135.228 24.325C135.228 25.465 134.868 26.4 134.148 27.13C133.438 27.87 132.538 28.24 131.448 28.24C130.358 28.24 129.453 27.87 128.733 27.13C128.023 26.39 127.668 25.455 127.668 24.325ZM129.048 24.325C129.048 25.115 129.278 25.755 129.738 26.245C130.198 26.735 130.768 26.98 131.448 26.98C132.128 26.98 132.698 26.735 133.158 26.245C133.618 25.755 133.848 25.115 133.848 24.325C133.848 23.545 133.618 22.91 133.158 22.42C132.688 21.92 132.118 21.67 131.448 21.67C130.778 21.67 130.208 21.92 129.738 22.42C129.278 22.91 129.048 23.545 129.048 24.325ZM136.062 24.325C136.062 23.195 136.417 22.26 137.127 21.52C137.847 20.78 138.752 20.41 139.842 20.41C140.932 20.41 141.832 20.78 142.542 21.52C143.262 22.26 143.622 23.195 143.622 24.325C143.622 25.465 143.262 26.4 142.542 27.13C141.832 27.87 140.932 28.24 139.842 28.24C138.752 28.24 137.847 27.87 137.127 27.13C136.417 26.39 136.062 25.455 136.062 24.325ZM137.442 24.325C137.442 25.115 137.672 25.755 138.132 26.245C138.592 26.735 139.162 26.98 139.842 26.98C140.522 26.98 141.092 26.735 141.552 26.245C142.012 25.755 142.242 25.115 142.242 24.325C142.242 23.545 142.012 22.91 141.552 22.42C141.082 21.92 140.512 21.67 139.842 21.67C139.172 21.67 138.602 21.92 138.132 22.42C137.672 22.91 137.442 23.545 137.442 24.325ZM144.729 20.65H146.049V21.67H146.109C146.319 21.31 146.639 21.01 147.069 20.77C147.509 20.53 147.964 20.41 148.434 20.41C149.334 20.41 150.024 20.67 150.504 21.19C150.994 21.7 151.239 22.43 151.239 23.38V28H149.859V23.47C149.829 22.27 149.224 21.67 148.044 21.67C147.494 21.67 147.034 21.895 146.664 22.345C146.294 22.785 146.109 23.315 146.109 23.935V28H144.729V20.65ZM155.734 24.325C155.734 23.195 156.089 22.26 156.799 21.52C157.519 20.78 158.424 20.41 159.514 20.41C160.604 20.41 161.504 20.78 162.214 21.52C162.934 22.26 163.294 23.195 163.294 24.325C163.294 25.465 162.934 26.4 162.214 27.13C161.504 27.87 160.604 28.24 159.514 28.24C158.424 28.24 157.519 27.87 156.799 27.13C156.089 26.39 155.734 25.455 155.734 24.325ZM157.114 24.325C157.114 25.115 157.344 25.755 157.804 26.245C158.264 26.735 158.834 26.98 159.514 26.98C160.194 26.98 160.764 26.735 161.224 26.245C161.684 25.755 161.914 25.115 161.914 24.325C161.914 23.545 161.684 22.91 161.224 22.42C160.754 21.92 160.184 21.67 159.514 21.67C158.844 21.67 158.274 21.92 157.804 22.42C157.344 22.91 157.114 23.545 157.114 24.325ZM164.402 20.65H165.722V21.67H165.782C165.992 21.31 166.312 21.01 166.742 20.77C167.182 20.53 167.637 20.41 168.107 20.41C169.007 20.41 169.697 20.67 170.177 21.19C170.667 21.7 170.912 22.43 170.912 23.38V28H169.532V23.47C169.502 22.27 168.897 21.67 167.717 21.67C167.167 21.67 166.707 21.895 166.337 22.345C165.967 22.785 165.782 23.315 165.782 23.935V28H164.402V20.65ZM178.737 28.12C178.137 28.12 177.637 27.935 177.237 27.565C176.847 27.195 176.647 26.68 176.637 26.02V21.91H175.347V20.65H176.637V18.4H178.017V20.65H179.817V21.91H178.017V25.57C178.017 26.06 178.112 26.395 178.302 26.575C178.492 26.745 178.707 26.83 178.947 26.83C179.057 26.83 179.162 26.82 179.262 26.8C179.372 26.77 179.472 26.735 179.562 26.695L179.997 27.925C179.637 28.055 179.217 28.12 178.737 28.12ZM181.203 17.26H182.583V20.65L182.523 21.67H182.583C182.793 21.31 183.113 21.01 183.543 20.77C183.983 20.53 184.438 20.41 184.908 20.41C185.808 20.41 186.498 20.67 186.978 21.19C187.468 21.7 187.713 22.43 187.713 23.38V28H186.333V23.65C186.333 22.33 185.748 21.67 184.578 21.67C184.018 21.67 183.543 21.905 183.153 22.375C182.773 22.835 182.583 23.375 182.583 23.995V28H181.203V17.26ZM192.633 28.24C191.553 28.24 190.663 27.87 189.963 27.13C189.263 26.39 188.913 25.455 188.913 24.325C188.913 23.205 189.253 22.275 189.933 21.535C190.613 20.785 191.483 20.41 192.543 20.41C193.633 20.41 194.498 20.765 195.138 21.475C195.788 22.175 196.113 23.16 196.113 24.43L196.098 24.58H190.323C190.343 25.3 190.583 25.88 191.043 26.32C191.503 26.76 192.053 26.98 192.693 26.98C193.573 26.98 194.263 26.54 194.763 25.66L195.993 26.26C195.663 26.88 195.203 27.365 194.613 27.715C194.033 28.065 193.373 28.24 192.633 28.24ZM190.428 23.44H194.643C194.603 22.93 194.393 22.51 194.013 22.18C193.643 21.84 193.143 21.67 192.513 21.67C191.993 21.67 191.543 21.83 191.163 22.15C190.793 22.47 190.548 22.9 190.428 23.44Z" fill="white"/>
</svg>
