<svg width="63" height="70" viewBox="0 0 63 70" fill="none" xmlns="http://www.w3.org/2000/svg">
<path d="M52.5 70H10.5C4.55 70 0 65.45 0 59.5V10.5C0 8.4 1.4 7 3.5 7H59.5C61.6 7 63 8.4 63 10.5V59.5C63 65.45 58.45 70 52.5 70Z" fill="#0066F5"/>
<path d="M45.5 35H24.5C22.4 35 21 33.6 21 31.5C21 29.4 22.4 28 24.5 28H45.5C47.6 28 49 29.4 49 31.5C49 33.6 47.6 35 45.5 35ZM31.5 21C29.4 21 28 19.6 28 17.5V3.5C28 1.4 29.4 0 31.5 0C33.6 0 35 1.4 35 3.5V17.5C35 19.6 33.6 21 31.5 21ZM17.5 21C15.4 21 14 19.6 14 17.5V3.5C14 1.4 15.4 0 17.5 0C19.6 0 21 1.4 21 3.5V17.5C21 19.6 19.6 21 17.5 21ZM45.5 21C43.4 21 42 19.6 42 17.5V3.5C42 1.4 43.4 0 45.5 0C47.6 0 49 1.4 49 3.5V17.5C49 19.6 47.6 21 45.5 21ZM45.5 49H17.5C15.4 49 14 47.6 14 45.5C14 43.4 15.4 42 17.5 42H45.5C47.6 42 49 43.4 49 45.5C49 47.6 47.6 49 45.5 49Z" fill="#5AC8FB"/>
</svg>
