<svg width="70" height="70" viewBox="0 0 70 70" fill="none" xmlns="http://www.w3.org/2000/svg">
<path d="M55.9875 63.0016V3.51487C55.9881 2.90034 55.8269 2.29649 55.52 1.76406C55.2131 1.23164 54.7714 0.789422 54.2394 0.481897C53.7073 0.174373 53.1037 0.0123881 52.4892 0.0122386C51.8746 0.0120891 51.2709 0.17378 50.7387 0.481046L40.241 6.5032L29.7434 0.481046C29.2139 0.177808 28.6144 0.0182763 28.0043 0.0182763C27.3941 0.0182763 26.7946 0.177808 26.2652 0.481046L15.7675 6.5032L5.26986 0.481046C4.73713 0.168518 4.13118 0.00255994 3.51355 2.93793e-05C2.89593 -0.00250119 2.28864 0.158487 1.75337 0.466638C1.2181 0.77479 0.773934 1.21913 0.465983 1.75451C0.158032 2.28989 -0.00272728 2.89724 3.50062e-05 3.51487V63.0016C3.50062e-05 64.8577 0.737368 66.6377 2.04983 67.9502C3.36229 69.2627 5.14237 70 6.99847 70H62.9859C61.1298 70 59.3498 69.2627 58.0373 67.9502C56.7248 66.6377 55.9875 64.8577 55.9875 63.0016Z" fill="#0066F5"/>
<path d="M69.9844 42.0062V63.0015C69.9844 64.8576 69.247 66.6377 67.9346 67.9501C66.6221 69.2626 64.842 69.9999 62.9859 69.9999C61.1298 69.9999 59.3497 69.2626 58.0373 67.9501C56.7248 66.6377 55.9875 64.8576 55.9875 63.0015V35.0078H62.9859C64.842 35.0078 66.6221 35.7451 67.9346 37.0576C69.247 38.37 69.9844 40.1501 69.9844 42.0062ZM29.7434 50.7542H20.9953C20.0673 50.7542 19.1772 50.3856 18.521 49.7293C17.8648 49.0731 17.4961 48.1831 17.4961 47.255C17.4961 46.327 17.8648 45.4369 18.521 44.7807C19.1772 44.1245 20.0673 43.7558 20.9953 43.7558H29.7434C30.2074 43.7558 30.6524 43.5715 30.9805 43.2434C31.3086 42.9152 31.493 42.4702 31.493 42.0062C31.493 41.5422 31.3086 41.0971 30.9805 40.769C30.6524 40.4409 30.2074 40.2566 29.7434 40.2566H26.2441C23.924 40.2566 21.6989 39.3349 20.0583 37.6943C18.4178 36.0538 17.4961 33.8287 17.4961 31.5085C17.4961 29.1884 18.4178 26.9633 20.0583 25.3227C21.6989 23.6822 23.924 22.7605 26.2441 22.7605H34.9922C35.9202 22.7605 36.8103 23.1292 37.4665 23.7854C38.1227 24.4416 38.4914 25.3317 38.4914 26.2597C38.4914 27.1878 38.1227 28.0778 37.4665 28.734C36.8103 29.3903 35.9202 29.7589 34.9922 29.7589H26.2441C25.7801 29.7589 25.3351 29.9433 25.007 30.2714C24.6789 30.5995 24.4945 31.0445 24.4945 31.5085C24.4945 31.9726 24.6789 32.4176 25.007 32.7457C25.3351 33.0738 25.7801 33.2582 26.2441 33.2582H29.7434C32.0635 33.2582 34.2886 34.1798 35.9292 35.8204C37.5697 37.461 38.4914 39.6861 38.4914 42.0062C38.4914 44.3263 37.5697 46.5514 35.9292 48.192C34.2886 49.8326 32.0635 50.7542 29.7434 50.7542Z" fill="#5AC8FB"/>
<path d="M27.9943 29.759C27.0663 29.759 26.1762 29.3903 25.52 28.7341C24.8638 28.0779 24.4951 27.1878 24.4951 26.2598V21.0109C24.4951 20.0829 24.8638 19.1928 25.52 18.5366C26.1762 17.8804 27.0663 17.5117 27.9943 17.5117C28.9224 17.5117 29.8124 17.8804 30.4687 18.5366C31.1249 19.1928 31.4936 20.0829 31.4936 21.0109V26.2598C31.4936 27.1878 31.1249 28.0779 30.4687 28.7341C29.8124 29.3903 28.9224 29.759 27.9943 29.759ZM27.9943 56.0031C27.0663 56.0031 26.1762 55.6344 25.52 54.9782C24.8638 54.322 24.4951 53.4319 24.4951 52.5039V47.2551C24.4951 46.327 24.8638 45.437 25.52 44.7807C26.1762 44.1245 27.0663 43.7558 27.9943 43.7558C28.9224 43.7558 29.8124 44.1245 30.4687 44.7807C31.1249 45.437 31.4936 46.327 31.4936 47.2551V52.5039C31.4936 53.4319 31.1249 54.322 30.4687 54.9782C29.8124 55.6344 28.9224 56.0031 27.9943 56.0031Z" fill="#5AC8FB"/>
</svg>
