<svg width="173" height="176" viewBox="0 0 173 176" fill="none" xmlns="http://www.w3.org/2000/svg">
<rect width="150" height="150" rx="20" fill="#F3F7FA"/>
<path d="M145.412 176H66.5882C59.2741 175.991 52.262 173.082 47.0902 167.91C41.9183 162.738 39.0088 155.726 39 148.412V69.5882C39.0088 62.2741 41.9183 55.262 47.0902 50.0902C52.262 44.9183 59.2741 42.0088 66.5882 42H145.412C152.726 42.0088 159.738 44.9183 164.91 50.0902C170.082 55.262 172.991 62.2741 173 69.5882V148.412C172.991 155.726 170.082 162.738 164.91 167.91C159.738 173.082 152.726 175.991 145.412 176V176Z" fill="#5AC8FB"/>
<path d="M133.589 81.4118V42.0001H117.824V81.4118H94.1768V42.0001H78.4121V89.2942C78.4121 91.3847 79.2426 93.3896 80.7208 94.8678C82.199 96.3461 84.2039 97.1765 86.2945 97.1765H173V81.4118H133.589Z" fill="#0066F5"/>
<path d="M173 120.823H39V136.588H78.4117V176H94.1764V136.588H117.823V176H133.588V136.588H173V120.823Z" fill="#0066F5"/>
</svg>
