<svg width="148" height="148" viewBox="0 0 148 148" fill="none" xmlns="http://www.w3.org/2000/svg">
<path d="M117 147.333H30.3333C22.2914 147.324 14.5817 144.125 8.89517 138.438C3.20867 132.752 0.00972455 125.042 0 117V30.3333C0.00972455 22.2914 3.20867 14.5817 8.89517 8.89517C14.5817 3.20867 22.2914 0.00972455 30.3333 0H117C125.042 0.00972455 132.752 3.20867 138.438 8.89517C144.125 14.5817 147.324 22.2914 147.333 30.3333V117C147.324 125.042 144.125 132.752 138.438 138.438C132.752 144.125 125.042 147.324 117 147.333V147.333Z" fill="#5AC8FB"/>
<path d="M104.001 43.3333V0H86.6673V43.3333H60.6673V0H43.334V52C43.334 54.2985 44.2471 56.5029 45.8724 58.1283C47.4977 59.7536 49.7021 60.6667 52.0007 60.6667H147.334V43.3333H104.001Z" fill="#0066F5"/>
<path d="M147.333 86.6666H0V104H43.3333V147.333H60.6667V104H86.6667V147.333H104V104H147.333V86.6666Z" fill="#0066F5"/>
</svg>
