<svg width="315" height="203" viewBox="0 0 315 203" fill="none" xmlns="http://www.w3.org/2000/svg">
<g filter="url(#filter0_d)">
<rect x="7" y="7" width="301" height="188.12" fill="#F3F7FA"/>
<path d="M49.6492 20.8506H307.28V195.368H44.6738V23.9897C44.6738 23.1572 45.198 22.3587 46.1311 21.77C47.0641 21.1813 48.3297 20.8506 49.6492 20.8506Z" fill="white"/>
<path d="M39.9324 34.7012H12.2957C11.5129 34.7012 10.8784 35.2568 10.8784 35.9422V41.2165C10.8784 41.9019 11.5129 42.4575 12.2957 42.4575H39.9324C40.7151 42.4575 41.3496 41.9019 41.3496 41.2165V35.9422C41.3496 35.2568 40.7151 34.7012 39.9324 34.7012Z" fill="#E2EDFA"/>
<path d="M37.4453 38.0251H15.336C14.7098 38.0251 14.2021 38.1045 14.2021 38.2024V38.9559C14.2021 39.0538 14.7098 39.1332 15.336 39.1332H37.4453C38.0715 39.1332 38.5791 39.0538 38.5791 38.9559V38.2024C38.5791 38.1045 38.0715 38.0251 37.4453 38.0251Z" fill="#0066F5" fill-opacity="0.5"/>
<path d="M177.613 13.0942H155.504C154.878 13.0942 154.37 13.1736 154.37 13.2715V14.025C154.37 14.1229 154.878 14.2023 155.504 14.2023H177.613C178.239 14.2023 178.747 14.1229 178.747 14.025V13.2715C178.747 13.1736 178.239 13.0942 177.613 13.0942Z" fill="#022B69" fill-opacity="0.5"/>
<path d="M36.8906 62.4023H14.7813C14.1551 62.4023 13.6475 62.4817 13.6475 62.5796V63.3331C13.6475 63.431 14.1551 63.5104 14.7813 63.5104H36.8906C37.5168 63.5104 38.0244 63.431 38.0244 63.3331V62.5796C38.0244 62.4817 37.5168 62.4023 36.8906 62.4023Z" fill="#022B69" fill-opacity="0.5"/>
<path d="M36.8921 51.3218H14.7827C14.1566 51.3218 13.6489 51.4012 13.6489 51.4991V52.2525C13.6489 52.3504 14.1566 52.4298 14.7827 52.4298H36.8921C37.5183 52.4298 38.0259 52.3504 38.0259 52.2525V51.4991C38.0259 51.4012 37.5183 51.3218 36.8921 51.3218Z" fill="#022B69" fill-opacity="0.5"/>
<path d="M36.8906 73.4827H14.7813C14.1551 73.4827 13.6475 73.562 13.6475 73.66V74.4134C13.6475 74.5113 14.1551 74.5907 14.7813 74.5907H36.8906C37.5168 74.5907 38.0244 74.5113 38.0244 74.4134V73.66C38.0244 73.562 37.5168 73.4827 36.8906 73.4827Z" fill="#022B69" fill-opacity="0.5"/>
<path d="M36.8906 84.5632H14.7813C14.1551 84.5632 13.6475 84.6426 13.6475 84.7405V85.494C13.6475 85.5919 14.1551 85.6713 14.7813 85.6713H36.8906C37.5168 85.6713 38.0244 85.5919 38.0244 85.494V84.7405C38.0244 84.6426 37.5168 84.5632 36.8906 84.5632Z" fill="#022B69" fill-opacity="0.5"/>
<circle cx="298.416" cy="13.0941" r="2.77011" fill="#5AC8FB"/>
<path d="M24.7619 19.2281L23.9585 20.0408L24.8416 20.9089L21.9225 23.7896L18.9655 20.9089L21.9225 17.9514L22.3259 18.3742L23.19 17.4905L22.1722 16.5302C22.1051 16.4687 22.0206 16.4296 21.9303 16.4185C21.841 16.4293 21.7576 16.4685 21.6921 16.5302L17.6835 20.4884C17.6325 20.5338 17.592 20.5897 17.5648 20.6523C17.5376 20.7149 17.5244 20.7827 17.5262 20.8509C17.5279 20.9191 17.5446 20.986 17.5749 21.0472C17.6052 21.1083 17.6484 21.1622 17.7016 21.2048L21.6649 25.1328C21.762 25.2064 21.8822 25.2427 22.0038 25.2353C22.139 25.1987 22.2626 25.1281 22.3627 25.0301L26.1293 21.1586C26.2185 21.0773 26.2796 20.9698 26.3037 20.8516C26.2936 20.7366 26.2435 20.6287 26.1619 20.547L24.7619 19.2281Z" fill="#0066F5"/>
<path d="M22.4795 22.4306L23.2831 21.6178L22.3999 20.7498L25.3189 17.8693L28.2762 20.7498L25.3189 23.7073L24.9155 23.2847L24.0514 24.1682L25.0692 25.1283C25.1362 25.1899 25.2208 25.229 25.311 25.2403C25.4004 25.2293 25.4839 25.1901 25.5495 25.1283L29.5581 21.1703C29.609 21.1249 29.6496 21.069 29.6767 21.0064C29.7039 20.9438 29.7169 20.8762 29.7152 20.808C29.7134 20.7398 29.6969 20.6728 29.6666 20.6117C29.6363 20.5506 29.5931 20.4969 29.5399 20.4542L25.5765 16.5262C25.4795 16.4527 25.3593 16.4162 25.2377 16.4232C25.1025 16.4598 24.9789 16.5304 24.8788 16.6284L21.1122 20.5003C21.023 20.5816 20.9619 20.689 20.9376 20.8073C20.9478 20.9223 20.9982 21.0301 21.0798 21.1117L22.4795 22.4306Z" fill="#0066F5"/>
<path d="M97.6204 40.1721H59.7697C58.6977 40.1721 57.8286 40.0188 57.8286 39.8297V38.3744C57.8286 38.1853 58.6977 38.032 59.7697 38.032H97.6204C98.6924 38.032 99.5615 38.1853 99.5615 38.3744V39.8297C99.5615 40.0188 98.6924 40.1721 97.6204 40.1721Z" fill="#022B69" fill-opacity="0.9"/>
<path d="M97.6204 145.039H59.7697C58.6977 145.039 57.8286 144.886 57.8286 144.697V143.242C57.8286 143.053 58.6977 142.899 59.7697 142.899H97.6204C98.6924 142.899 99.5615 143.053 99.5615 143.242V144.697C99.5615 144.886 98.6924 145.039 97.6204 145.039Z" fill="#022B69" fill-opacity="0.9"/>
<path d="M86.957 54.0833H64.8477C64.2215 54.0833 63.7139 54.1626 63.7139 54.2605V55.014C63.7139 55.1119 64.2215 55.1913 64.8477 55.1913H86.957C87.5832 55.1913 88.0908 55.1119 88.0908 55.014V54.2605C88.0908 54.1626 87.5832 54.0833 86.957 54.0833Z" fill="#022B69" fill-opacity="0.5"/>
<path d="M97.3839 62.6438H65.3563C64.4492 62.6438 63.7139 62.7588 63.7139 62.9006V63.9921C63.7139 64.1339 64.4492 64.2489 65.3563 64.2489H97.3839C98.291 64.2489 99.0263 64.1339 99.0263 63.9921V62.9006C99.0263 62.7588 98.291 62.6438 97.3839 62.6438Z" fill="#022B69" fill-opacity="0.5"/>
<rect x="57.2583" y="47.0928" width="56.784" height="27.3569" rx="5.5" stroke="#CCCCCC" stroke-opacity="0.5"/>
<path d="M261.279 96.8862H211.782C210.38 96.8862 209.244 96.9629 209.244 97.0574V97.7851C209.244 97.8796 210.38 97.9563 211.782 97.9563H261.279C262.681 97.9563 263.817 97.8796 263.817 97.7851V97.0574C263.817 96.9629 262.681 96.8862 261.279 96.8862Z" fill="#CCCCCC"/>
<path d="M231.18 99.5614H210.314C209.723 99.5614 209.244 99.6381 209.244 99.7326V100.46C209.244 100.555 209.723 100.631 210.314 100.631H231.18C231.771 100.631 232.25 100.555 232.25 100.46V99.7326C232.25 99.6381 231.771 99.5614 231.18 99.5614Z" fill="#CCCCCC"/>
<circle cx="201.313" cy="99.6563" r="2.77011" fill="#5AC8FB" fill-opacity="0.6"/>
<path d="M261.279 107.052H211.782C210.38 107.052 209.244 107.129 209.244 107.223V107.951C209.244 108.045 210.38 108.122 211.782 108.122H261.279C262.681 108.122 263.817 108.045 263.817 107.951V107.223C263.817 107.129 262.681 107.052 261.279 107.052Z" fill="#CCCCCC"/>
<path d="M231.18 109.727H210.314C209.723 109.727 209.244 109.804 209.244 109.898V110.626C209.244 110.721 209.723 110.797 210.314 110.797H231.18C231.771 110.797 232.25 110.721 232.25 110.626V109.898C232.25 109.804 231.771 109.727 231.18 109.727Z" fill="#CCCCCC"/>
<circle cx="201.313" cy="109.822" r="2.77011" fill="#5AC8FB" fill-opacity="0.6"/>
<path d="M261.279 116.682H211.782C210.38 116.682 209.244 116.759 209.244 116.854V117.581C209.244 117.676 210.38 117.752 211.782 117.752H261.279C262.681 117.752 263.817 117.676 263.817 117.581V116.854C263.817 116.759 262.681 116.682 261.279 116.682Z" fill="#CCCCCC"/>
<path d="M231.18 119.358H210.314C209.723 119.358 209.244 119.434 209.244 119.529V120.257C209.244 120.351 209.723 120.428 210.314 120.428H231.18C231.771 120.428 232.25 120.351 232.25 120.257V119.529C232.25 119.434 231.771 119.358 231.18 119.358Z" fill="#CCCCCC"/>
<circle cx="201.313" cy="119.453" r="2.77011" fill="#5AC8FB" fill-opacity="0.6"/>
<rect x="192.623" y="90.4307" width="89.9563" height="38.5927" rx="5.5" stroke="#CCCCCC" stroke-opacity="0.5"/>
<path d="M84.581 170.187V161.091C84.581 160.997 84.5563 160.905 84.5095 160.824C84.4627 160.743 84.3954 160.675 84.3143 160.628C84.2333 160.581 84.1413 160.556 84.0476 160.556C83.9539 160.556 83.8618 160.58 83.7805 160.627L82.1733 161.547L80.5665 160.627C80.4855 160.58 80.3937 160.556 80.3003 160.556C80.2068 160.556 80.1151 160.58 80.034 160.627L78.4278 161.547L76.8211 160.627C76.7397 160.58 76.6476 160.556 76.5538 160.556C76.46 160.556 76.368 160.581 76.2868 160.628C76.2057 160.675 76.1384 160.742 76.0915 160.824C76.0447 160.905 76.02 160.997 76.02 161.091V170.187C76.02 170.471 76.1328 170.743 76.3334 170.943C76.5341 171.144 76.8063 171.257 77.0901 171.257H85.6511C85.3673 171.257 85.0951 171.144 84.8945 170.943C84.6938 170.743 84.581 170.471 84.581 170.187Z" fill="#0066F5"/>
<path d="M86.7205 166.976V170.187C86.7205 170.47 86.6077 170.743 86.407 170.943C86.2064 171.144 85.9342 171.257 85.6504 171.257V171.257C85.3666 171.257 85.0944 171.144 84.8937 170.943C84.693 170.743 84.5803 170.47 84.5803 170.187V165.906H85.6504C85.7909 165.906 85.93 165.934 86.0599 165.988C86.1897 166.041 86.3077 166.12 86.407 166.22C86.5064 166.319 86.5852 166.437 86.639 166.567C86.6928 166.697 86.7205 166.836 86.7205 166.976V166.976ZM80.5677 168.314H79.2301C79.1591 168.315 79.0886 168.302 79.0227 168.276C78.9568 168.249 78.8968 168.21 78.8463 168.16C78.7957 168.11 78.7555 168.051 78.7281 167.986C78.7006 167.92 78.6865 167.85 78.6865 167.779C78.6865 167.708 78.7006 167.638 78.7281 167.572C78.7555 167.507 78.7957 167.447 78.8463 167.398C78.8968 167.348 78.9568 167.308 79.0227 167.282C79.0886 167.256 79.1591 167.243 79.2301 167.244H80.5677C80.6387 167.244 80.7067 167.216 80.7569 167.165C80.8071 167.115 80.8353 167.047 80.8353 166.976C80.8353 166.829 80.7155 166.709 80.0327 166.709C79.6779 166.709 79.3377 166.568 79.0868 166.317C78.8359 166.066 78.695 165.726 78.695 165.371C78.695 165.016 78.8359 164.676 79.0868 164.425C79.3377 164.174 79.6779 164.033 80.0327 164.033H81.3705C81.4415 164.032 81.512 164.045 81.5779 164.071C81.6438 164.098 81.7038 164.137 81.7544 164.187C81.8049 164.237 81.8451 164.296 81.8725 164.361C81.9 164.427 81.9141 164.497 81.9141 164.568C81.9141 164.639 81.9 164.709 81.8725 164.775C81.8451 164.84 81.8049 164.9 81.7544 164.95C81.7038 164.999 81.6438 165.039 81.5779 165.065C81.512 165.091 81.4415 165.104 81.3705 165.103H80.0326C79.9617 165.103 79.8936 165.131 79.8434 165.182C79.7932 165.232 79.7651 165.3 79.7651 165.371C79.7651 165.442 79.7932 165.51 79.8434 165.56C79.8936 165.61 79.9617 165.638 80.0326 165.638H80.5677C80.9225 165.638 81.2628 165.779 81.5137 166.03C81.7646 166.281 81.9055 166.621 81.9055 166.976C81.9055 167.331 81.7646 167.671 81.5137 167.922C81.2628 168.173 80.9225 168.314 80.5677 168.314V168.314Z" fill="#5AC8FB"/>
<path d="M80.3002 165.104C80.23 165.104 80.1605 165.09 80.0956 165.063C80.0307 165.036 79.9717 164.997 79.922 164.947C79.8723 164.898 79.8329 164.839 79.806 164.774C79.779 164.709 79.7652 164.639 79.7651 164.569V163.766C79.7674 163.626 79.8247 163.492 79.9248 163.393C80.0249 163.295 80.1597 163.239 80.3002 163.239C80.4406 163.239 80.5755 163.295 80.6756 163.393C80.7757 163.492 80.833 163.626 80.8352 163.766V164.569C80.8353 164.639 80.8215 164.708 80.7947 164.773C80.7678 164.838 80.7285 164.897 80.6789 164.947C80.6292 164.997 80.5703 165.036 80.5054 165.063C80.4405 165.09 80.371 165.104 80.3008 165.104H80.3002ZM80.3002 169.117C80.23 169.117 80.1604 169.103 80.0955 169.076C80.0306 169.049 79.9716 169.01 79.9219 168.96C79.8722 168.911 79.8328 168.852 79.8059 168.787C79.779 168.722 79.7652 168.652 79.7651 168.582V167.779C79.7674 167.639 79.8247 167.505 79.9248 167.406C80.0249 167.308 80.1597 167.252 80.3002 167.252C80.4406 167.252 80.5755 167.308 80.6756 167.406C80.7757 167.505 80.833 167.639 80.8352 167.779V168.582C80.8353 168.652 80.8215 168.722 80.7947 168.787C80.7678 168.852 80.7285 168.911 80.6789 168.96C80.6292 169.01 80.5703 169.049 80.5054 169.076C80.4405 169.103 80.371 169.117 80.3008 169.117L80.3002 169.117Z" fill="#5AC8FB"/>
<rect x="58.3286" y="152.495" width="43.9431" height="27.3569" rx="5.5" stroke="#CCCCCC" stroke-opacity="0.5"/>
<rect x="111.832" y="152.495" width="43.9431" height="27.3569" rx="5.5" stroke="#CCCCCC" stroke-opacity="0.5"/>
<path d="M151.697 54.0833H129.587C128.961 54.0833 128.454 54.1626 128.454 54.2605V55.014C128.454 55.1119 128.961 55.1913 129.587 55.1913H151.697C152.323 55.1913 152.831 55.1119 152.831 55.014V54.2605C152.831 54.1626 152.323 54.0833 151.697 54.0833Z" fill="#022B69" fill-opacity="0.5"/>
<path d="M162.124 62.6438H130.096C129.189 62.6438 128.454 62.7588 128.454 62.9006V63.9921C128.454 64.1339 129.189 64.2489 130.096 64.2489H162.124C163.031 64.2489 163.766 64.1339 163.766 63.9921V62.9006C163.766 62.7588 163.031 62.6438 162.124 62.6438Z" fill="#022B69" fill-opacity="0.5"/>
<rect x="121.998" y="47.0928" width="56.784" height="27.3569" rx="5.5" stroke="#CCCCCC" stroke-opacity="0.5"/>
<path d="M220.181 54.0833H198.072C197.446 54.0833 196.938 54.1626 196.938 54.2605V55.014C196.938 55.1119 197.446 55.1913 198.072 55.1913H220.181C220.807 55.1913 221.315 55.1119 221.315 55.014V54.2605C221.315 54.1626 220.807 54.0833 220.181 54.0833Z" fill="#022B69" fill-opacity="0.5"/>
<path d="M230.608 62.6438H198.58C197.673 62.6438 196.938 62.7588 196.938 62.9006V63.9921C196.938 64.1339 197.673 64.2489 198.58 64.2489H230.608C231.515 64.2489 232.25 64.1339 232.25 63.9921V62.9006C232.25 62.7588 231.515 62.6438 230.608 62.6438Z" fill="#022B69" fill-opacity="0.5"/>
<rect x="190.482" y="47.0928" width="56.784" height="27.3569" rx="5.5" stroke="#CCCCCC" stroke-opacity="0.5"/>
<path d="M141.658 164.886H140.963V164.191C140.961 164.008 140.886 163.834 140.756 163.706C140.626 163.578 140.451 163.506 140.268 163.506C140.086 163.506 139.91 163.578 139.78 163.706C139.65 163.834 139.576 164.008 139.573 164.191V164.886H138.878C138.696 164.889 138.522 164.963 138.393 165.093C138.265 165.223 138.193 165.398 138.193 165.581C138.193 165.764 138.265 165.939 138.393 166.069C138.522 166.199 138.696 166.273 138.878 166.276H139.573V166.971C139.576 167.154 139.65 167.328 139.781 167.456C139.911 167.584 140.086 167.656 140.268 167.656C140.451 167.656 140.626 167.584 140.756 167.456C140.886 167.328 140.961 167.154 140.963 166.971V166.276H141.659C141.751 166.277 141.842 166.26 141.928 166.226C142.013 166.192 142.091 166.141 142.157 166.076C142.222 166.011 142.274 165.934 142.31 165.849C142.345 165.764 142.364 165.673 142.364 165.581C142.364 165.489 142.345 165.397 142.31 165.312C142.274 165.227 142.222 165.15 142.157 165.086C142.091 165.021 142.013 164.97 141.928 164.936C141.842 164.901 141.751 164.884 141.659 164.886H141.658Z" fill="#5AC8FB"/>
<path d="M133.971 167.083C135.881 167.083 137.429 165.502 137.429 163.552C137.429 161.602 135.881 160.021 133.971 160.021C132.061 160.021 130.513 161.602 130.513 163.552C130.513 165.502 132.061 167.083 133.971 167.083Z" fill="#D1F1FE"/>
<path d="M136.313 166.083C135.682 166.652 134.863 166.969 134.013 166.971C133.164 166.969 132.345 166.652 131.714 166.083C130.742 166.524 129.918 167.236 129.339 168.133C128.761 169.03 128.454 170.074 128.453 171.141V171.141C128.453 171.233 128.471 171.323 128.506 171.407C128.541 171.491 128.592 171.568 128.657 171.632C128.721 171.697 128.798 171.748 128.882 171.783C128.967 171.818 129.057 171.836 129.148 171.836H138.879C139.063 171.835 139.24 171.762 139.37 171.632C139.5 171.502 139.573 171.325 139.574 171.141C139.573 170.074 139.266 169.03 138.687 168.133C138.109 167.236 137.285 166.524 136.313 166.083V166.083Z" fill="#0066F5"/>
<rect x="170.151" y="151.96" width="43.9431" height="27.3569" rx="5.5" stroke="#CCCCCC" stroke-opacity="0.5"/>
<path d="M195.236 170.186H189.01C188.365 170.185 187.843 169.663 187.842 169.019V162.793C187.843 162.149 188.365 161.626 189.01 161.626H195.236C195.88 161.626 196.402 162.149 196.403 162.793V169.019C196.402 169.663 195.88 170.185 195.236 170.186Z" fill="#0066F5"/>
<path d="M190.566 163.182C190.781 163.182 190.955 163.008 190.955 162.793C190.955 162.578 190.781 162.404 190.566 162.404C190.351 162.404 190.177 162.578 190.177 162.793C190.177 163.008 190.351 163.182 190.566 163.182Z" fill="#0066F5"/>
<path d="M189.01 163.182C189.225 163.182 189.399 163.008 189.399 162.793C189.399 162.578 189.225 162.404 189.01 162.404C188.795 162.404 188.621 162.578 188.621 162.793C188.621 163.008 188.795 163.182 189.01 163.182Z" fill="#0066F5"/>
<path d="M192.123 163.182C192.337 163.182 192.512 163.008 192.512 162.793C192.512 162.578 192.337 162.404 192.123 162.404C191.908 162.404 191.733 162.578 191.733 162.793C191.733 163.008 191.908 163.182 192.123 163.182Z" fill="#0066F5"/>
<path d="M195.236 161.626H189.01C188.365 161.626 187.842 162.148 187.842 162.793V163.96H196.403V162.793C196.403 162.148 195.88 161.626 195.236 161.626ZM189.01 163.182C188.795 163.182 188.621 163.008 188.621 162.793C188.621 162.578 188.795 162.404 189.01 162.404C189.225 162.404 189.399 162.578 189.399 162.793C189.399 163.008 189.225 163.182 189.01 163.182ZM190.566 163.182C190.351 163.182 190.177 163.008 190.177 162.793C190.177 162.578 190.351 162.404 190.566 162.404C190.781 162.404 190.955 162.578 190.955 162.793C190.955 163.008 190.781 163.182 190.566 163.182ZM192.123 163.182C191.908 163.182 191.733 163.008 191.733 162.793C191.733 162.578 191.908 162.404 192.123 162.404C192.337 162.404 192.512 162.578 192.512 162.793C192.512 163.008 192.337 163.182 192.123 163.182Z" fill="#5AC8FB"/>
<rect x="228.47" y="151.96" width="43.9431" height="27.3569" rx="5.5" stroke="#CCCCCC" stroke-opacity="0.5"/>
<path d="M254.12 166.904V165.092C254.12 163.207 252.593 161.678 250.709 161.678C248.826 161.678 247.299 163.207 247.299 165.092V166.904C246.638 167.14 246.162 167.764 246.162 168.506V169.644V169.644C246.162 169.958 246.416 170.213 246.73 170.213H254.689H254.689C255.003 170.212 255.257 169.958 255.257 169.644V168.506C255.256 167.764 254.781 167.14 254.12 166.904Z" fill="#0066F5"/>
<path d="M248.52 170.196C248.773 171.172 249.653 171.896 250.709 171.897C251.765 171.896 252.645 171.172 252.899 170.196H248.52ZM250.709 161.69C250.903 161.69 251.092 161.71 251.277 161.741V161.123C251.277 160.809 251.023 160.556 250.709 160.556C250.396 160.556 250.142 160.809 250.142 161.123V161.741C250.327 161.71 250.515 161.69 250.709 161.69Z" fill="#5AC8FB"/>
<path d="M58.1982 122.106L68.506 107.673L78.8137 110.649L89.1214 122.106L99.4291 111.69L109.737 99.0424L120.045 113.476L130.352 104.846L140.66 96.2152L150.968 99.0424L161.275 105.441L171.583 86.3945" stroke="#5AC8FB" stroke-width="2"/>
<path d="M58.1982 122.701C57.87 122.701 57.603 122.434 57.603 122.106C57.603 121.778 57.87 121.511 58.1982 121.511C58.5264 121.511 58.7934 121.778 58.7934 122.106C58.7934 122.434 58.5264 122.701 58.1982 122.701Z" fill="#0066F5"/>
<path d="M58.1981 121.66C57.952 121.66 57.7517 121.86 57.7517 122.106C57.7517 122.352 57.952 122.552 58.1981 122.552C58.4442 122.552 58.6445 122.352 58.6445 122.106C58.6445 121.86 58.4442 121.66 58.1981 121.66ZM58.1981 121.362C58.609 121.362 58.9421 121.695 58.9421 122.106C58.9421 122.517 58.609 122.85 58.1981 122.85C57.7872 122.85 57.4541 122.517 57.4541 122.106C57.4541 121.695 57.7872 121.362 58.1981 121.362Z" fill="#5AC8FB"/>
<path d="M68.5057 108.416C68.9166 108.416 69.2497 108.083 69.2497 107.672C69.2497 107.262 68.9166 106.928 68.5057 106.928C68.0948 106.928 67.7617 107.262 67.7617 107.672C67.7617 108.083 68.0948 108.416 68.5057 108.416Z" fill="#0066F5"/>
<path d="M68.5058 108.268C68.8346 108.268 69.101 108.001 69.101 107.672C69.101 107.344 68.8346 107.077 68.5058 107.077C68.1771 107.077 67.9106 107.344 67.9106 107.672C67.9106 108.001 68.1771 108.268 68.5058 108.268Z" stroke="#5AC8FB" stroke-width="2"/>
<path d="M78.8133 111.393C79.2242 111.393 79.5573 111.059 79.5573 110.649C79.5573 110.238 79.2242 109.905 78.8133 109.905C78.4024 109.905 78.0693 110.238 78.0693 110.649C78.0693 111.059 78.4024 111.393 78.8133 111.393Z" fill="#0066F5"/>
<path d="M78.8125 111.244C79.1412 111.244 79.4077 110.977 79.4077 110.649C79.4077 110.32 79.1412 110.053 78.8125 110.053C78.4838 110.053 78.2173 110.32 78.2173 110.649C78.2173 110.977 78.4838 111.244 78.8125 111.244Z" stroke="#5AC8FB" stroke-width="2"/>
<path d="M89.1214 122.85C89.5323 122.85 89.8654 122.517 89.8654 122.106C89.8654 121.695 89.5323 121.362 89.1214 121.362C88.7105 121.362 88.3774 121.695 88.3774 122.106C88.3774 122.517 88.7105 122.85 89.1214 122.85Z" fill="#0066F5"/>
<path d="M89.1216 122.701C89.4503 122.701 89.7168 122.435 89.7168 122.106C89.7168 121.777 89.4503 121.511 89.1216 121.511C88.7928 121.511 88.5264 121.777 88.5264 122.106C88.5264 122.435 88.7928 122.701 89.1216 122.701Z" stroke="#5AC8FB" stroke-width="2"/>
<path d="M99.4291 112.434C99.8399 112.434 100.173 112.101 100.173 111.69C100.173 111.279 99.8399 110.946 99.4291 110.946C99.0182 110.946 98.6851 111.279 98.6851 111.69C98.6851 112.101 99.0182 112.434 99.4291 112.434Z" fill="#0066F5"/>
<path d="M99.4292 112.285C99.7579 112.285 100.024 112.019 100.024 111.69C100.024 111.361 99.7579 111.095 99.4292 111.095C99.1005 111.095 98.834 111.361 98.834 111.69C98.834 112.019 99.1005 112.285 99.4292 112.285Z" stroke="#5AC8FB" stroke-width="2"/>
<path d="M109.737 99.7862C110.148 99.7862 110.481 99.4531 110.481 99.0422C110.481 98.6313 110.148 98.2982 109.737 98.2982C109.326 98.2982 108.993 98.6313 108.993 99.0422C108.993 99.4531 109.326 99.7862 109.737 99.7862Z" fill="#0066F5"/>
<path d="M109.736 99.6374C110.065 99.6374 110.332 99.3709 110.332 99.0422C110.332 98.7135 110.065 98.447 109.736 98.447C109.408 98.447 109.141 98.7135 109.141 99.0422C109.141 99.3709 109.408 99.6374 109.736 99.6374Z" stroke="#5AC8FB" stroke-width="2"/>
<path d="M120.044 114.22C120.455 114.22 120.788 113.887 120.788 113.476C120.788 113.065 120.455 112.732 120.044 112.732C119.633 112.732 119.3 113.065 119.3 113.476C119.3 113.887 119.633 114.22 120.044 114.22Z" fill="#0066F5"/>
<path d="M120.044 114.071C120.373 114.071 120.639 113.804 120.639 113.476C120.639 113.147 120.373 112.88 120.044 112.88C119.715 112.88 119.449 113.147 119.449 113.476C119.449 113.804 119.715 114.071 120.044 114.071Z" stroke="#5AC8FB" stroke-width="2"/>
<path d="M130.352 105.589C130.763 105.589 131.096 105.256 131.096 104.845C131.096 104.435 130.763 104.101 130.352 104.101C129.941 104.101 129.608 104.435 129.608 104.845C129.608 105.256 129.941 105.589 130.352 105.589Z" fill="#0066F5"/>
<path d="M130.352 105.441C130.681 105.441 130.947 105.174 130.947 104.846C130.947 104.517 130.681 104.25 130.352 104.25C130.023 104.25 129.757 104.517 129.757 104.846C129.757 105.174 130.023 105.441 130.352 105.441Z" stroke="#5AC8FB" stroke-width="2"/>
<path d="M140.66 96.9592C141.07 96.9592 141.404 96.6261 141.404 96.2152C141.404 95.8043 141.07 95.4712 140.66 95.4712C140.249 95.4712 139.916 95.8043 139.916 96.2152C139.916 96.6261 140.249 96.9592 140.66 96.9592Z" fill="#0066F5"/>
<path d="M140.66 96.8104C140.988 96.8104 141.255 96.5439 141.255 96.2152C141.255 95.8865 140.988 95.62 140.66 95.62C140.331 95.62 140.064 95.8865 140.064 96.2152C140.064 96.5439 140.331 96.8104 140.66 96.8104Z" stroke="#5AC8FB" stroke-width="2"/>
<path d="M150.967 99.7862C151.378 99.7862 151.711 99.4531 151.711 99.0422C151.711 98.6313 151.378 98.2982 150.967 98.2982C150.556 98.2982 150.223 98.6313 150.223 99.0422C150.223 99.4531 150.556 99.7862 150.967 99.7862Z" fill="#0066F5"/>
<path d="M150.967 99.6374C151.296 99.6374 151.562 99.3709 151.562 99.0422C151.562 98.7135 151.296 98.447 150.967 98.447C150.639 98.447 150.372 98.7135 150.372 99.0422C150.372 99.3709 150.639 99.6374 150.967 99.6374Z" stroke="#5AC8FB" stroke-width="2"/>
<path d="M161.275 106.185C161.686 106.185 162.019 105.852 162.019 105.441C162.019 105.03 161.686 104.697 161.275 104.697C160.864 104.697 160.531 105.03 160.531 105.441C160.531 105.852 160.864 106.185 161.275 106.185Z" fill="#0066F5"/>
<path d="M161.275 106.036C161.604 106.036 161.87 105.769 161.87 105.44C161.87 105.112 161.604 104.845 161.275 104.845C160.946 104.845 160.68 105.112 160.68 105.44C160.68 105.769 160.946 106.036 161.275 106.036Z" stroke="#5AC8FB" stroke-width="2"/>
<path d="M171.583 87.1384C171.994 87.1384 172.327 86.8053 172.327 86.3944C172.327 85.9835 171.994 85.6504 171.583 85.6504C171.172 85.6504 170.839 85.9835 170.839 86.3944C170.839 86.8053 171.172 87.1384 171.583 87.1384Z" fill="#0066F5"/>
<path d="M171.583 86.9897C171.912 86.9897 172.178 86.7232 172.178 86.3945C172.178 86.0658 171.912 85.7993 171.583 85.7993C171.254 85.7993 170.988 86.0658 170.988 86.3945C170.988 86.7232 171.254 86.9897 171.583 86.9897Z" stroke="#5AC8FB" stroke-width="2"/>
<path d="M58.1982 129.523H171.583" stroke="#5AC8FB"/>
</g>
<defs>
<filter id="filter0_d" x="0" y="0" width="315" height="202.368" filterUnits="userSpaceOnUse" color-interpolation-filters="sRGB">
<feFlood flood-opacity="0" result="BackgroundImageFix"/>
<feColorMatrix in="SourceAlpha" type="matrix" values="0 0 0 0 0 0 0 0 0 0 0 0 0 0 0 0 0 0 127 0"/>
<feOffset/>
<feGaussianBlur stdDeviation="3.5"/>
<feColorMatrix type="matrix" values="0 0 0 0 0.425 0 0 0 0 0.421458 0 0 0 0 0.421458 0 0 0 0.25 0"/>
<feBlend mode="normal" in2="BackgroundImageFix" result="effect1_dropShadow"/>
<feBlend mode="normal" in="SourceGraphic" in2="effect1_dropShadow" result="shape"/>
</filter>
</defs>
</svg>
