<svg width="25" height="25" viewBox="0 0 25 25" fill="none" xmlns="http://www.w3.org/2000/svg">
<path d="M22.321 0.000732422H2.679C1.96848 0.000732422 1.28707 0.282983 0.784661 0.785393C0.282251 1.2878 0 1.96922 0 2.67973L0 22.3217C0 23.0322 0.282251 23.7137 0.784661 24.2161C1.28707 24.7185 1.96848 25.0007 2.679 25.0007H10.338V16.5007H6.822V12.5007H10.338V9.45173C10.338 5.98373 12.403 4.06773 15.565 4.06773C16.6035 4.08203 17.6396 4.17227 18.665 4.33773V7.73773H16.918C16.6204 7.69808 16.3178 7.72593 16.0324 7.8192C15.7471 7.91248 15.4864 8.06879 15.2697 8.27655C15.053 8.48431 14.8859 8.73819 14.7807 9.01935C14.6755 9.30052 14.6349 9.60176 14.662 9.90073V12.5007H18.5L17.886 16.5007H14.662V25.0007H22.321C23.0315 25.0007 23.7129 24.7185 24.2153 24.2161C24.7178 23.7137 25 23.0322 25 22.3217V2.67973C25 1.96922 24.7178 1.2878 24.2153 0.785393C23.7129 0.282983 23.0315 0.000732422 22.321 0.000732422Z" fill="white"/>
</svg>
