<svg width="534" height="392" viewBox="0 0 534 392" fill="none" xmlns="http://www.w3.org/2000/svg">
<rect width="534" height="392" rx="8" fill="#DBEAFF"/>
<path d="M238 243.25C228.655 243.25 219.52 240.479 211.749 235.287C203.979 230.095 197.923 222.715 194.347 214.082C190.77 205.448 189.835 195.947 191.658 186.782C193.481 177.616 197.981 169.197 204.589 162.589C211.197 155.981 219.616 151.481 228.782 149.658C237.948 147.835 247.448 148.77 256.082 152.347C264.716 155.923 272.095 161.979 277.287 169.749C282.479 177.519 285.25 186.655 285.25 196C285.236 208.527 280.254 220.537 271.396 229.396C262.538 238.254 250.527 243.236 238 243.25ZM238 169.75C232.808 169.75 227.733 171.289 223.416 174.174C219.1 177.058 215.735 181.158 213.748 185.954C211.761 190.751 211.242 196.029 212.254 201.121C213.267 206.213 215.767 210.89 219.438 214.561C223.11 218.233 227.787 220.733 232.879 221.745C237.971 222.758 243.249 222.239 248.045 220.252C252.842 218.265 256.942 214.9 259.826 210.584C262.71 206.267 264.25 201.192 264.25 196C264.242 189.04 261.474 182.368 256.553 177.447C251.631 172.526 244.959 169.758 238 169.75Z" fill="#5AC8FB"/>
<path d="M238 301C217.233 301 196.932 294.842 179.665 283.304C162.398 271.767 148.94 255.368 140.993 236.182C133.045 216.996 130.966 195.884 135.018 175.516C139.069 155.148 149.069 136.438 163.754 121.754C178.438 107.069 197.148 97.069 217.516 93.0176C237.884 88.9661 258.996 91.0455 278.182 98.9927C297.368 106.94 313.767 120.398 325.304 137.665C336.842 154.932 343 175.233 343 196V203.875C343 214.318 338.852 224.333 331.467 231.717C324.083 239.102 314.068 243.25 303.625 243.25C293.182 243.25 283.167 239.102 275.783 231.717C268.398 224.333 264.25 214.318 264.25 203.875V159.25C264.25 156.465 265.356 153.795 267.325 151.825C269.295 149.856 271.965 148.75 274.75 148.75C277.535 148.75 280.206 149.856 282.175 151.825C284.144 153.795 285.25 156.465 285.25 159.25V203.875C285.25 208.748 287.186 213.422 290.632 216.868C294.078 220.314 298.752 222.25 303.625 222.25C308.498 222.25 313.172 220.314 316.618 216.868C320.064 213.422 322 208.748 322 203.875V196C322 177.509 315.898 159.534 304.642 144.864C293.385 130.194 277.602 119.648 259.741 114.862C241.88 110.077 222.938 111.318 205.855 118.394C188.771 125.471 174.499 137.986 165.254 154C156.008 170.014 152.305 188.631 154.719 206.964C157.132 225.298 165.528 242.322 178.603 255.397C191.678 268.472 208.703 276.868 227.036 279.282C245.369 281.695 263.986 277.992 280 268.746C281.194 268.056 282.513 267.608 283.881 267.427C285.249 267.247 286.638 267.338 287.971 267.695C289.304 268.051 290.553 268.667 291.647 269.507C292.742 270.347 293.66 271.394 294.35 272.589C295.04 273.784 295.487 275.103 295.667 276.47C295.847 277.838 295.755 279.228 295.398 280.56C295.04 281.893 294.424 283.142 293.583 284.236C292.743 285.33 291.695 286.248 290.5 286.937C274.534 296.141 256.43 300.991 238 301Z" fill="#5AC8FB"/>
<mask id="mask0" mask-type="alpha" maskUnits="userSpaceOnUse" x="0" y="0" width="534" height="392">
<rect width="534" height="392" rx="8" fill="#DBEAFF"/>
</mask>
<g mask="url(#mask0)">
<path d="M442.822 390.268C444.982 387.401 447.14 384.533 449.3 381.666C451.041 378.788 454.035 375.942 454.537 372.615C454.579 370.947 452.921 370.487 451.659 370.873C448.707 372.051 447.361 375.774 446.047 378.245C443.877 381.529 442.114 385.241 439.945 388.526C439.057 390.59 441.528 391.905 442.822 390.268Z" fill="#AEE5FF"/>
<path d="M464.445 360.343C468.283 357.101 471.287 353.837 473.885 350.146C476.482 346.455 479.955 341.116 479.237 336.507C478.872 334.411 476.797 333.941 475.504 335.578C473.344 338.445 472.822 342.606 471.487 345.912C469.692 350.875 466.657 355.39 463.215 359.477C462.37 359.873 463.59 361.156 464.445 360.343Z" fill="#AEE5FF"/>
<path d="M489.25 320.063C493.088 316.821 496.103 313.14 498.721 308.615C501.34 304.089 504.407 298.322 503.698 293.296C503.323 291.617 500.821 291.554 500.372 292.795C497.774 296.486 497.648 301.492 495.875 305.621C494.091 310.167 491.055 314.683 487.613 318.77C486.758 319.583 487.967 321.283 489.25 320.063Z" fill="#AEE5FF"/>
<path d="M491.276 256.254C494.154 257.995 496.625 259.31 498.648 261.865C500.649 265.254 501.357 270.281 501.263 274.035C501.231 275.287 503.317 275.34 503.349 274.088C504.382 266.183 503.061 252.377 492.205 252.52C490.526 252.895 489.628 255.377 491.276 256.254Z" fill="#AEE5FF"/>
<path d="M447.427 240.54C452.005 241.072 456.615 240.354 461.202 240.47C467.032 241.034 472.413 242.839 476.917 246.292C477.741 246.729 478.19 245.489 477.783 245.062C469.191 238.167 457.241 232.022 446.28 236.338C444.164 237.537 445.342 240.487 447.427 240.54Z" fill="#AEE5FF"/>
<path d="M411.257 268.011C414.219 266.416 416.785 263.977 420.175 261.975C423.136 260.38 426.495 259.63 429.842 259.297C431.939 258.932 432.012 256.012 429.926 255.96C422.428 255.354 412.771 257.615 408.421 264.601C406.7 266.644 409.151 268.794 411.257 268.011Z" fill="#AEE5FF"/>
<path d="M393.524 292.609C399.084 287.323 405.07 281.63 408.993 275.051C410.297 272.996 407.408 271.672 406.115 273.309C401.38 279.033 393.766 283.015 390.25 290.022C389.781 292.097 391.814 294.235 393.524 292.609Z" fill="#AEE5FF"/>
<path d="M362.25 291.403C363.438 293.937 366.733 295.69 369.204 297.004C372.093 298.329 375.419 298.83 378.756 298.914C380.842 298.966 380.915 296.047 378.83 295.995C375.91 295.921 373.428 295.023 370.957 293.709C368.902 292.405 367.286 290.277 365.233 288.974C363.596 287.681 361.458 289.714 362.25 291.403Z" fill="#AEE5FF"/>
<path d="M337.633 274.505C343.231 284.246 346.712 295.186 351.466 305.323C353.853 309.974 360.632 305.971 358.662 301.33C355.118 292.894 352.001 284.049 347.196 275.998C350.96 275.675 354.725 275.353 358.907 275.041C360.586 274.666 363.506 274.739 364.799 273.101L365.226 272.695C365.226 272.695 365.643 272.706 365.654 272.289C366.509 271.476 365.717 269.786 364.882 269.765C364.476 269.337 364.058 269.327 363.224 269.306C361.149 268.837 359.053 269.201 356.55 269.138C351.117 269.418 346.101 269.71 340.689 269.156C338.197 268.675 336.445 271.97 337.633 274.505Z" fill="#AEE5FF"/>
</g>
</svg>
