<svg width="388" height="370" viewBox="0 0 388 370" fill="none" xmlns="http://www.w3.org/2000/svg">
<path d="M327.003 47.4952C322.081 43.494 316.956 39.7446 311.676 36.1891C288.425 19.2928 261.113 7.77353 231.429 3.25883C231.09 3.2007 230.731 3.16194 230.382 3.09413C227.176 2.62909 223.998 2.08655 220.714 1.78622C212.353 0.720514 203.914 -0.0157905 195.379 0.00358595C147.151 -0.296749 97.7605 18.2756 61.8076 53.0175C25.6124 87.2266 3.88173 137.257 4.70523 186.986C4.90868 211.788 10.2856 236.309 20.2839 258.262C25.9709 270.828 33.3436 282.367 41.6851 292.898C41.8305 293.091 41.9467 293.285 42.092 293.469C19.1407 266.362 3.51358 231.465 1.55656 195.89C-0.177633 196.917 -1.04957 210.015 2.13785 226.359C5.2187 242.674 13.163 261.653 22.7931 273.657C25.4283 279.896 19.2279 270.489 20.5358 274.374C23.6651 280.08 27.5113 285.661 31.6578 291.008C33.8086 293.682 36.1241 296.366 38.3718 298.904L45.3957 305.996C54.9289 314.948 65.2469 322.834 74.5379 328.376C71.3311 328.076 83.4898 340.612 99.7369 346.851C101.771 346.997 93.9337 341.901 96.5107 342.317C106.063 348.014 116.149 352.819 126.622 356.782C127.755 357.237 128.889 357.789 130.032 358.177C130.294 358.245 130.487 358.274 130.739 358.322C132.628 358.981 134.45 359.824 136.368 360.424C151.956 365.472 168.339 368.117 184.858 368.873C204.457 370.694 218.088 370.413 236.709 366.964C322.895 350.998 388 275.895 388 185.446C388 131.502 364.729 83.1188 327.836 49.3844C327.633 48.8419 327.371 48.2218 327.003 47.4952ZM94.0402 336.485C77.2893 325.75 62.5729 312.255 50.2592 296.928C44.8629 289.555 38.6043 280.865 33.2273 271.128C22.0859 251.965 15.3041 229.091 15.9726 215.741C16.8349 215.101 18.3656 224.005 20.807 232.618C23.2291 241.269 26.62 249.504 27.55 248.409C25.4864 237.607 21.1752 219.393 19.4604 201.528C17.4549 183.721 17.8521 166.466 16.7186 158.512C20.7877 135.958 29.8558 114.383 42.5183 95.4228C27.5985 122.065 19.005 152.729 19.005 185.446C19.005 261.178 64.7043 326.119 130.022 354.495C117.36 349.845 105.259 343.809 94.0402 336.485ZM374.814 159.249C375.686 165.449 376.229 171.688 376.461 177.966C376.219 175.903 375.589 173.519 374.717 171.989C373.642 170.1 369.961 167.087 370.116 164.18C370.271 161.516 373.942 160.605 374.814 159.249ZM332.593 179.429C333.736 181.754 336.943 185.736 337.912 183.721C338.27 182.965 338.513 181.716 338.561 179.739C338.784 171.533 341.535 166.563 341.535 166.563C341.535 166.563 342.049 165.711 342.679 164.645C343.299 163.589 344.374 157.699 347.784 158.638C348.986 158.968 350.516 160.188 352.435 162.93C354.082 165.304 355.477 167.135 356.659 168.549C359.158 171.533 361.803 174.052 361.803 175.011C361.803 175.98 362.287 177.947 362.859 179.42C363.44 180.883 364.496 182.113 365.194 182.171C365.911 182.229 366.502 181.522 366.502 180.602C366.502 179.681 367.509 179.594 368.73 180.388C369.97 181.202 371.491 182.655 372.14 183.653C372.76 184.651 374.039 184.99 374.969 184.448C375.706 183.992 376.345 182.413 376.549 180.66C377.072 203.844 373.361 227.221 364.903 249.078C355.729 273.589 340.828 295.775 322.11 314.057C290.701 343.325 248.684 361.374 202.335 361.374C105.153 361.374 26.3293 282.628 26.3293 185.475C26.3293 145.443 39.7475 108.579 62.2338 79.011C69.8391 69.0127 76.9018 62.9285 76.6208 64.2849C76.3496 65.6412 76.117 67.8308 76.117 69.1677C76.117 70.5047 73.2009 74.1572 69.8972 77.6934C68.3471 79.3501 66.4095 81.4718 63.9874 84.1457C61.2553 87.1684 59.2305 89.6292 57.7385 91.6541C54.5123 95.9944 54.0182 101.836 54.2604 103.716C54.493 105.595 55.4715 107.785 56.45 108.599C57.4285 109.413 58.6492 111.253 59.182 112.707L60.1606 115.342C60.1606 115.342 60.8 117.425 61.5944 120.011C62.3888 122.589 63.0283 126.871 63.0283 129.564C63.0283 132.267 63.4352 135.464 63.939 136.714C64.4428 137.954 67.1167 140.715 70.3332 142.081C71.9705 142.779 73.9856 143.467 76.3496 144.019C83.9548 145.772 82.7728 144.397 82.4241 145.772C82.0075 147.138 83.2088 150.462 88.6536 151.847C90.3103 152.254 91.376 152.932 92.0735 153.659C93.5752 155.238 95.1641 159.21 97.4505 161.622C98.9909 163.26 100.58 164.994 101.461 166.069C103.651 168.588 106.16 160.624 105.598 161.002C105.036 161.409 98.1771 159.83 98.1771 157.902C98.1771 155.935 104.048 146.557 98.739 146.954C93.488 147.342 90.9594 148.33 92.587 142.653C93.2167 140.202 92.3836 139.184 91.1532 138.865C88.6923 138.225 83.3832 141.868 80.9805 139.62C79.6339 138.361 80.4574 135.551 80.4574 133.866C80.283 128.644 81.2809 124.875 82.7728 122.143C85.97 116.282 95.0575 115.226 98.6131 115.051C100.715 114.945 103.012 114.751 105.036 114.392C107.332 113.976 108.524 114.867 109.096 116.127C110.2 118.539 109.057 123.141 110.888 124.429C112.215 125.35 113.039 121.581 113.039 121.581L114.124 116.33C114.124 116.33 114.385 114.799 114.657 113.21C114.957 111.496 119.259 108.657 123.279 105.353C127.3 102.05 135.525 90.1912 146.463 86.1802C157.391 82.179 167.273 83.952 167.273 83.952C167.273 83.952 168.833 84.0779 170.771 84.2426C172.699 84.3976 169.88 88.5926 173.057 89.1642C174.898 89.4936 178.744 88.0307 178.744 88.0307C178.744 88.0307 179.442 87.6819 180.314 87.2556C181.195 86.8197 183.569 85.8702 185.623 85.1339C186.776 84.7173 188.084 84.2426 189.334 83.7679C192.831 82.4212 191.504 79.2435 189.334 76.9086C188.752 76.2886 188.384 75.7557 188.181 75.3004C187.716 74.3025 188.006 72.1808 187.793 70.6694C187.667 69.7587 187.532 68.7608 187.367 67.9373C187.202 67.1138 186.708 66.7263 186.136 66.5616C185.119 66.2516 183.937 66.145 183.579 65.6025C183.24 65.0599 182.939 63.9167 182.939 63.0545C182.939 62.1922 181.118 61.4462 178.928 60.9618C177.882 60.7293 176.574 60.3902 175.034 59.9058C172.311 59.0436 173.842 56.4762 176.138 54.0541C178.948 51.0895 182.707 49.21 183.947 49.21H186.175C186.175 49.21 186.669 49.21 187.251 49.21C187.851 49.21 189.053 48.7547 189.285 47.8149C189.382 47.379 189.469 46.8073 189.469 46.071C189.469 43.1549 188.791 45.6738 192.608 41.9923C193.761 40.8975 194.236 39.9868 194.333 39.2409C194.565 37.4388 191.872 36.0825 190.961 35.3365C190.06 34.5808 187.764 33.4085 186.175 32.2072C185.323 31.5678 184.412 30.7346 183.627 29.6592C182.91 28.671 182.125 27.9638 181.409 27.4503C179.994 26.4427 177.475 25.0379 175.77 25.0282C174.927 25.0282 173.958 25.3092 172.941 26.1424C172.001 26.8884 171.623 27.4987 171.536 27.9831C171.333 29.262 171.837 30.3858 170.471 31.3159L168.019 32.9823C168.019 32.9823 166.653 34.0577 165.084 34.9974C163.379 36.005 161.926 42.6608 158.544 41.1688C157.546 40.7231 156.248 39.2215 154.563 35.9275C152.983 32.8273 151.501 31.0059 150.145 30.0177C146.841 27.5762 143.198 32.6916 142.714 34.7358C142.433 35.85 142.133 37.1288 141.842 38.4367C141.154 42.3798 139.178 44.2981 137.56 41.0138C137.172 40.1515 136.765 39.5993 136.407 39.2602C135.554 38.4658 133.278 39.1633 131.766 39.3377C130.255 39.5121 127.096 38.989 124.723 38.1655C122.34 37.3516 116.837 40.2387 111.624 43.6296C106.548 46.9333 101.868 49.2003 101.868 49.2003C101.868 49.2003 94.8637 52.9109 92.5676 52.9109C91.5988 52.9109 91.3178 53.3275 91.3275 53.8216C91.3275 54.7904 90.5719 55.0617 88.8861 54.616C87.2004 54.1607 93.4202 46.9042 103.796 39.8318C109.532 35.9372 115.548 32.4591 121.719 29.2426C133.549 23.9044 145.727 19.7482 157.934 16.7254C164.425 14.8459 166.886 13.7705 167.826 13.0149C177.766 11.0191 188.006 9.8565 198.489 9.63367C210.183 10.1665 221.828 11.4744 232.998 13.7512C253.266 17.8008 271.78 24.7182 286.652 31.8972C289.587 33.302 292.271 34.6971 294.925 36.0728C297.929 37.9329 300.893 39.8318 303.761 41.8664C314.021 49.1422 319.107 56.1952 316.239 56.1952C313.381 56.1952 308.615 55.6333 305.582 54.9358C302.569 54.2382 298.52 54.2382 296.524 54.9358C294.528 55.6333 292.096 55.6333 291.069 54.9358C290.052 54.2382 287.378 53.6763 285.111 53.6763H281.003C281.003 53.6763 279.686 53.6763 278.068 53.6763C276.44 53.6763 272.081 48.5318 265.977 47.6696C259.854 46.8073 255.029 55.6527 251.503 57.3481C247.976 59.0339 243.927 59.8864 242.764 59.8864C241.582 59.8864 239.402 59.5861 237.891 59.2083L235.159 58.5398C235.159 58.5398 233.085 58.0554 230.518 57.4741C227.931 56.8831 224.192 57.1834 222.118 58.1426C220.055 59.1114 216.422 63.3257 214.494 67.8017C212.585 72.2777 210.812 78.2068 209.892 80.7839L208.206 85.4536C208.206 85.4536 207.363 87.7691 206.356 90.6175C205.329 93.4658 203.982 97.8449 203.333 100.383L202.19 104.995C202.19 104.995 200.475 112.542 205.067 108.812C208.39 106.109 212.13 101.362 214.91 99.9956C217.672 98.6296 223.262 98.1064 226.42 100.063C228.096 101.11 229.743 102.67 230.818 104.995C231.555 106.564 232.233 107.746 232.843 108.628C234.132 110.527 235.663 110.236 235.333 109.006C235.023 107.775 235.023 106.041 235.333 105.13C235.663 104.229 236.418 103.658 237.067 103.852C237.716 104.045 238.23 104.782 238.23 105.489C238.23 106.206 238.453 107.388 238.763 108.134C239.063 108.889 240.109 110.595 241.543 111.215C242.997 111.835 248.441 108.889 251.29 111.66C254.119 114.421 250.321 120.709 247.86 123.325C245.399 125.95 242.822 127.559 242.163 126.958C241.505 126.367 240.08 125.582 239.015 125.214C237.949 124.836 236.409 124.216 235.624 123.829C234.82 123.441 234.064 121.562 233.899 119.624C233.735 117.696 232.737 115.962 231.661 115.749C230.576 115.536 227.767 115.623 225.393 115.952C223.01 116.282 210.774 118.016 207.945 127.84C205.116 137.663 210.657 152.234 213.67 159.733C216.674 167.222 219.561 175.186 220.094 177.501L221.082 181.706L223.058 187.529C223.058 187.529 224.211 191.511 228.338 192.344C232.398 193.158 237.406 192.256 239.644 193.758C241.882 195.26 243.888 198.244 243.946 200.424C243.985 201.625 243.994 202.991 243.917 204.338C243.83 205.839 244.343 207.457 244.983 208.901C246.048 211.265 247.608 216.671 247.821 221.282C248.044 225.923 246.882 234.41 247.589 240.329C248.257 246.22 250.418 254.552 251.047 259.183C251.658 263.823 255.301 272.891 260.542 271.768C262.664 271.312 265.037 269.549 267.479 265.403C269.736 261.566 271.509 258.233 272.875 255.443C275.597 249.804 276.624 242.17 278.727 239.913C280.848 237.655 283.58 233.121 283.939 228.907C284.307 224.702 283.396 216.913 285.77 212.34C288.163 207.767 292.445 205.045 293.743 205.539C295.109 206.062 295.952 206.663 295.952 206.663C295.952 206.663 297.977 207.874 299.653 206.178C301.203 204.59 298.268 200.937 298.481 197.818C298.713 194.708 303.49 188.43 300.845 184.041C298.219 179.633 297.115 175.331 300.138 172.967C303.16 170.594 305.931 167.697 306.357 166.573C306.774 165.449 308.935 162.301 307.055 160.45C305.214 158.59 298.365 154.453 292.939 149.716C287.785 145.191 283.329 140.938 283.329 140.938C283.329 140.938 282.059 139.669 280.529 138.109C278.979 136.549 273.146 132.693 275.588 131.356C278.039 130.01 281.362 132.403 282.544 133.129C283.745 133.846 285.567 134.04 286.429 133.992C287.291 133.943 290.759 132.277 293.802 133.691C295.187 134.331 296.737 135.532 298.365 137.625C300.38 140.173 302.521 142.721 304.468 144.949C307.917 148.931 312.606 153.523 314.757 155.364C316.937 157.195 319.94 159.162 321.51 159.753C323.079 160.334 324.988 162.388 325.773 164.335L327.197 167.852L330.471 175.283C330.51 175.225 331.46 177.094 332.593 179.429Z" fill="#AEE5FF" fill-opacity="0.5"/>
<path d="M181.093 192.208C178.293 190.377 174.544 188.439 172.742 187.906C170.921 187.344 167.307 185.969 164.662 184.787C162.008 183.605 159.324 181.386 158.655 179.826L157.454 177.007C157.454 177.007 157.251 176.377 157.018 175.622C156.786 174.856 156.253 173.626 155.865 172.89C155.478 172.144 154.877 171.543 154.499 171.543C154.121 171.543 153.433 170.923 152.93 170.177C152.426 169.421 150.275 168.811 148.134 168.811C145.974 168.811 144.23 168.307 144.23 167.697C144.23 167.077 143.474 165.681 142.554 164.567C141.633 163.463 139.841 161.622 138.572 160.45C137.293 159.278 134.813 158.338 133.04 158.338C131.277 158.338 127.692 159.665 125.25 158.716C124.117 158.28 122.867 157.379 121.637 155.712C119.835 153.319 117.713 153.968 115.921 155.46C113.111 157.786 110.883 161.06 109.691 161.603C108.519 162.136 108.848 165.827 108.257 169.906C107.802 173.064 106.678 175.912 106.029 177.017C98.7241 190.648 101.117 194.572 101.117 194.572C101.117 194.572 101.689 195.657 102.386 197.003C103.064 198.36 104.789 201.111 106.252 203.165C107.724 205.229 109.575 209.879 111.009 213.396C112.462 216.884 116.657 219.655 118.488 221.021C120.329 222.377 123.536 225.632 125.454 228.422C126.936 230.563 128.322 232.801 128.419 233.77C128.496 247.944 131.073 260.161 134.057 269.559C137.835 281.543 145.751 293.353 149.035 297.015C152.3 300.677 156.611 303.99 158.655 304.417C160.7 304.843 162.976 304.581 163.722 303.816C164.468 303.051 163.684 301.656 161.959 300.696C160.254 299.728 158.249 298.119 157.493 297.102C156.737 296.095 156.078 294.041 156.02 292.52C155.962 290.999 155.216 288.606 154.364 287.162C153.521 285.718 152.736 283.18 152.629 281.504C152.513 279.828 152.765 277.077 153.182 275.342C153.608 273.608 155.361 271.68 157.096 271.041C158.84 270.401 160.254 269.093 160.254 268.115C160.254 267.146 160.642 265.615 161.116 264.685C161.61 263.765 162.56 262.457 163.267 261.75C163.965 261.052 164.536 259.88 164.536 259.124V257.758C164.536 257.758 164.488 257.158 164.43 256.392C164.371 255.646 164.904 254.435 165.583 253.68C166.28 252.924 166.9 251.345 166.968 250.153L167.074 248.002C167.074 248.002 167.162 246.869 167.278 245.454C167.394 244.049 168.382 241.821 169.516 240.475C170.62 239.128 172.374 238.023 173.391 238.023C174.418 238.023 176.007 237.336 176.918 236.473C177.848 235.621 178.904 234.129 179.282 233.16C179.65 232.172 180.086 229.992 180.27 228.277C180.435 226.533 180.473 222.871 180.357 220.071C180.241 217.271 180.832 214.094 181.694 212.96C182.556 211.826 183.942 209.734 184.804 208.271C185.676 206.818 186.548 204.628 186.761 203.388C186.964 202.158 186.926 199.891 186.645 198.34C186.383 196.8 183.893 194.039 181.093 192.208Z" fill="#AEE5FF" fill-opacity="0.5"/>
<path d="M321.216 249.65L320.228 250.531L316.498 254.067C316.498 254.067 315.016 255.724 313.185 257.778C311.354 259.822 307.246 263.639 305.531 267.282C304.572 269.297 303.971 271.719 304.398 274.354C304.882 277.319 305.677 279.954 305.957 282.037C306.548 286.329 299.854 288.296 297.732 290.156C295.107 292.442 294.235 293.837 294.235 293.837C294.235 293.837 291.813 298.275 293.896 299.476C296.831 301.181 303.661 295.639 308.467 292.103C313.272 288.567 318.455 299.166 323.29 299.166C325.014 299.166 327.31 297.965 330.488 294.593C333.588 291.396 336.64 288.267 339.275 285.525C344.139 280.506 349.622 274.035 349.002 270.935C348.402 267.844 343.78 263.368 344.139 259.599C344.507 255.831 347.132 250.831 346.096 248.245C345.078 245.668 338.888 244.263 334.625 244.292C330.362 244.321 326.526 247.528 325.014 248.08C323.532 248.632 321.759 249.155 321.216 249.65Z" fill="#AEE5FF" fill-opacity="0.5"/>
</svg>
