<svg width="253" height="83" viewBox="0 0 253 83" fill="none" xmlns="http://www.w3.org/2000/svg">
<path d="M253 71.7826C253 77.9767 247.994 83 241.819 83H11.1839C5.00826 83.0005 0 77.9772 0 71.7826V11.2164C0 5.02283 5.00826 0 11.1839 0H241.818C247.993 0 252.999 5.02283 252.999 11.2164L253 71.7826Z" fill="black"/>
<path d="M18.9766 15.9792V72.1868L47.2375 44.0833L18.9766 15.9792Z" fill="url(#paint0_linear)"/>
<path d="M54.8278 36.5346L43.4199 29.9292L18.9766 15.775V15.9794L47.2375 44.0835L54.8278 36.5346Z" fill="url(#paint1_linear)"/>
<path d="M18.9766 72.1869V72.3913L43.4198 58.2366L54.8273 51.6313L47.2375 44.0834L18.9766 72.1869Z" fill="url(#paint2_linear)"/>
<path d="M54.8286 36.5344L47.2383 44.0833L54.8281 51.6312L67.8653 44.0828L54.8286 36.5344Z" fill="url(#paint3_linear)"/>
<path d="M196.897 55.0706C195.835 55.0706 194.867 54.8741 193.99 54.4817C193.113 54.0888 192.376 53.4846 191.78 52.67H191.602C191.721 53.6245 191.78 54.5294 191.78 55.3841V62.1105H189.313V38.426H191.32L191.662 40.6633H191.78C192.416 39.7679 193.155 39.1225 193.997 38.7247C194.839 38.3268 195.806 38.1279 196.896 38.1279C199.058 38.1279 200.726 38.869 201.9 40.3503C203.075 41.8316 203.663 43.9102 203.663 46.5841C203.663 49.2689 203.065 51.3539 201.872 52.8417C200.677 54.3279 199.019 55.0706 196.897 55.0706ZM196.539 40.2308C194.874 40.2308 193.669 40.6936 192.926 41.6178C192.183 42.5425 191.801 44.0144 191.78 46.033V46.5841C191.78 48.8814 192.162 50.5245 192.926 51.5142C193.69 52.5039 194.914 52.9975 196.599 52.9975C198.007 52.9975 199.111 52.4265 199.909 51.283C200.706 50.1401 201.105 48.564 201.105 46.5544C201.105 44.517 200.706 42.9523 199.909 41.8639C199.111 40.7745 197.987 40.2308 196.539 40.2308ZM209.379 54.7719H206.911V31.5652H209.379V54.7719ZM223.572 54.7719L223.08 52.4453H222.962C222.149 53.4702 221.338 54.1642 220.53 54.5259C219.722 54.8895 218.713 55.0706 217.504 55.0706C215.888 55.0706 214.622 54.6529 213.704 53.818C212.787 52.9831 212.329 51.7954 212.329 50.2536C212.329 46.9532 214.961 45.2228 220.225 45.0631L222.992 44.9733V43.9593C222.992 42.6764 222.717 41.7289 222.166 41.1182C221.617 40.506 220.735 40.2005 219.527 40.2005C218.168 40.2005 216.631 40.6182 214.917 41.4531L214.158 39.5591C214.962 39.1215 215.841 38.7788 216.798 38.5302C217.755 38.2817 218.714 38.1572 219.676 38.1572C221.619 38.1572 223.059 38.5893 223.996 39.4544C224.932 40.3196 225.401 41.7066 225.401 43.6161V54.7715H223.572V54.7719H223.572ZM217.995 53.0277C219.531 53.0277 220.738 52.605 221.616 51.7602C222.492 50.9153 222.932 49.7317 222.932 48.2097V46.7334L220.462 46.8371C218.5 46.908 217.085 47.2126 216.217 47.7558C215.35 48.2976 214.916 49.1404 214.916 50.2839C214.916 51.1783 215.185 51.8599 215.727 52.3262C216.267 52.7941 217.023 53.0277 217.995 53.0277ZM226.834 38.426H229.48L233.05 47.7479C233.833 49.8761 234.319 51.412 234.508 52.357H234.626C234.756 51.849 235.026 50.9823 235.437 49.7531C235.848 48.5248 237.195 44.75 239.474 38.426H242.122L235.117 57.0395C234.424 58.879 233.613 60.1842 232.685 60.9561C231.758 61.726 230.62 62.1105 229.273 62.1105C228.52 62.1105 227.776 62.0261 227.042 61.8575V59.8741C227.587 59.9932 228.197 60.0532 228.871 60.0532C230.567 60.0532 231.775 59.0987 232.5 57.1893L233.407 54.8632L226.834 38.426ZM151.167 39.945C151.951 40.5953 153.587 41.9616 153.587 44.5616C153.587 47.0901 152.155 48.2891 150.723 49.4157C150.28 49.8597 149.768 50.3399 149.768 51.0929C149.768 51.8435 150.279 52.2543 150.656 52.5624L151.883 53.5178C153.383 54.7833 154.746 55.9466 154.746 58.3065C154.746 61.5201 151.643 64.767 145.781 64.767C140.837 64.767 138.452 62.4086 138.452 59.8771C138.452 58.6468 139.062 56.9041 141.077 55.706C143.189 54.4068 146.054 54.2376 147.588 54.1325C147.109 53.5178 146.565 52.868 146.565 51.8098C146.565 51.2294 146.736 50.8871 146.905 50.4749C146.529 50.5096 146.155 50.5438 145.813 50.5438C142.201 50.5438 140.156 47.8426 140.156 45.1772C140.156 43.6041 140.872 41.8594 142.336 40.5959C144.28 38.9891 146.598 38.7147 148.441 38.7147H155.462L153.28 39.9455H151.167V39.945H151.167ZM148.746 55.1261C148.473 55.0904 148.302 55.0904 147.963 55.0904C147.656 55.0904 145.813 55.1604 144.383 55.6401C143.633 55.9114 141.45 56.732 141.45 59.1608C141.45 61.5871 143.804 63.3334 147.452 63.3334C150.723 63.3334 152.463 61.7573 152.463 59.6395C152.463 57.8923 151.338 56.9731 148.746 55.1261ZM149.735 48.6289C150.518 47.8417 150.586 46.7488 150.586 46.1327C150.586 43.6716 149.12 39.8423 146.292 39.8423C145.404 39.8423 144.45 40.2863 143.905 40.9709C143.326 41.6887 143.154 42.611 143.154 43.5009C143.154 45.7913 144.484 49.5869 147.417 49.5869C148.269 49.5869 149.188 49.1766 149.735 48.6289ZM129.705 54.579C124.294 54.579 121.401 50.3459 121.401 46.5221C121.401 42.0499 125.042 38.2286 130.218 38.2286C135.218 38.2286 138.35 42.1526 138.35 46.2839C138.351 50.3102 135.255 54.579 129.705 54.579ZM133.959 51.8143C134.777 50.7209 134.982 49.3562 134.982 48.0238C134.982 45.019 133.552 39.2853 129.331 39.2853C128.208 39.2853 127.086 39.7298 126.269 40.4481C124.941 41.6411 124.702 43.1438 124.702 44.6132C124.702 47.99 126.37 53.5526 130.489 53.5526C131.816 53.5526 133.178 52.9052 133.959 51.8143ZM111.257 54.579C105.846 54.579 102.952 50.3459 102.952 46.5221C102.952 42.0499 106.594 38.2286 111.768 38.2286C116.771 38.2286 119.902 42.1526 119.902 46.2839C119.902 50.3102 116.806 54.579 111.257 54.579ZM115.512 51.8143C116.329 50.7209 116.534 49.3562 116.534 48.0238C116.534 45.019 115.103 39.2853 110.882 39.2853C109.76 39.2853 108.636 39.7298 107.82 40.4481C106.493 41.6411 106.255 43.1438 106.255 44.6132C106.255 47.99 107.922 53.5526 112.041 53.5526C113.369 53.5526 114.73 52.9052 115.512 51.8143ZM100.352 54.0437L95.458 55.1762C93.4725 55.4858 91.6938 55.7581 89.8127 55.7581C80.367 55.7581 76.7754 48.7912 76.7754 43.3343C76.7754 36.6774 81.8732 30.5016 90.6002 30.5016C92.4487 30.5016 94.2264 30.7754 95.8345 31.2219C98.4007 31.9427 99.5983 32.8342 100.352 33.3496L97.5103 36.0607L96.3133 36.334L97.1685 34.9609C96.0056 33.8293 93.8821 31.7363 89.8458 31.7363C84.4389 31.7363 80.366 35.8563 80.366 41.8614C80.366 48.3114 85.0206 54.386 92.4788 54.386C94.6711 54.386 95.7979 53.9405 96.8253 53.5278V48.0039L91.6592 48.2782L94.3956 46.8009H101.651L100.762 47.6586C100.52 47.8655 100.487 47.935 100.419 48.2068C100.383 48.5164 100.351 49.5125 100.351 49.8553V54.0437H100.352V54.0437Z" fill="#F9F9F9"/>
<path d="M161.983 53.0555C160.853 52.9523 160.617 52.7474 160.617 51.4075V31.9839C160.624 31.91 160.628 31.8341 160.635 31.7626C160.773 30.5621 161.115 30.3562 162.177 29.7377H157.282L154.715 30.9734H157.331V30.9888L157.329 30.9764V52.1635C157.329 52.8486 157.194 52.9528 156.406 53.9812H162.463L163.73 53.2281C163.149 53.1572 162.566 53.124 161.983 53.0555ZM175.907 53.371C175.535 53.5759 175.161 53.8155 174.788 53.9847C173.665 54.4956 172.51 54.6325 171.489 54.6325C170.404 54.6325 168.703 54.5621 166.969 53.3025C164.558 51.597 163.504 48.6662 163.504 46.1108C163.504 40.8291 167.786 38.239 171.286 38.239C172.51 38.239 173.769 38.5451 174.788 39.194C176.486 40.3166 176.927 41.7821 177.164 42.5663L169.18 45.8053L166.563 46.0096C167.411 50.338 170.333 52.8581 173.563 52.8581C175.295 52.8581 176.553 52.2459 177.708 51.6675L175.907 53.371ZM172.714 43.2132C173.358 42.9756 173.698 42.7702 173.698 42.2935C173.698 40.9313 172.17 39.3626 170.333 39.3626C168.972 39.3626 166.425 40.4198 166.425 44.0998C166.425 44.6792 166.494 45.2924 166.529 45.9079L172.714 43.2132ZM179.187 38.4722V40.7209H178.915V38.4722H178.173V38.239H179.929V38.4722H179.187ZM182.244 40.7209V38.4513H182.232L181.541 40.7209H181.328L180.632 38.4513H180.623V40.7209H180.375V38.239H180.799L181.43 40.2452H181.438L182.059 38.239H182.489V40.7209H182.244Z" fill="#F9F9F9"/>
<path d="M83.5217 23.24C81.9317 23.24 80.6017 22.705 79.5317 21.635C78.4717 20.565 77.9417 19.23 77.9417 17.63C77.9417 16.03 78.4717 14.7 79.5317 13.64C80.5917 12.56 81.9217 12.02 83.5217 12.02C85.1417 12.02 86.4567 12.605 87.4667 13.775L86.4767 14.735C85.7067 13.805 84.7217 13.34 83.5217 13.34C82.3317 13.34 81.3367 13.74 80.5367 14.54C79.7467 15.33 79.3517 16.36 79.3517 17.63C79.3517 18.9 79.7467 19.93 80.5367 20.72C81.3367 21.52 82.3317 21.92 83.5217 21.92C84.7717 21.92 85.8567 21.395 86.7767 20.345L87.7817 21.32C87.2717 21.93 86.6467 22.405 85.9067 22.745C85.1667 23.075 84.3717 23.24 83.5217 23.24ZM88.4415 19.325C88.4415 18.195 88.7965 17.26 89.5065 16.52C90.2265 15.78 91.1315 15.41 92.2215 15.41C93.3115 15.41 94.2115 15.78 94.9215 16.52C95.6415 17.26 96.0015 18.195 96.0015 19.325C96.0015 20.465 95.6415 21.4 94.9215 22.13C94.2115 22.87 93.3115 23.24 92.2215 23.24C91.1315 23.24 90.2265 22.87 89.5065 22.13C88.7965 21.39 88.4415 20.455 88.4415 19.325ZM89.8215 19.325C89.8215 20.115 90.0515 20.755 90.5115 21.245C90.9715 21.735 91.5415 21.98 92.2215 21.98C92.9015 21.98 93.4715 21.735 93.9315 21.245C94.3915 20.755 94.6215 20.115 94.6215 19.325C94.6215 18.545 94.3915 17.91 93.9315 17.42C93.4615 16.92 92.8915 16.67 92.2215 16.67C91.5515 16.67 90.9815 16.92 90.5115 17.42C90.0515 17.91 89.8215 18.545 89.8215 19.325ZM98.4886 23H97.1086V15.65H98.4286V16.67H98.4886C98.6986 16.31 99.0186 16.01 99.4486 15.77C99.8886 15.53 100.324 15.41 100.754 15.41C101.294 15.41 101.769 15.535 102.179 15.785C102.589 16.035 102.889 16.38 103.079 16.82C103.689 15.88 104.534 15.41 105.614 15.41C106.464 15.41 107.119 15.67 107.579 16.19C108.039 16.71 108.269 17.45 108.269 18.41V23H106.889V18.62C106.889 17.93 106.764 17.435 106.514 17.135C106.264 16.825 105.844 16.67 105.254 16.67C104.724 16.67 104.279 16.895 103.919 17.345C103.559 17.795 103.379 18.325 103.379 18.935V23H101.999V18.62C101.999 17.93 101.874 17.435 101.624 17.135C101.374 16.825 100.954 16.67 100.364 16.67C99.8336 16.67 99.3886 16.895 99.0286 17.345C98.6686 17.795 98.4886 18.325 98.4886 18.935V23ZM111.667 13.115C111.667 13.385 111.572 13.615 111.382 13.805C111.192 13.995 110.962 14.09 110.692 14.09C110.422 14.09 110.192 13.995 110.002 13.805C109.812 13.615 109.717 13.385 109.717 13.115C109.717 12.845 109.812 12.615 110.002 12.425C110.192 12.235 110.422 12.14 110.692 12.14C110.962 12.14 111.192 12.235 111.382 12.425C111.572 12.615 111.667 12.845 111.667 13.115ZM111.382 15.65V23H110.002V15.65H111.382ZM113.178 15.65H114.498V16.67H114.558C114.768 16.31 115.088 16.01 115.518 15.77C115.958 15.53 116.413 15.41 116.883 15.41C117.783 15.41 118.473 15.67 118.953 16.19C119.443 16.7 119.688 17.43 119.688 18.38V23H118.308V18.47C118.278 17.27 117.673 16.67 116.493 16.67C115.943 16.67 115.483 16.895 115.113 17.345C114.743 17.785 114.558 18.315 114.558 18.935V23H113.178V15.65ZM124.535 21.98C125.215 21.98 125.77 21.735 126.2 21.245C126.65 20.755 126.875 20.115 126.875 19.325C126.875 18.555 126.65 17.92 126.2 17.42C125.76 16.92 125.205 16.67 124.535 16.67C123.875 16.67 123.32 16.92 122.87 17.42C122.42 17.92 122.195 18.555 122.195 19.325C122.195 20.105 122.42 20.74 122.87 21.23C123.32 21.73 123.875 21.98 124.535 21.98ZM124.49 26.48C124.08 26.48 123.695 26.425 123.335 26.315C122.975 26.215 122.645 26.07 122.345 25.88C122.055 25.69 121.805 25.465 121.595 25.205C121.385 24.945 121.225 24.655 121.115 24.335L122.42 23.795C122.57 24.225 122.83 24.57 123.2 24.83C123.57 25.09 124 25.22 124.49 25.22C125.24 25.22 125.825 24.995 126.245 24.545C126.665 24.095 126.875 23.475 126.875 22.685V21.98H126.815C126.555 22.37 126.2 22.68 125.75 22.91C125.31 23.13 124.83 23.24 124.31 23.24C123.35 23.24 122.525 22.865 121.835 22.115C121.155 21.345 120.815 20.415 120.815 19.325C120.815 18.235 121.155 17.31 121.835 16.55C122.525 15.79 123.35 15.41 124.31 15.41C124.83 15.41 125.31 15.525 125.75 15.755C126.2 15.975 126.555 16.28 126.815 16.67H126.875V15.65H128.195V22.685C128.195 23.865 127.86 24.79 127.19 25.46C126.51 26.14 125.61 26.48 124.49 26.48ZM139.589 20.135C139.589 21.075 139.244 21.83 138.554 22.4C137.854 22.96 137.004 23.24 136.004 23.24C135.114 23.24 134.329 22.98 133.649 22.46C132.969 21.94 132.499 21.23 132.239 20.33L133.559 19.79C133.649 20.11 133.774 20.4 133.934 20.66C134.094 20.92 134.279 21.145 134.489 21.335C134.709 21.515 134.949 21.66 135.209 21.77C135.469 21.87 135.744 21.92 136.034 21.92C136.664 21.92 137.179 21.76 137.579 21.44C137.979 21.11 138.179 20.675 138.179 20.135C138.179 19.685 138.014 19.3 137.684 18.98C137.374 18.67 136.794 18.37 135.944 18.08C135.084 17.77 134.549 17.56 134.339 17.45C133.199 16.87 132.629 16.015 132.629 14.885C132.629 14.095 132.944 13.42 133.574 12.86C134.214 12.3 134.999 12.02 135.929 12.02C136.749 12.02 137.459 12.23 138.059 12.65C138.659 13.06 139.059 13.575 139.259 14.195L137.969 14.735C137.849 14.335 137.609 14.005 137.249 13.745C136.899 13.475 136.469 13.34 135.959 13.34C135.419 13.34 134.964 13.49 134.594 13.79C134.224 14.07 134.039 14.435 134.039 14.885C134.039 15.255 134.184 15.575 134.474 15.845C134.794 16.115 135.489 16.435 136.559 16.805C137.649 17.175 138.424 17.63 138.884 18.17C139.354 18.7 139.589 19.355 139.589 20.135ZM140.59 19.325C140.59 18.195 140.945 17.26 141.655 16.52C142.375 15.78 143.28 15.41 144.37 15.41C145.46 15.41 146.36 15.78 147.07 16.52C147.79 17.26 148.15 18.195 148.15 19.325C148.15 20.465 147.79 21.4 147.07 22.13C146.36 22.87 145.46 23.24 144.37 23.24C143.28 23.24 142.375 22.87 141.655 22.13C140.945 21.39 140.59 20.455 140.59 19.325ZM141.97 19.325C141.97 20.115 142.2 20.755 142.66 21.245C143.12 21.735 143.69 21.98 144.37 21.98C145.05 21.98 145.62 21.735 146.08 21.245C146.54 20.755 146.77 20.115 146.77 19.325C146.77 18.545 146.54 17.91 146.08 17.42C145.61 16.92 145.04 16.67 144.37 16.67C143.7 16.67 143.13 16.92 142.66 17.42C142.2 17.91 141.97 18.545 141.97 19.325ZM148.983 19.325C148.983 18.195 149.338 17.26 150.048 16.52C150.768 15.78 151.673 15.41 152.763 15.41C153.853 15.41 154.753 15.78 155.463 16.52C156.183 17.26 156.543 18.195 156.543 19.325C156.543 20.465 156.183 21.4 155.463 22.13C154.753 22.87 153.853 23.24 152.763 23.24C151.673 23.24 150.768 22.87 150.048 22.13C149.338 21.39 148.983 20.455 148.983 19.325ZM150.363 19.325C150.363 20.115 150.593 20.755 151.053 21.245C151.513 21.735 152.083 21.98 152.763 21.98C153.443 21.98 154.013 21.735 154.473 21.245C154.933 20.755 155.163 20.115 155.163 19.325C155.163 18.545 154.933 17.91 154.473 17.42C154.003 16.92 153.433 16.67 152.763 16.67C152.093 16.67 151.523 16.92 151.053 17.42C150.593 17.91 150.363 18.545 150.363 19.325ZM157.651 15.65H158.971V16.67H159.031C159.241 16.31 159.561 16.01 159.991 15.77C160.431 15.53 160.886 15.41 161.356 15.41C162.256 15.41 162.946 15.67 163.426 16.19C163.916 16.7 164.161 17.43 164.161 18.38V23H162.781V18.47C162.751 17.27 162.146 16.67 160.966 16.67C160.416 16.67 159.956 16.895 159.586 17.345C159.216 17.785 159.031 18.315 159.031 18.935V23H157.651V15.65ZM168.656 19.325C168.656 18.195 169.011 17.26 169.721 16.52C170.441 15.78 171.346 15.41 172.436 15.41C173.526 15.41 174.426 15.78 175.136 16.52C175.856 17.26 176.216 18.195 176.216 19.325C176.216 20.465 175.856 21.4 175.136 22.13C174.426 22.87 173.526 23.24 172.436 23.24C171.346 23.24 170.441 22.87 169.721 22.13C169.011 21.39 168.656 20.455 168.656 19.325ZM170.036 19.325C170.036 20.115 170.266 20.755 170.726 21.245C171.186 21.735 171.756 21.98 172.436 21.98C173.116 21.98 173.686 21.735 174.146 21.245C174.606 20.755 174.836 20.115 174.836 19.325C174.836 18.545 174.606 17.91 174.146 17.42C173.676 16.92 173.106 16.67 172.436 16.67C171.766 16.67 171.196 16.92 170.726 17.42C170.266 17.91 170.036 18.545 170.036 19.325ZM177.323 15.65H178.643V16.67H178.703C178.913 16.31 179.233 16.01 179.663 15.77C180.103 15.53 180.558 15.41 181.028 15.41C181.928 15.41 182.618 15.67 183.098 16.19C183.588 16.7 183.833 17.43 183.833 18.38V23H182.453V18.47C182.423 17.27 181.818 16.67 180.638 16.67C180.088 16.67 179.628 16.895 179.258 17.345C178.888 17.785 178.703 18.315 178.703 18.935V23H177.323V15.65Z" fill="white"/>
<defs>
<linearGradient id="paint0_linear" x1="33.107" y1="15.9793" x2="33.107" y2="72.1869" gradientUnits="userSpaceOnUse">
<stop stop-color="#257CB0"/>
<stop offset="0.286" stop-color="#4A93B5"/>
<stop offset="0.767" stop-color="#78BCBB"/>
<stop offset="1" stop-color="#89CFBD"/>
</linearGradient>
<linearGradient id="paint1_linear" x1="18.977" y1="29.9288" x2="54.8283" y2="29.9288" gradientUnits="userSpaceOnUse">
<stop stop-color="#52C1AD"/>
<stop offset="1" stop-color="#DEE89A"/>
</linearGradient>
<linearGradient id="paint2_linear" x1="36.9019" y1="44.0835" x2="36.9019" y2="72.3914" gradientUnits="userSpaceOnUse">
<stop stop-color="#EC413D"/>
<stop offset="0.167" stop-color="#DA4452"/>
<stop offset="0.575" stop-color="#B0487A"/>
<stop offset="0.862" stop-color="#954A92"/>
<stop offset="1" stop-color="#8A4A9D"/>
</linearGradient>
<linearGradient id="paint3_linear" x1="57.552" y1="36.5345" x2="57.552" y2="51.6307" gradientUnits="userSpaceOnUse">
<stop stop-color="#F58879"/>
<stop offset="0.119" stop-color="#F69079"/>
<stop offset="0.713" stop-color="#FCB877"/>
<stop offset="1" stop-color="#FEC874"/>
</linearGradient>
</defs>
</svg>
