<svg width="24" height="24" viewBox="0 0 24 24" fill="none" xmlns="http://www.w3.org/2000/svg">
<path d="M21.6996 10.3L12.6996 2.29995C12.2996 1.99995 11.7996 1.99995 11.3996 2.29995L2.39956 10.3C1.99956 10.7 1.89956 11.3 2.29956 11.7C2.69956 12.1 3.29956 12.2 3.69956 11.8L3.99956 11.4V21C3.99956 21.6 4.39956 22 4.99956 22H18.9996C19.5996 22 19.9996 21.6 19.9996 21V11.4L20.2996 11.7C20.6996 12.1 21.2996 12 21.6996 11.6C22.0996 11.3 22.0996 10.6 21.6996 10.3ZM11.9996 11C13.4996 11 14.6996 12.2 14.6996 13.7C14.6996 15.2 13.4996 16.4 11.9996 16.4C10.4996 16.4 9.29956 15.2 9.29956 13.7C9.29956 12.2 10.4996 11 11.9996 11ZM6.99956 20C6.99956 19.9 6.99956 19.8999 7.09956 19.7999C9.29956 17.0999 13.2996 16.5999 15.9996 18.7999C16.3996 19.0999 16.6996 19.3999 16.9996 19.7999C16.9996 19.7999 16.9996 19.9 17.0996 20H6.99956Z" fill="#0066F5"/>
</svg>
