<svg width="25" height="25" viewBox="0 0 25 25" fill="none" xmlns="http://www.w3.org/2000/svg">
<path d="M12.5032 6.08975C11.2358 6.08975 9.99686 6.46557 8.94307 7.16969C7.88928 7.87381 7.06795 8.87461 6.58295 10.0455C6.09794 11.2164 5.97104 12.5049 6.2183 13.7479C6.46555 14.9909 7.07585 16.1327 7.97203 17.0289C8.8682 17.9251 10.01 18.5354 11.253 18.7826C12.4961 19.0299 13.7845 18.903 14.9554 18.418C16.1263 17.933 17.1271 17.1116 17.8312 16.0578C18.5353 15.0041 18.9112 13.7651 18.9112 12.4977C18.9122 11.6559 18.7472 10.8222 18.4255 10.0443C18.1039 9.26634 17.6319 8.55951 17.0367 7.96426C16.4414 7.36901 15.7346 6.89704 14.9566 6.57538C14.1787 6.25373 13.345 6.0887 12.5032 6.08975ZM12.5032 16.6637C11.6792 16.6637 10.8738 16.4194 10.1887 15.9617C9.50357 15.5039 8.9696 14.8532 8.65429 14.092C8.33897 13.3308 8.25647 12.4931 8.41722 11.685C8.57796 10.8769 8.97474 10.1346 9.55736 9.55194C10.14 8.96932 10.8823 8.57255 11.6904 8.4118C12.4985 8.25105 13.3362 8.33355 14.0974 8.64887C14.8587 8.96418 15.5093 9.49815 15.9671 10.1832C16.4248 10.8683 16.6692 11.6738 16.6692 12.4977C16.6671 13.602 16.2275 14.6604 15.4466 15.4412C14.6658 16.222 13.6074 16.6616 12.5032 16.6637ZM20.6682 5.82675C20.6684 6.12256 20.5808 6.41178 20.4166 6.6578C20.2523 6.90383 20.0188 7.09561 19.7455 7.20885C19.4722 7.3221 19.1715 7.35173 18.8814 7.294C18.5913 7.23626 18.3248 7.09376 18.1157 6.88452C17.9066 6.67528 17.7643 6.40871 17.7067 6.11855C17.6492 5.82839 17.679 5.52768 17.7924 5.25448C17.9059 4.98128 18.0978 4.74788 18.3439 4.5838C18.5901 4.41972 18.8794 4.33236 19.1752 4.33275C19.3715 4.33249 19.5659 4.37099 19.7473 4.44605C19.9287 4.52111 20.0935 4.63126 20.2322 4.77016C20.3709 4.90906 20.4808 5.07399 20.5556 5.25548C20.6305 5.43697 20.6687 5.63144 20.6682 5.82775V5.82675ZM24.9122 7.34375C24.953 5.40068 24.2278 3.51956 22.8932 2.10675C21.4777 0.776394 19.5984 0.0518653 17.6562 0.08775C15.5922 -0.02925 9.40717 -0.02925 7.34417 0.08775C5.4026 0.0490735 3.52296 0.77157 2.10717 2.10075C0.77427 3.51503 0.0493465 5.39574 0.088168 7.33875C-0.024832 9.40275 -0.024832 15.5878 0.088168 17.6518C0.047348 19.5948 0.772572 21.4759 2.10717 22.8888C3.52316 24.2183 5.40214 24.9427 7.34417 24.9077C9.40817 25.0247 15.5932 25.0247 17.6562 24.9077C19.5992 24.9486 21.4804 24.2233 22.8932 22.8888C24.2235 21.4733 24.9481 19.5939 24.9122 17.6518C25.0292 15.5878 25.0292 9.40775 24.9122 7.34475V7.34375ZM22.2462 19.8657C22.0346 20.403 21.715 20.8911 21.3072 21.2998C20.8994 21.7085 20.412 22.0291 19.8752 22.2418C18.2302 22.8948 14.3262 22.7418 12.5072 22.7418C10.6882 22.7418 6.77917 22.8868 5.13917 22.2418C4.60072 22.0301 4.11157 21.71 3.70213 21.3012C3.29269 20.8925 2.97172 20.4038 2.75917 19.8657C2.10617 18.2207 2.25917 14.3167 2.25917 12.4977C2.25917 10.6787 2.11417 6.76975 2.75917 5.12975C2.97139 4.59223 3.2918 4.10404 3.70052 3.69549C4.10924 3.28694 4.59756 2.96674 5.13517 2.75475C6.78017 2.10175 10.6842 2.25475 12.5032 2.25475C14.3222 2.25475 18.2312 2.10975 19.8712 2.75475C20.4089 2.96685 20.8973 3.28721 21.306 3.69594C21.7147 4.10467 22.0351 4.59304 22.2472 5.13075C22.9002 6.77575 22.7472 10.6798 22.7472 12.4988C22.7472 14.3178 22.8992 18.2257 22.2462 19.8657Z" fill="white"/>
</svg>
