<svg width="692" height="438" viewBox="0 0 692 438" fill="none" xmlns="http://www.w3.org/2000/svg">
<g filter="url(#filter0_f)">
<ellipse cx="346.334" cy="390.667" rx="301.667" ry="3.33333" fill="black"/>
</g>
<path d="M95.334 1H599.334C609.827 1 618.334 9.50659 618.334 20V367.333C618.334 367.886 617.886 368.333 617.334 368.333H77.334C76.7817 368.333 76.334 367.886 76.334 367.333V20C76.334 9.5066 84.8406 1 95.334 1Z" fill="#1A202C" stroke="#4A5568" stroke-width="2"/>
<path d="M78.666 21.3333C78.666 11.3922 86.7249 3.33334 96.666 3.33334H597.999C607.94 3.33334 615.999 11.3922 615.999 21.3333V355.333H78.666V21.3333Z" fill="black"/>
<path d="M327.607 358.594H328.405L329.719 360.868H329.767L331.081 358.594H331.885V362.89H331.081V360.772L331.129 360.052H331.081L329.989 361.978H329.503L328.405 360.052H328.357L328.405 360.772V362.89H327.607V358.594ZM334.38 362.578H334.332C334.24 362.69 334.128 362.786 333.996 362.866C333.868 362.946 333.702 362.986 333.498 362.986C333.346 362.986 333.202 362.96 333.066 362.908C332.934 362.86 332.818 362.792 332.718 362.704C332.618 362.616 332.54 362.51 332.484 362.386C332.428 362.262 332.4 362.126 332.4 361.978C332.4 361.826 332.43 361.69 332.49 361.57C332.55 361.446 332.634 361.34 332.742 361.252C332.85 361.164 332.976 361.098 333.12 361.054C333.268 361.006 333.428 360.982 333.6 360.982C333.792 360.982 333.95 360.998 334.074 361.03C334.198 361.058 334.3 361.088 334.38 361.12V361.03C334.38 360.874 334.318 360.746 334.194 360.646C334.07 360.542 333.916 360.49 333.732 360.49C333.46 360.49 333.23 360.604 333.042 360.832L332.472 360.442C332.784 360.05 333.21 359.854 333.75 359.854C334.206 359.854 334.554 359.962 334.794 360.178C335.034 360.39 335.154 360.706 335.154 361.126V362.89H334.38V362.578ZM334.38 361.696C334.288 361.652 334.192 361.618 334.092 361.594C333.996 361.566 333.89 361.552 333.774 361.552C333.586 361.552 333.44 361.594 333.336 361.678C333.236 361.758 333.186 361.858 333.186 361.978C333.186 362.098 333.234 362.194 333.33 362.266C333.43 362.338 333.544 362.374 333.672 362.374C333.776 362.374 333.872 362.356 333.96 362.32C334.048 362.28 334.122 362.23 334.182 362.17C334.246 362.106 334.294 362.034 334.326 361.954C334.362 361.87 334.38 361.784 334.38 361.696ZM338.539 362.14C338.411 362.388 338.231 362.592 337.999 362.752C337.771 362.908 337.485 362.986 337.141 362.986C336.913 362.986 336.703 362.948 336.511 362.872C336.323 362.792 336.159 362.682 336.019 362.542C335.883 362.402 335.775 362.238 335.695 362.05C335.619 361.858 335.581 361.648 335.581 361.42C335.581 361.192 335.619 360.982 335.695 360.79C335.775 360.598 335.883 360.434 336.019 360.298C336.159 360.158 336.323 360.05 336.511 359.974C336.703 359.894 336.913 359.854 337.141 359.854C337.481 359.854 337.767 359.932 337.999 360.088C338.231 360.244 338.401 360.446 338.509 360.694L337.789 360.994C337.721 360.858 337.633 360.756 337.525 360.688C337.421 360.616 337.289 360.58 337.129 360.58C337.025 360.58 336.927 360.6 336.835 360.64C336.743 360.68 336.661 360.736 336.589 360.808C336.521 360.88 336.467 360.968 336.427 361.072C336.387 361.176 336.367 361.292 336.367 361.42C336.367 361.548 336.387 361.664 336.427 361.768C336.467 361.872 336.521 361.96 336.589 362.032C336.661 362.104 336.743 362.16 336.835 362.2C336.927 362.24 337.025 362.26 337.129 362.26C337.293 362.26 337.431 362.224 337.543 362.152C337.659 362.076 337.751 361.968 337.819 361.828L338.539 362.14ZM339.019 358.594H339.805V359.884L339.757 360.304H339.805C339.877 360.18 339.989 360.074 340.141 359.986C340.293 359.898 340.481 359.854 340.705 359.854C340.893 359.854 341.071 359.894 341.239 359.974C341.411 360.05 341.561 360.158 341.689 360.298C341.821 360.434 341.925 360.598 342.001 360.79C342.077 360.982 342.115 361.192 342.115 361.42C342.115 361.648 342.077 361.858 342.001 362.05C341.925 362.242 341.821 362.408 341.689 362.548C341.561 362.684 341.411 362.792 341.239 362.872C341.071 362.948 340.893 362.986 340.705 362.986C340.481 362.986 340.293 362.942 340.141 362.854C339.989 362.766 339.877 362.66 339.805 362.536H339.757V362.89H339.019V358.594ZM340.543 362.26C340.647 362.26 340.745 362.24 340.837 362.2C340.933 362.16 341.017 362.104 341.089 362.032C341.161 361.96 341.219 361.872 341.263 361.768C341.307 361.664 341.329 361.548 341.329 361.42C341.329 361.292 341.307 361.176 341.263 361.072C341.219 360.968 341.161 360.88 341.089 360.808C341.017 360.736 340.933 360.68 340.837 360.64C340.745 360.6 340.647 360.58 340.543 360.58C340.439 360.58 340.339 360.6 340.243 360.64C340.151 360.676 340.069 360.73 339.997 360.802C339.925 360.874 339.867 360.962 339.823 361.066C339.779 361.17 339.757 361.288 339.757 361.42C339.757 361.552 339.779 361.67 339.823 361.774C339.867 361.878 339.925 361.966 339.997 362.038C340.069 362.11 340.151 362.166 340.243 362.206C340.339 362.242 340.439 362.26 340.543 362.26ZM344.009 359.854C344.237 359.854 344.445 359.894 344.633 359.974C344.825 360.05 344.989 360.158 345.125 360.298C345.265 360.434 345.373 360.598 345.449 360.79C345.529 360.982 345.569 361.192 345.569 361.42C345.569 361.648 345.529 361.858 345.449 362.05C345.373 362.242 345.265 362.408 345.125 362.548C344.989 362.684 344.825 362.792 344.633 362.872C344.445 362.948 344.237 362.986 344.009 362.986C343.781 362.986 343.571 362.948 343.379 362.872C343.191 362.792 343.027 362.684 342.887 362.548C342.751 362.408 342.643 362.242 342.563 362.05C342.487 361.858 342.449 361.648 342.449 361.42C342.449 361.192 342.487 360.982 342.563 360.79C342.643 360.598 342.751 360.434 342.887 360.298C343.027 360.158 343.191 360.05 343.379 359.974C343.571 359.894 343.781 359.854 344.009 359.854ZM344.009 362.26C344.109 362.26 344.205 362.242 344.297 362.206C344.393 362.166 344.477 362.11 344.549 362.038C344.621 361.966 344.677 361.878 344.717 361.774C344.761 361.67 344.783 361.552 344.783 361.42C344.783 361.288 344.761 361.17 344.717 361.066C344.677 360.962 344.621 360.874 344.549 360.802C344.477 360.73 344.393 360.676 344.297 360.64C344.205 360.6 344.109 360.58 344.009 360.58C343.905 360.58 343.807 360.6 343.715 360.64C343.623 360.676 343.541 360.73 343.469 360.802C343.397 360.874 343.339 360.962 343.295 361.066C343.255 361.17 343.235 361.288 343.235 361.42C343.235 361.552 343.255 361.67 343.295 361.774C343.339 361.878 343.397 361.966 343.469 362.038C343.541 362.11 343.623 362.166 343.715 362.206C343.807 362.242 343.905 362.26 344.009 362.26ZM347.466 359.854C347.694 359.854 347.902 359.894 348.09 359.974C348.282 360.05 348.446 360.158 348.582 360.298C348.722 360.434 348.83 360.598 348.906 360.79C348.986 360.982 349.026 361.192 349.026 361.42C349.026 361.648 348.986 361.858 348.906 362.05C348.83 362.242 348.722 362.408 348.582 362.548C348.446 362.684 348.282 362.792 348.09 362.872C347.902 362.948 347.694 362.986 347.466 362.986C347.238 362.986 347.028 362.948 346.836 362.872C346.648 362.792 346.484 362.684 346.344 362.548C346.208 362.408 346.1 362.242 346.02 362.05C345.944 361.858 345.906 361.648 345.906 361.42C345.906 361.192 345.944 360.982 346.02 360.79C346.1 360.598 346.208 360.434 346.344 360.298C346.484 360.158 346.648 360.05 346.836 359.974C347.028 359.894 347.238 359.854 347.466 359.854ZM347.466 362.26C347.566 362.26 347.662 362.242 347.754 362.206C347.85 362.166 347.934 362.11 348.006 362.038C348.078 361.966 348.134 361.878 348.174 361.774C348.218 361.67 348.24 361.552 348.24 361.42C348.24 361.288 348.218 361.17 348.174 361.066C348.134 360.962 348.078 360.874 348.006 360.802C347.934 360.73 347.85 360.676 347.754 360.64C347.662 360.6 347.566 360.58 347.466 360.58C347.362 360.58 347.264 360.6 347.172 360.64C347.08 360.676 346.998 360.73 346.926 360.802C346.854 360.874 346.796 360.962 346.752 361.066C346.712 361.17 346.692 361.288 346.692 361.42C346.692 361.552 346.712 361.67 346.752 361.774C346.796 361.878 346.854 361.966 346.926 362.038C346.998 362.11 347.08 362.166 347.172 362.206C347.264 362.242 347.362 362.26 347.466 362.26ZM349.501 358.594H350.287V360.934H350.323L351.307 359.95H352.279V359.998L351.187 361.06L352.369 362.842V362.89H351.439L350.635 361.6L350.287 361.942V362.89H349.501V358.594ZM354.097 362.89V358.594H355.609C355.813 358.594 356.003 358.628 356.179 358.696C356.359 358.76 356.515 358.852 356.647 358.972C356.779 359.092 356.883 359.236 356.959 359.404C357.035 359.568 357.073 359.75 357.073 359.95C357.073 360.154 357.035 360.34 356.959 360.508C356.883 360.672 356.779 360.814 356.647 360.934C356.515 361.054 356.359 361.148 356.179 361.216C356.003 361.28 355.813 361.312 355.609 361.312H354.907V362.89H354.097ZM355.621 360.544C355.833 360.544 355.993 360.484 356.101 360.364C356.209 360.244 356.263 360.106 356.263 359.95C356.263 359.874 356.249 359.8 356.221 359.728C356.197 359.656 356.157 359.594 356.101 359.542C356.049 359.486 355.983 359.442 355.903 359.41C355.823 359.378 355.729 359.362 355.621 359.362H354.907V360.544H355.621ZM357.552 359.95H358.29V360.358H358.338C358.374 360.286 358.422 360.22 358.482 360.16C358.542 360.1 358.608 360.048 358.68 360.004C358.756 359.96 358.836 359.926 358.92 359.902C359.008 359.878 359.094 359.866 359.178 359.866C359.282 359.866 359.37 359.876 359.442 359.896C359.518 359.916 359.582 359.942 359.634 359.974L359.424 360.688C359.376 360.664 359.322 360.646 359.262 360.634C359.206 360.618 359.136 360.61 359.052 360.61C358.944 360.61 358.846 360.632 358.758 360.676C358.67 360.716 358.594 360.774 358.53 360.85C358.47 360.926 358.422 361.016 358.386 361.12C358.354 361.22 358.338 361.33 358.338 361.45V362.89H357.552V359.95ZM361.206 359.854C361.434 359.854 361.642 359.894 361.83 359.974C362.022 360.05 362.186 360.158 362.322 360.298C362.462 360.434 362.57 360.598 362.646 360.79C362.726 360.982 362.766 361.192 362.766 361.42C362.766 361.648 362.726 361.858 362.646 362.05C362.57 362.242 362.462 362.408 362.322 362.548C362.186 362.684 362.022 362.792 361.83 362.872C361.642 362.948 361.434 362.986 361.206 362.986C360.978 362.986 360.768 362.948 360.576 362.872C360.388 362.792 360.224 362.684 360.084 362.548C359.948 362.408 359.84 362.242 359.76 362.05C359.684 361.858 359.646 361.648 359.646 361.42C359.646 361.192 359.684 360.982 359.76 360.79C359.84 360.598 359.948 360.434 360.084 360.298C360.224 360.158 360.388 360.05 360.576 359.974C360.768 359.894 360.978 359.854 361.206 359.854ZM361.206 362.26C361.306 362.26 361.402 362.242 361.494 362.206C361.59 362.166 361.674 362.11 361.746 362.038C361.818 361.966 361.874 361.878 361.914 361.774C361.958 361.67 361.98 361.552 361.98 361.42C361.98 361.288 361.958 361.17 361.914 361.066C361.874 360.962 361.818 360.874 361.746 360.802C361.674 360.73 361.59 360.676 361.494 360.64C361.402 360.6 361.306 360.58 361.206 360.58C361.102 360.58 361.004 360.6 360.912 360.64C360.82 360.676 360.738 360.73 360.666 360.802C360.594 360.874 360.536 360.962 360.492 361.066C360.452 361.17 360.432 361.288 360.432 361.42C360.432 361.552 360.452 361.67 360.492 361.774C360.536 361.878 360.594 361.966 360.666 362.038C360.738 362.11 360.82 362.166 360.912 362.206C361.004 362.242 361.102 362.26 361.206 362.26Z" fill="#A0AEC0"/>
<path d="M10 368.667C10 367.562 10.8954 366.667 12 366.667H680C681.105 366.667 682 367.562 682 368.667V378.667H10V368.667Z" fill="#A3ACB1"/>
<path d="M10 368.667C10 367.562 10.8954 366.667 12 366.667H680C681.105 366.667 682 367.562 682 368.667V378.667H10V368.667Z" fill="url(#paint0_linear)"/>
<path d="M10 378.667H682L681.479 378.772C655.447 384.022 628.956 386.667 602.399 386.667H82.8781C58.3663 386.667 33.9281 383.984 10 378.667V378.667Z" fill="#647279"/>
<path d="M10 378.667H682L681.479 378.772C655.447 384.022 628.956 386.667 602.399 386.667H82.8781C58.3663 386.667 33.9281 383.984 10 378.667V378.667Z" fill="url(#paint1_linear)"/>
<path fill-rule="evenodd" clip-rule="evenodd" d="M290.688 366.667C291.032 371.879 295.368 376 300.667 376H392C397.299 376 401.635 371.879 401.978 366.667H290.688Z" fill="#96A1A8"/>
<path fill-rule="evenodd" clip-rule="evenodd" d="M290.688 366.667C291.032 371.879 295.368 376 300.667 376H392C397.299 376 401.635 371.879 401.978 366.667H290.688Z" fill="url(#paint2_linear)"/>
<rect x="88.4219" y="19.8417" width="513.333" height="320.825" fill="#F3F7FA"/>
<path d="M144.586 67.0839H97.4532C96.1183 67.0839 95.0361 68.0315 95.0361 69.2004V78.1953C95.0361 79.3642 96.1183 80.3117 97.4532 80.3117H144.586C145.92 80.3117 147.003 79.3642 147.003 78.1953V69.2004C147.003 68.0315 145.92 67.0839 144.586 67.0839Z" fill="#E2EDFA"/>
<path d="M140.345 72.753H102.639C101.571 72.753 100.705 72.8884 100.705 73.0553V74.3403C100.705 74.5073 101.571 74.6427 102.639 74.6427H140.345C141.413 74.6427 142.278 74.5073 142.278 74.3403V73.0553C142.278 72.8884 141.413 72.753 140.345 72.753Z" fill="#0066F5" fill-opacity="0.5"/>
<path d="M379.39 30.235H341.685C340.617 30.235 339.751 30.3704 339.751 30.5374V31.8224C339.751 31.9893 340.617 32.1247 341.685 32.1247H379.39C380.458 32.1247 381.324 31.9893 381.324 31.8224V30.5374C381.324 30.3704 380.458 30.235 379.39 30.235Z" fill="#022B69" fill-opacity="0.5"/>
<path d="M139.399 114.326H101.693C100.625 114.326 99.7598 114.462 99.7598 114.628V115.913C99.7598 116.08 100.625 116.216 101.693 116.216H139.399C140.467 116.216 141.333 116.08 141.333 115.913V114.628C141.333 114.462 140.467 114.326 139.399 114.326Z" fill="#022B69" fill-opacity="0.5"/>
<path d="M139.399 95.4293H101.693C100.625 95.4293 99.7598 95.5646 99.7598 95.7316V97.0166C99.7598 97.1836 100.625 97.3189 101.693 97.3189H139.399C140.467 97.3189 141.333 97.1836 141.333 97.0166V95.7316C141.333 95.5646 140.467 95.4293 139.399 95.4293Z" fill="#022B69" fill-opacity="0.5"/>
<path d="M139.399 133.223H101.693C100.625 133.223 99.7598 133.358 99.7598 133.525V134.81C99.7598 134.977 100.625 135.113 101.693 135.113H139.399C140.467 135.113 141.333 134.977 141.333 134.81V133.525C141.333 133.358 140.467 133.223 139.399 133.223Z" fill="#022B69" fill-opacity="0.5"/>
<path d="M139.399 152.12H101.693C100.625 152.12 99.7598 152.255 99.7598 152.422V153.707C99.7598 153.874 100.625 154.01 101.693 154.01H139.399C140.467 154.01 141.333 153.874 141.333 153.707V152.422C141.333 152.255 140.467 152.12 139.399 152.12Z" fill="#022B69" fill-opacity="0.5"/>
<path d="M161.157 43.4628H600.528V341.089H152.672V48.8164C152.672 47.3966 153.566 46.0349 155.157 45.0309C156.748 44.0269 158.907 43.4628 161.157 43.4628Z" fill="white"/>
<path d="M172.514 116.216H581.631V127.554H172.514V116.216Z" fill="#FBFBFB"/>
<path d="M334.675 89.7602H180.424C176.055 89.7602 172.514 90.7078 172.514 91.8766V100.872C172.514 102.04 176.055 102.988 180.424 102.988H334.675C339.044 102.988 342.586 102.04 342.586 100.872V91.8766C342.586 90.7078 339.044 89.7602 334.675 89.7602Z" fill="#F5F5F5"/>
<path d="M262.23 95.4293H187.675C185.563 95.4293 183.852 95.5646 183.852 95.7316V97.0166C183.852 97.1836 185.563 97.3189 187.675 97.3189H262.23C264.341 97.3189 266.053 97.1836 266.053 97.0166V95.7316C266.053 95.5646 264.341 95.4293 262.23 95.4293Z" fill="#022B69" fill-opacity="0.5"/>
<path d="M226.018 120.94H182.314C181.076 120.94 180.072 121.075 180.072 121.242V122.527C180.072 122.694 181.076 122.83 182.314 122.83H226.018C227.256 122.83 228.259 122.694 228.259 122.527V121.242C228.259 121.075 227.256 120.94 226.018 120.94Z" fill="#022B69" fill-opacity="0.2"/>
<path d="M317.667 120.94H273.963C272.725 120.94 271.722 121.075 271.722 121.242V122.527C271.722 122.694 272.725 122.83 273.963 122.83H317.667C318.905 122.83 319.909 122.694 319.909 122.527V121.242C319.909 121.075 318.905 120.94 317.667 120.94Z" fill="#022B69" fill-opacity="0.2"/>
<path d="M417.821 120.94H374.116C372.878 120.94 371.875 121.075 371.875 121.242V122.527C371.875 122.694 372.878 122.83 374.116 122.83H417.821C419.059 122.83 420.062 122.694 420.062 122.527V121.242C420.062 121.075 419.059 120.94 417.821 120.94Z" fill="#022B69" fill-opacity="0.2"/>
<path d="M548.209 120.94H504.505C503.267 120.94 502.264 121.075 502.264 121.242V122.527C502.264 122.694 503.267 122.83 504.505 122.83H548.209C549.447 122.83 550.451 122.694 550.451 122.527V121.242C550.451 121.075 549.447 120.94 548.209 120.94Z" fill="#022B69" fill-opacity="0.2"/>
<path d="M417.822 140.782H374.117C372.879 140.782 371.876 140.917 371.876 141.084V142.369C371.876 142.536 372.879 142.671 374.117 142.671H417.822C419.06 142.671 420.063 142.536 420.063 142.369V141.084C420.063 140.917 419.06 140.782 417.822 140.782Z" fill="black" fill-opacity="0.45"/>
<path d="M226.017 140.782H182.313C181.075 140.782 180.071 140.917 180.071 141.084V142.369C180.071 142.536 181.075 142.671 182.313 142.671H226.017C227.255 142.671 228.258 142.536 228.258 142.369V141.084C228.258 140.917 227.255 140.782 226.017 140.782Z" fill="black" fill-opacity="0.45"/>
<path d="M317.666 140.782H273.962C272.724 140.782 271.721 140.917 271.721 141.084V142.369C271.721 142.536 272.724 142.671 273.962 142.671H317.666C318.904 142.671 319.908 142.536 319.908 142.369V141.084C319.908 140.917 318.904 140.782 317.666 140.782Z" fill="black" fill-opacity="0.45"/>
<path d="M548.208 140.782H504.504C503.266 140.782 502.263 140.917 502.263 141.084V142.369C502.263 142.536 503.266 142.671 504.504 142.671H548.208C549.446 142.671 550.45 142.536 550.45 142.369V141.084C550.45 140.917 549.446 140.782 548.208 140.782Z" fill="black" fill-opacity="0.45"/>
<path d="M417.821 154.01H374.116C372.878 154.01 371.875 154.145 371.875 154.312V155.597C371.875 155.764 372.878 155.899 374.116 155.899H417.821C419.059 155.899 420.062 155.764 420.062 155.597V154.312C420.062 154.145 419.059 154.01 417.821 154.01Z" fill="black" fill-opacity="0.45"/>
<path d="M226.018 154.01H182.314C181.076 154.01 180.072 154.145 180.072 154.312V155.597C180.072 155.764 181.076 155.899 182.314 155.899H226.018C227.256 155.899 228.259 155.764 228.259 155.597V154.312C228.259 154.145 227.256 154.01 226.018 154.01Z" fill="black" fill-opacity="0.45"/>
<path d="M317.667 154.01H273.963C272.725 154.01 271.722 154.145 271.722 154.312V155.597C271.722 155.764 272.725 155.899 273.963 155.899H317.667C318.905 155.899 319.909 155.764 319.909 155.597V154.312C319.909 154.145 318.905 154.01 317.667 154.01Z" fill="black" fill-opacity="0.45"/>
<path d="M548.209 154.01H504.505C503.267 154.01 502.264 154.145 502.264 154.312V155.597C502.264 155.764 503.267 155.899 504.505 155.899H548.209C549.447 155.899 550.451 155.764 550.451 155.597V154.312C550.451 154.145 549.447 154.01 548.209 154.01Z" fill="black" fill-opacity="0.45"/>
<path d="M417.821 167.237H374.116C372.878 167.237 371.875 167.373 371.875 167.54V168.825C371.875 168.992 372.878 169.127 374.116 169.127H417.821C419.059 169.127 420.062 168.992 420.062 168.825V167.54C420.062 167.373 419.059 167.237 417.821 167.237Z" fill="black" fill-opacity="0.45"/>
<path d="M226.018 167.237H182.314C181.076 167.237 180.072 167.373 180.072 167.54V168.825C180.072 168.992 181.076 169.127 182.314 169.127H226.018C227.256 169.127 228.259 168.992 228.259 168.825V167.54C228.259 167.373 227.256 167.237 226.018 167.237Z" fill="black" fill-opacity="0.45"/>
<path d="M317.667 167.237H273.963C272.725 167.237 271.722 167.373 271.722 167.54V168.825C271.722 168.992 272.725 169.127 273.963 169.127H317.667C318.905 169.127 319.909 168.992 319.909 168.825V167.54C319.909 167.373 318.905 167.237 317.667 167.237Z" fill="black" fill-opacity="0.45"/>
<path d="M548.209 167.237H504.505C503.267 167.237 502.264 167.373 502.264 167.54V168.825C502.264 168.992 503.267 169.127 504.505 169.127H548.209C549.447 169.127 550.451 168.992 550.451 168.825V167.54C550.451 167.373 549.447 167.237 548.209 167.237Z" fill="black" fill-opacity="0.45"/>
<path d="M417.821 180.465H374.116C372.878 180.465 371.875 180.601 371.875 180.768V182.053C371.875 182.22 372.878 182.355 374.116 182.355H417.821C419.059 182.355 420.062 182.22 420.062 182.053V180.768C420.062 180.601 419.059 180.465 417.821 180.465Z" fill="black" fill-opacity="0.45"/>
<path d="M226.018 180.465H182.314C181.076 180.465 180.072 180.601 180.072 180.768V182.053C180.072 182.22 181.076 182.355 182.314 182.355H226.018C227.256 182.355 228.259 182.22 228.259 182.053V180.768C228.259 180.601 227.256 180.465 226.018 180.465Z" fill="black" fill-opacity="0.45"/>
<path d="M317.667 180.465H273.963C272.725 180.465 271.722 180.601 271.722 180.768V182.053C271.722 182.22 272.725 182.355 273.963 182.355H317.667C318.905 182.355 319.909 182.22 319.909 182.053V180.768C319.909 180.601 318.905 180.465 317.667 180.465Z" fill="black" fill-opacity="0.45"/>
<path d="M548.209 180.465H504.505C503.267 180.465 502.264 180.601 502.264 180.768V182.053C502.264 182.22 503.267 182.355 504.505 182.355H548.209C549.447 182.355 550.451 182.22 550.451 182.053V180.768C550.451 180.601 549.447 180.465 548.209 180.465Z" fill="black" fill-opacity="0.45"/>
<path d="M417.821 193.693H374.116C372.878 193.693 371.875 193.828 371.875 193.995V195.28C371.875 195.447 372.878 195.583 374.116 195.583H417.821C419.059 195.583 420.062 195.447 420.062 195.28V193.995C420.062 193.828 419.059 193.693 417.821 193.693Z" fill="black" fill-opacity="0.45"/>
<path d="M226.018 193.693H182.314C181.076 193.693 180.072 193.828 180.072 193.995V195.28C180.072 195.447 181.076 195.583 182.314 195.583H226.018C227.256 195.583 228.259 195.447 228.259 195.28V193.995C228.259 193.828 227.256 193.693 226.018 193.693Z" fill="black" fill-opacity="0.45"/>
<path d="M317.667 193.693H273.963C272.725 193.693 271.722 193.828 271.722 193.995V195.28C271.722 195.447 272.725 195.583 273.963 195.583H317.667C318.905 195.583 319.909 195.447 319.909 195.28V193.995C319.909 193.828 318.905 193.693 317.667 193.693Z" fill="black" fill-opacity="0.45"/>
<path d="M548.209 193.693H504.505C503.267 193.693 502.264 193.828 502.264 193.995V195.28C502.264 195.447 503.267 195.583 504.505 195.583H548.209C549.447 195.583 550.451 195.447 550.451 195.28V193.995C550.451 193.828 549.447 193.693 548.209 193.693Z" fill="black" fill-opacity="0.45"/>
<path d="M417.821 205.031H374.116C372.878 205.031 371.875 205.167 371.875 205.334V206.619C371.875 206.786 372.878 206.921 374.116 206.921H417.821C419.059 206.921 420.062 206.786 420.062 206.619V205.334C420.062 205.167 419.059 205.031 417.821 205.031Z" fill="black" fill-opacity="0.45"/>
<path d="M226.018 205.031H182.314C181.076 205.031 180.072 205.167 180.072 205.334V206.619C180.072 206.786 181.076 206.921 182.314 206.921H226.018C227.256 206.921 228.259 206.786 228.259 206.619V205.334C228.259 205.167 227.256 205.031 226.018 205.031Z" fill="black" fill-opacity="0.45"/>
<path d="M317.667 205.031H273.963C272.725 205.031 271.722 205.167 271.722 205.334V206.619C271.722 206.786 272.725 206.921 273.963 206.921H317.667C318.905 206.921 319.909 206.786 319.909 206.619V205.334C319.909 205.167 318.905 205.031 317.667 205.031Z" fill="black" fill-opacity="0.45"/>
<path d="M548.209 205.031H504.505C503.267 205.031 502.264 205.167 502.264 205.334V206.619C502.264 206.786 503.267 206.921 504.505 206.921H548.209C549.447 206.921 550.451 206.786 550.451 206.619V205.334C550.451 205.167 549.447 205.031 548.209 205.031Z" fill="black" fill-opacity="0.45"/>
<path d="M417.82 218.259H374.115C372.877 218.259 371.874 218.394 371.874 218.561V219.846C371.874 220.013 372.877 220.149 374.115 220.149H417.82C419.058 220.149 420.061 220.013 420.061 219.846V218.561C420.061 218.394 419.058 218.259 417.82 218.259Z" fill="black" fill-opacity="0.45"/>
<path d="M226.017 218.259H182.313C181.075 218.259 180.071 218.394 180.071 218.561V219.846C180.071 220.013 181.075 220.149 182.313 220.149H226.017C227.255 220.149 228.258 220.013 228.258 219.846V218.561C228.258 218.394 227.255 218.259 226.017 218.259Z" fill="black" fill-opacity="0.45"/>
<path d="M317.666 218.259H273.962C272.724 218.259 271.721 218.394 271.721 218.561V219.846C271.721 220.013 272.724 220.149 273.962 220.149H317.666C318.904 220.149 319.908 220.013 319.908 219.846V218.561C319.908 218.394 318.904 218.259 317.666 218.259Z" fill="black" fill-opacity="0.45"/>
<path d="M548.208 218.259H504.504C503.266 218.259 502.263 218.394 502.263 218.561V219.846C502.263 220.013 503.266 220.149 504.504 220.149H548.208C549.446 220.149 550.45 220.013 550.45 219.846V218.561C550.45 218.394 549.446 218.259 548.208 218.259Z" fill="black" fill-opacity="0.45"/>
<path d="M417.82 231.487H374.115C372.877 231.487 371.874 231.622 371.874 231.789V233.074C371.874 233.241 372.877 233.377 374.115 233.377H417.82C419.058 233.377 420.061 233.241 420.061 233.074V231.789C420.061 231.622 419.058 231.487 417.82 231.487Z" fill="black" fill-opacity="0.45"/>
<path d="M226.017 231.487H182.313C181.075 231.487 180.071 231.622 180.071 231.789V233.074C180.071 233.241 181.075 233.377 182.313 233.377H226.017C227.255 233.377 228.258 233.241 228.258 233.074V231.789C228.258 231.622 227.255 231.487 226.017 231.487Z" fill="black" fill-opacity="0.45"/>
<path d="M317.666 231.487H273.962C272.724 231.487 271.721 231.622 271.721 231.789V233.074C271.721 233.241 272.724 233.377 273.962 233.377H317.666C318.904 233.377 319.908 233.241 319.908 233.074V231.789C319.908 231.622 318.904 231.487 317.666 231.487Z" fill="black" fill-opacity="0.45"/>
<path d="M548.208 231.487H504.504C503.266 231.487 502.263 231.622 502.263 231.789V233.074C502.263 233.241 503.266 233.377 504.504 233.377H548.208C549.446 233.377 550.45 233.241 550.45 233.074V231.789C550.45 231.622 549.446 231.487 548.208 231.487Z" fill="black" fill-opacity="0.45"/>
<path d="M417.82 244.715H374.115C372.877 244.715 371.874 244.85 371.874 245.017V246.302C371.874 246.469 372.877 246.604 374.115 246.604H417.82C419.058 246.604 420.061 246.469 420.061 246.302V245.017C420.061 244.85 419.058 244.715 417.82 244.715Z" fill="black" fill-opacity="0.45"/>
<path d="M226.017 244.715H182.313C181.075 244.715 180.071 244.85 180.071 245.017V246.302C180.071 246.469 181.075 246.604 182.313 246.604H226.017C227.255 246.604 228.258 246.469 228.258 246.302V245.017C228.258 244.85 227.255 244.715 226.017 244.715Z" fill="black" fill-opacity="0.45"/>
<path d="M317.666 244.715H273.962C272.724 244.715 271.721 244.85 271.721 245.017V246.302C271.721 246.469 272.724 246.604 273.962 246.604H317.666C318.904 246.604 319.908 246.469 319.908 246.302V245.017C319.908 244.85 318.904 244.715 317.666 244.715Z" fill="black" fill-opacity="0.45"/>
<path d="M548.208 244.715H504.504C503.266 244.715 502.263 244.85 502.263 245.017V246.302C502.263 246.469 503.266 246.604 504.504 246.604H548.208C549.446 246.604 550.45 246.469 550.45 246.302V245.017C550.45 244.85 549.446 244.715 548.208 244.715Z" fill="black" fill-opacity="0.45"/>
<path d="M417.82 257.942H374.115C372.877 257.942 371.874 258.078 371.874 258.245V259.53C371.874 259.697 372.877 259.832 374.115 259.832H417.82C419.058 259.832 420.061 259.697 420.061 259.53V258.245C420.061 258.078 419.058 257.942 417.82 257.942Z" fill="black" fill-opacity="0.45"/>
<path d="M226.017 257.942H182.313C181.075 257.942 180.071 258.078 180.071 258.245V259.53C180.071 259.697 181.075 259.832 182.313 259.832H226.017C227.255 259.832 228.258 259.697 228.258 259.53V258.245C228.258 258.078 227.255 257.942 226.017 257.942Z" fill="black" fill-opacity="0.45"/>
<path d="M317.666 257.942H273.962C272.724 257.942 271.721 258.078 271.721 258.245V259.53C271.721 259.697 272.724 259.832 273.962 259.832H317.666C318.904 259.832 319.908 259.697 319.908 259.53V258.245C319.908 258.078 318.904 257.942 317.666 257.942Z" fill="black" fill-opacity="0.45"/>
<path d="M548.208 257.942H504.504C503.266 257.942 502.263 258.078 502.263 258.245V259.53C502.263 259.697 503.266 259.832 504.504 259.832H548.208C549.446 259.832 550.45 259.697 550.45 259.53V258.245C550.45 258.078 549.446 257.942 548.208 257.942Z" fill="black" fill-opacity="0.45"/>
<circle cx="585.41" cy="30.235" r="4.72422" fill="#5AC8FB"/>
<path d="M118.714 40.6957L117.344 42.0816L118.85 43.5622L113.872 48.475L108.829 43.5622L113.872 38.5184L114.56 39.2394L116.033 37.7324L114.298 36.0946C114.183 35.9898 114.039 35.9231 113.885 35.9041C113.733 35.9226 113.591 35.9894 113.479 36.0946L106.643 42.8451C106.556 42.9224 106.486 43.0179 106.44 43.1246C106.394 43.2314 106.371 43.347 106.374 43.4633C106.377 43.5796 106.406 43.6938 106.457 43.798C106.509 43.9023 106.583 43.9941 106.674 44.0669L113.433 50.7658C113.598 50.8912 113.803 50.9531 114.011 50.9406C114.241 50.8781 114.452 50.7577 114.623 50.5907L121.046 43.988C121.198 43.8493 121.303 43.6661 121.344 43.4645C121.327 43.2683 121.241 43.0844 121.102 42.945L118.714 40.6957Z" fill="#0066F5"/>
<path d="M114.821 46.1558L116.191 44.7696L114.685 43.2893L119.663 38.3769L124.707 43.2893L119.663 48.3331L118.975 47.6124L117.502 49.1191L119.238 50.7566C119.352 50.8615 119.496 50.9283 119.65 50.9475C119.802 50.9288 119.945 50.8619 120.057 50.7566L126.893 44.0064C126.98 43.9291 127.049 43.8336 127.095 43.7269C127.142 43.6202 127.164 43.5048 127.161 43.3885C127.158 43.2723 127.13 43.158 127.078 43.0538C127.026 42.9496 126.953 42.858 126.862 42.7853L120.103 36.0864C119.937 35.9608 119.732 35.8987 119.525 35.9106C119.294 35.973 119.084 36.0935 118.913 36.2605L112.489 42.8639C112.337 43.0025 112.233 43.1857 112.191 43.3873C112.209 43.5835 112.295 43.7673 112.434 43.9065L114.821 46.1558Z" fill="#0066F5"/>
<defs>
<filter id="filter0_f" x="0.666992" y="343.333" width="691.333" height="94.6667" filterUnits="userSpaceOnUse" color-interpolation-filters="sRGB">
<feFlood flood-opacity="0" result="BackgroundImageFix"/>
<feBlend mode="normal" in="SourceGraphic" in2="BackgroundImageFix" result="shape"/>
<feGaussianBlur stdDeviation="22" result="effect1_foregroundBlur"/>
</filter>
<linearGradient id="paint0_linear" x1="10" y1="372.667" x2="682" y2="372.667" gradientUnits="userSpaceOnUse">
<stop stop-color="#0D1012"/>
<stop offset="0.0295345" stop-color="#CAD4DB"/>
<stop offset="0.0625" stop-color="#242729"/>
<stop offset="0.133609" stop-color="#A3ACB1"/>
<stop offset="0.865967" stop-color="#A3ACB1"/>
<stop offset="0.941937" stop-color="#242729"/>
<stop offset="0.971275" stop-color="#CAD4DB"/>
<stop offset="0.996436" stop-color="#0D1012"/>
</linearGradient>
<linearGradient id="paint1_linear" x1="346" y1="378.667" x2="346" y2="386.667" gradientUnits="userSpaceOnUse">
<stop stop-color="#7A7F83"/>
<stop offset="1" stop-color="#0B0B0E"/>
</linearGradient>
<linearGradient id="paint2_linear" x1="301.667" y1="372.333" x2="393" y2="372.333" gradientUnits="userSpaceOnUse">
<stop stop-color="#3C3C3C"/>
<stop offset="0.317518" stop-color="#3C3C3C" stop-opacity="0"/>
<stop offset="0.660584" stop-color="#3C3C3C" stop-opacity="0"/>
<stop offset="1" stop-color="#444444"/>
</linearGradient>
</defs>
</svg>
