<svg width="57" height="70" viewBox="0 0 57 70" fill="none" xmlns="http://www.w3.org/2000/svg">
<path d="M49.1213 39.1829V28C49.1213 16.3637 39.696 6.93069 28.0693 6.93069C16.4426 6.93069 7.01733 16.3637 7.01733 28V39.1829C2.94138 40.6367 0.00512265 44.4916 0 49.0693V56.0924V56.0966C0.00108769 58.0346 1.57209 59.605 3.50866 59.604H52.63H52.6342C54.5706 59.6029 56.1397 58.0304 56.1386 56.0924V49.0693C56.1334 44.4916 53.1973 40.6367 49.1213 39.1829Z" fill="#0066F5"/>
<path d="M14.5547 59.5C16.1214 65.5242 21.5506 69.9937 28.0696 70C34.5886 69.9937 40.0177 65.5242 41.5844 59.5H14.5547ZM28.0696 7C29.2659 7 30.4313 7.12306 31.573 7.3149V3.5C31.573 1.56692 30.0045 0 28.0696 0C26.1346 0 24.5662 1.56692 24.5662 3.5V7.3149C25.7078 7.12306 26.8732 7 28.0696 7Z" fill="#5AC8FB"/>
</svg>
