<svg width="142" height="142" viewBox="0 0 142 142" fill="none" xmlns="http://www.w3.org/2000/svg">
<path d="M126.959 102.764C122.897 98.2457 113.173 86.7795 105.176 85.0172C105.036 84.8305 104.851 84.6823 104.621 84.5634C104.623 84.5604 104.625 84.5574 104.627 84.5551C103.976 84.2594 103.313 83.9945 102.658 83.7131C118.789 62.9884 107.111 29.4145 90.0464 13.2724C68.3713 -7.22885 35.1781 -2.66282 15.7116 17.9482C-2.67518 37.417 -6.19225 72.9512 11.9665 93.7775C26.408 110.342 63.0942 121.247 80.1852 102.211C92.5393 114.985 130.606 159.836 141.2 133.012C145.238 122.786 132.974 109.453 126.959 102.764ZM119.891 102.068C119.069 101.514 118.276 100.979 117.537 100.464C106.628 92.8843 94.6282 86.7539 84.2237 78.4631C85.1598 77.0078 85.9777 75.4968 86.7212 73.9543C88.4143 75.4231 90.175 76.8152 91.9584 78.1689C93.9081 79.6497 95.8781 81.4075 97.9383 82.9223C97.9271 82.996 97.8924 83.069 97.8887 83.142C97.3838 83.5506 97.3808 84.4325 97.7931 84.9494C97.7871 84.9509 97.7796 84.9532 97.7743 84.9547C97.7909 84.9728 97.8157 84.9833 97.833 85.0014C97.8872 85.0623 97.9451 85.115 98.0121 85.1609C98.1415 85.9006 98.7044 86.4792 99.4433 86.7922C99.4109 86.7832 99.417 86.7877 99.4689 86.808C99.4794 86.8126 99.4869 86.8208 99.4982 86.8239C99.5118 86.8299 99.5253 86.8344 99.5396 86.8397C99.6006 86.8667 99.6698 86.8983 99.7541 86.951C99.9226 87.0586 100.03 87.1497 100.201 87.2941C100.42 88.1761 101.146 88.9842 102.197 89.0971C108.472 89.7608 115.372 97.4375 119.891 102.068ZM77.7088 78.7535C77.3815 78.7949 77.0684 78.9499 76.8833 79.2509C76.398 80.0388 75.8961 80.7739 75.3836 81.4753C75.1233 81.7529 74.8923 82.0509 74.6236 82.3203C74.3881 82.5573 74.2278 82.8094 74.1059 83.066C65.989 92.6345 54.8162 92.478 42.9248 86.0894C27.3411 77.7166 19.9021 60.1042 27.7467 43.8477C35.1728 28.4588 51.3074 23.4037 66.0228 28.9825C67.5887 29.8795 69.1426 30.7659 70.6716 31.6463C73.002 32.9872 75.2173 34.4877 77.3927 36.0445C89.0185 47.4182 87.661 65.8937 77.7088 78.7535ZM88.4248 69.7916C90.4347 71.0467 92.4024 72.3568 94.3272 73.7421C96.468 75.2839 98.447 77.3118 100.683 78.7505C100.157 79.5617 99.5908 80.3518 98.9768 81.1133C97.5019 80.1817 95.9616 79.3232 94.5522 78.372C92.0186 76.6639 89.5828 74.8271 87.1238 73.0212C87.6046 71.9602 88.0312 70.8804 88.4248 69.7916ZM101.966 76.5375C100.288 74.9558 98.1415 73.712 96.2919 72.4418C93.9472 70.83 91.5107 69.3596 89.0305 67.9683C89.7085 65.7809 90.2225 63.555 90.4986 61.3044C92.4806 63.7364 100.626 68.483 104.388 70.5523C103.788 72.6412 102.972 74.639 101.966 76.5375ZM105.125 67.4491C102.989 66.1827 100.674 65.1036 98.5606 63.9335C96.8405 62.9817 95.1278 62.02 93.3972 61.0892C92.8794 60.8108 92.3053 60.3578 91.7349 60.2005C91.44 60.1192 91.2827 60.1749 91.1706 60.2705C91.1337 60.1847 91.0788 60.1049 90.9847 60.0553C90.8907 60.0064 90.8004 59.9605 90.698 59.9326C90.6852 59.9289 90.6739 59.9371 90.6619 59.9349C90.8049 58.2704 90.8764 56.6052 90.7996 54.9482C95.2392 59.0199 100.448 62.3864 105.432 65.6928C105.346 66.2843 105.237 66.8667 105.125 67.4491ZM105.766 62.5618C100.871 59.0733 95.3002 56.6481 90.6416 52.7751C90.3699 50.2385 89.8409 47.7373 89.0125 45.3195C94.5244 50.0601 99.9791 54.8865 105.873 59.1064C105.884 60.2675 105.842 61.4195 105.766 62.5618ZM86.7671 16.5516C90.4226 19.612 93.7847 23.7152 96.6546 28.4077C91.1962 23.8198 84.9897 19.7587 79.3695 15.6547C74.4235 12.0428 68.8785 7.88237 62.9031 5.56776C71.4339 6.98693 79.7134 10.6485 86.7671 16.5516ZM56.6033 4.96954C56.6756 5.06887 56.7561 5.16744 56.9111 5.21861C74.0427 10.9141 84.3351 27.5423 100.107 35.1039C100.147 35.1227 100.185 35.122 100.224 35.137C101.119 37.098 101.947 39.1056 102.65 41.1666C85.6143 27.6454 66.3547 17.2612 48.1899 5.34126C50.9733 4.95298 53.7891 4.86795 56.6033 4.96954ZM46.2974 5.63473C65.3087 19.5578 85.1869 32.2536 104.152 46.2496C104.862 49.0782 105.372 51.9421 105.643 54.7902C99.3244 50.1361 93.1014 45.2894 86.8529 40.457C84.6744 36.411 81.6262 32.702 77.5184 29.6312C72.8538 26.1442 67.8468 23.8582 62.7827 22.6866C54.7583 17.2259 46.4457 12.2211 37.6206 8.06071C40.4387 6.9651 43.347 6.16748 46.2974 5.63473ZM36.3136 8.61679C41.5124 13.5515 47.5894 17.8549 53.9012 21.7987C51.549 21.8634 49.2163 22.1365 46.9378 22.6791C44.6849 20.928 41.9459 19.6511 39.5553 18.1341C36.4159 16.1431 33.4301 13.9195 30.6354 11.4687C32.4707 10.3701 34.3752 9.44075 36.3136 8.61679ZM29.4081 12.2076C31.9598 14.7337 34.7372 16.9866 37.6214 19.1266C39.5741 20.5751 41.687 22.275 43.9189 23.5436C42.0956 24.1607 40.31 24.9169 38.5883 25.8477C36.8569 24.4684 35.0096 23.2043 33.3075 21.8069C30.6241 19.6037 27.9822 17.3493 25.3169 15.1242C26.636 14.0602 28.0093 13.1061 29.4081 12.2076ZM23.9278 16.2446C26.5495 18.6044 29.1508 20.986 31.8002 23.3149C33.2126 24.5565 34.6702 26.0103 36.2526 27.2225C35.452 27.7387 34.6657 28.2888 33.8981 28.8764C33.1856 28.3309 32.3796 27.8997 31.6008 27.3918C29.9522 26.315 28.3599 25.1517 26.7812 23.9763C24.7352 22.4548 22.7284 20.8611 20.7035 19.3208C21.7389 18.2289 22.8202 17.2116 23.9278 16.2446ZM18.9457 21.1816C19.1541 20.9371 19.3867 20.7301 19.5988 20.4909C21.3416 22.4195 23.4207 24.0576 25.4614 25.6875C27.2545 27.1194 29.533 29.3881 31.8695 30.5801C30.7671 31.5568 29.6918 32.5831 28.679 33.7171C28.6293 33.4914 28.4833 33.2807 28.2072 33.1347C23.8135 30.8043 19.6816 28.3166 15.8289 25.2751C16.8132 23.8589 17.8403 22.4812 18.9457 21.1816ZM15.1201 26.2789C18.7373 29.6665 22.7803 32.6426 27.2199 34.8225C27.3554 34.8887 27.4878 34.9196 27.615 34.9286C26.621 36.1378 25.6623 37.4035 24.7781 38.7745C24.3756 39.3983 24.0038 40.0251 23.6502 40.6534C22.2716 39.7076 20.8058 38.8618 19.4499 37.8986C16.826 36.034 14.3421 33.9722 11.8529 31.9345C11.8348 31.9202 11.8152 31.918 11.7964 31.9044C12.8153 29.966 13.9214 28.0833 15.1201 26.2789ZM10.9695 33.453C14.4835 36.4689 18.4114 40.363 22.6802 42.5128C21.9586 43.9944 21.3514 45.4851 20.869 46.9803C16.9042 44.0584 12.8416 41.2163 8.78577 38.4081C9.44043 36.7203 10.1763 35.0708 10.9695 33.453ZM8.19207 40.059C12.0982 43.2036 15.9584 46.6514 20.2467 49.1715C19.8569 50.7517 19.5793 52.3326 19.4348 53.9083C18.1247 51.6524 15.309 50.0165 13.2412 48.5966C11.1651 47.1699 8.93025 46.0043 6.63144 44.9839C7.07765 43.3195 7.61267 41.6813 8.19207 40.059ZM6.32894 46.072C8.18906 47.0397 10.0063 48.0781 11.7528 49.2512C14.3541 50.9985 16.1962 53.6878 18.7711 55.3433C18.9826 55.4795 19.1737 55.4554 19.343 55.3794C19.2422 57.6368 19.355 59.8799 19.7192 62.084C17.7199 60.4834 15.5137 59.0191 13.6347 57.457C10.8649 55.1544 8.13413 52.8044 5.38985 50.4702C5.64569 48.9939 5.96625 47.5288 6.32894 46.072ZM5.11219 52.3439C7.487 54.5148 9.85655 56.6917 12.2494 58.843C14.7386 61.0817 17.516 64.2157 20.5778 65.8629C22.3928 72.2409 26.0212 78.193 30.9379 83.1728C22.1881 75.2967 13.5497 67.2843 4.49817 59.7167C4.52225 57.2561 4.76755 54.7947 5.11219 52.3439ZM13.6317 88.6433C10.5195 84.601 8.29591 80.1569 6.79247 75.5066C11.6188 81.02 18.6808 86.0082 23.1498 89.912C28.6143 94.6857 34.1856 99.3285 39.8856 103.817C40.7216 104.475 41.6178 105.268 42.5486 106.08C30.883 103.317 19.9382 96.837 13.6317 88.6433ZM48.5391 107.161C46.0175 104.886 42.7601 102.966 40.2995 100.938C34.622 96.2569 29.0018 91.5042 23.4598 86.6628C18.3746 82.221 13.3021 77.764 8.46372 73.0505C8.00395 72.6028 6.70518 71.5057 5.45607 70.3356C4.88645 67.4973 4.59524 64.604 4.51698 61.6949C21.5869 77.2366 37.3663 94.4479 56.5108 107.483C53.8816 107.6 51.2096 107.486 48.5391 107.161ZM60.1189 107.166C51.3503 100.939 43.1747 94.0393 35.1721 86.9375C36.8035 88.2355 38.504 89.465 40.3138 90.5584C43.0595 92.2161 46.3486 93.5683 49.8333 94.4683C54.6258 99.1261 60.7111 102.44 66.439 105.785C64.3922 106.418 62.2808 106.886 60.1189 107.166ZM68.1102 105.218C68.2645 104.773 68.1817 104.247 67.667 103.918C62.3952 100.551 56.5033 98.5128 51.4647 94.8324C54.3158 95.4435 57.2565 95.7354 60.1114 95.6587C62.4817 97.1132 64.8753 98.5271 67.2607 99.9561C68.9154 100.946 70.6159 102.309 72.4151 103.257C71.0253 104.009 69.5941 104.675 68.1102 105.218ZM74.5664 101.967C73.0231 100.616 70.9975 99.7777 69.19 98.8492C66.9868 97.7182 64.7677 96.6166 62.5562 95.5006C64.6052 95.2779 66.5631 94.8129 68.3879 94.1251C71.2255 96.2298 74.1338 98.2306 77.1219 100.104C76.2971 100.773 75.4446 101.393 74.5664 101.967ZM121.846 134.173C115.587 130.942 110.319 125.7 105.248 120.904C97.7367 113.801 90.7213 104.762 81.5615 99.5888C81.3628 98.5745 80.3093 97.8356 79.2784 98.3555C79.213 98.3247 79.1535 98.2833 79.0881 98.2532C78.9586 98.193 78.8262 98.1674 78.696 98.1599C75.866 96.5812 73.0427 94.9927 70.2871 93.2854C71.4444 92.6962 72.4971 91.9565 73.4761 91.1265C93.6545 104.42 109.091 123.687 129.809 136.242C126.909 136.139 123.814 135.187 121.846 134.173ZM133.741 135.693C111.987 123.107 96.5335 102.341 74.5032 90.1889C75.5289 89.1385 76.4311 87.9405 77.1339 86.5296C77.5011 86.4228 77.8661 86.2286 78.2054 85.9021C78.3123 85.799 78.4048 85.6854 78.5094 85.5815C97.544 101.479 116.582 118.275 136.81 132.629C136.248 134.181 135.145 135.156 133.741 135.693ZM79.3913 84.6545C80.8406 83.1367 82.1461 81.5121 83.332 79.8183C99.5231 94.0333 118.552 103.638 133.567 119.348C133.774 119.566 134.022 119.672 134.272 119.697C135.982 122.96 137.12 126.369 137.205 129.822C119.44 113.38 99.3748 98.2532 79.3913 84.6545Z" fill="#A4E2FF" fill-opacity="0.25"/>
</svg>
