<svg width="189" height="197" viewBox="0 0 189 197" fill="none" xmlns="http://www.w3.org/2000/svg">
<rect width="169" height="169" rx="84.5" fill="#F3F7FA"/>
<path d="M111.177 116.503H52.1489C38.8111 116.503 27.9993 105.69 28 92.3518C28.0006 81.8892 34.7381 72.6169 44.6888 69.3844C48.4816 47.4835 69.3105 32.804 91.2113 36.5969C104.144 38.8365 115.172 47.2418 120.76 59.118C136.167 64.3935 144.381 81.1603 139.105 96.5678C135.019 108.503 123.792 116.516 111.177 116.503Z" fill="#80B3FA"/>
<path d="M132.646 132.603H180.944C185.389 132.603 188.993 136.207 188.993 140.652V156.752C188.993 161.197 185.389 164.801 180.944 164.801H132.646C128.2 164.801 124.596 161.197 124.596 156.752V140.652C124.596 136.207 128.2 132.603 132.646 132.603Z" fill="#C0D9FD"/>
<path d="M92.3972 140.652V116.503H76.2979V148.702C76.2979 148.704 76.2979 148.705 76.2979 148.706C76.2988 153.151 79.9031 156.753 84.3475 156.752H124.596V140.652H92.3972Z" fill="#0066F5"/>
<path d="M132.646 164.801H180.944C185.389 164.801 188.993 168.405 188.993 172.851V188.95C188.993 193.396 185.389 197 180.944 197H132.646C128.2 197 124.596 193.396 124.596 188.95V172.851C124.596 168.405 128.2 164.801 132.646 164.801Z" fill="#80B3FA"/>
<path d="M92.3972 172.851V148.702C92.3972 144.256 88.7934 140.652 84.3475 140.652C79.9016 140.652 76.2979 144.256 76.2979 148.702V180.901C76.2979 180.902 76.2979 180.904 76.2979 180.905C76.2988 185.35 79.9031 188.951 84.3475 188.95H124.596V172.851H92.3972Z" fill="#0066F5"/>
</svg>
