<svg width="78" height="70" viewBox="0 0 78 70" fill="none" xmlns="http://www.w3.org/2000/svg">
<path d="M66.1111 11.6667H11.6667C5.22336 11.6667 0 16.89 0 23.3334V33.9145L26.5899 42.7778H51.1879L77.7778 33.9145V23.3334C77.7778 16.89 72.5544 11.6667 66.1111 11.6667Z" fill="#5AC8FB"/>
<path d="M31.1111 11.6667V7.77778H46.6667V11.6667H54.4445V7.77778C54.4395 3.48425 50.9602 0.0049 46.6667 0H31.1111C26.8176 0.0049 23.3382 3.48425 23.3333 7.77778V11.6667H31.1111ZM26.5899 42.7778L0 33.9143V58.3333C0.00703889 64.7738 5.22624 69.993 11.6667 70H66.1111C72.5516 69.993 77.7708 64.7738 77.7778 58.3333V33.9143L51.1879 42.7778H26.5899Z" fill="#0066F5"/>
</svg>
