<svg width="63" height="70" viewBox="0 0 63 70" fill="none" xmlns="http://www.w3.org/2000/svg">
<path d="M31.4444 26.9532C28.7788 26.9532 26.1731 26.1627 23.9568 24.6817C21.7405 23.2007 20.0132 21.0958 18.9933 18.633C17.9734 16.1703 17.7067 13.4604 18.227 10.8461C18.7473 8.23185 20.0311 5.83056 21.9162 3.94597C23.8013 2.06137 26.2029 0.778131 28.8173 0.258529C31.4318 -0.261073 34.1416 0.00630638 36.604 1.02685C39.0665 2.0474 41.171 3.77527 42.6514 5.99194C44.1318 8.20861 44.9216 10.8145 44.9209 13.4801C44.92 17.0537 43.4997 20.4806 40.9725 23.0072C38.4452 25.5338 35.018 26.9532 31.4444 26.9532Z" fill="#5AC8FB"/>
<path d="M10.4822 27.9315C7.92606 27.9417 5.37627 28.1873 2.86518 28.6653C2.0631 28.812 1.33762 29.2347 0.814364 29.8601C0.291109 30.4854 0.00304152 31.2741 5.08007e-05 32.0895V60.9154C-0.00272992 61.4291 0.10868 61.9369 0.326222 62.4022C0.543763 62.8675 0.861999 63.2786 1.25791 63.6058C1.65083 63.9347 2.11075 64.1738 2.6056 64.3065C3.10044 64.4393 3.6183 64.4625 4.12304 64.3745C6.21842 63.9664 8.34748 63.7558 10.4822 63.7456C17.2504 63.7388 23.8718 65.7191 29.5248 69.4409C30.1048 69.7937 30.7679 69.9866 31.4466 70V33.5919C25.0832 29.8814 17.8484 27.928 10.4822 27.9315Z" fill="#0066F5"/>
<path d="M60.0286 28.6652C50.2193 26.7882 40.0621 28.539 31.4473 33.5918V69.9999C32.1261 69.9875 32.7894 69.7946 33.369 69.4408C39.0221 65.7191 45.6434 63.7387 52.4116 63.7455C54.5463 63.7557 56.6754 63.9663 58.7708 64.3745C59.2755 64.4624 59.7934 64.4392 60.2882 64.3065C60.7831 64.1737 61.243 63.9346 61.6359 63.6058C62.0318 63.2785 62.3501 62.8674 62.5676 62.4021C62.7851 61.9368 62.8966 61.429 62.8938 60.9153V32.0894C62.8908 31.274 62.6027 30.4853 62.0795 29.86C61.5562 29.2346 60.8307 28.812 60.0286 28.6652Z" fill="#5AC8FB"/>
<path d="M42.165 22.8896C41.9064 22.7358 41.6269 22.652 41.3649 22.5087C40.1148 23.9003 38.5858 25.0131 36.8774 25.7749C35.1689 26.5367 33.3193 26.9304 31.4487 26.9304C29.5781 26.9304 27.7285 26.5367 26.0201 25.7749C24.3116 25.0131 22.7827 23.9003 21.5326 22.5087C18.9015 23.8988 16.6013 25.8403 14.7891 28.2005C20.6625 28.7924 26.3421 30.6304 31.4487 33.5919C36.5375 30.6174 42.2057 28.7705 48.0699 28.1761C46.4569 26.0534 44.4525 24.259 42.165 22.8896Z" fill="#0066F5"/>
</svg>
