<svg width="25" height="25" viewBox="0 0 25 25" fill="none" xmlns="http://www.w3.org/2000/svg">
<path d="M22.321 0.000732422H2.679C1.96848 0.000732422 1.28707 0.282983 0.784661 0.785393C0.282251 1.2878 0 1.96922 0 2.67973L0 22.3217C0 23.0322 0.282251 23.7137 0.784661 24.2161C1.28707 24.7185 1.96848 25.0007 2.679 25.0007H22.321C23.0315 25.0007 23.7129 24.7185 24.2153 24.2161C24.7178 23.7137 25 23.0322 25 22.3217V2.67973C25 1.96922 24.7178 1.2878 24.2153 0.785393C23.7129 0.282983 23.0315 0.000732422 22.321 0.000732422ZM19.592 8.86273C19.603 9.01873 19.603 9.18073 19.603 9.33673C19.6124 10.7067 19.3496 12.065 18.8297 13.3325C18.3098 14.6001 17.5432 15.7517 16.5745 16.7205C15.6058 17.6893 14.4542 18.456 13.1867 18.976C11.9192 19.496 10.561 19.759 9.191 19.7497C7.19923 19.754 5.24843 19.1843 3.572 18.1087C3.8649 18.1406 4.15938 18.1556 4.454 18.1537C6.10185 18.1579 7.70315 17.6074 9 16.5907C8.2363 16.5768 7.49605 16.3246 6.8827 15.8694C6.26934 15.4141 5.81354 14.7787 5.579 14.0517C6.12822 14.1464 6.69125 14.1235 7.231 13.9847C6.40271 13.8164 5.65821 13.3665 5.12394 12.7116C4.58966 12.0566 4.29854 11.237 4.3 10.3917V10.3467C4.80616 10.6299 5.37241 10.7886 5.952 10.8097C5.45006 10.4758 5.03861 10.0227 4.75437 9.49106C4.47012 8.95939 4.32193 8.36562 4.323 7.76273C4.32069 7.11333 4.49341 6.47529 4.823 5.91573C5.74184 7.04725 6.88843 7.97282 8.1883 8.63232C9.48817 9.29182 10.9122 9.67049 12.368 9.74373C12.1902 8.96078 12.2742 8.14113 12.6072 7.41053C12.9401 6.67993 13.5035 6.07874 14.2111 5.69921C14.9186 5.31969 15.7311 5.18278 16.5239 5.3095C17.3167 5.43622 18.046 5.81957 18.6 6.40073C19.4191 6.24391 20.2045 5.94544 20.921 5.51873C20.6482 6.36347 20.0769 7.07983 19.314 7.53373C20.0416 7.45117 20.7526 7.25935 21.423 6.96473C20.9267 7.69791 20.3076 8.33998 19.593 8.86273H19.592Z" fill="white"/>
</svg>
