<svg width="201" height="89" viewBox="0 0 201 89" fill="none" xmlns="http://www.w3.org/2000/svg">
<path d="M184.994 0.00028925H16.0154C15.3995 0.00028925 14.7909 0.00028925 14.1766 0.00473925C13.6624 0.00918925 13.1522 0.0221165 12.633 0.0329968C11.5051 0.0505783 10.3799 0.182019 9.26708 0.426177C8.15583 0.675649 7.07939 1.14598 6.07417 1.82125C5.07018 2.50224 4.1528 3.38711 3.35532 4.44377C2.55366 5.49746 1.8854 6.71538 1.37626 8.0507C0.865719 9.38336 0.511705 10.8114 0.32645 12.2856C0.139434 13.7579 0.0387984 15.2471 0.0254475 16.74C0.00985985 17.4222 0.00821374 18.1067 0 18.7889V70.2182C0.00821374 70.909 0.00985985 71.5783 0.0254475 72.2694C0.0388025 73.7622 0.139438 75.2514 0.32645 76.7236C0.511194 78.1986 0.865228 79.6275 1.37626 80.9607C1.88517 82.2917 2.55352 83.5047 3.35532 84.5525C4.14978 85.6139 5.06775 86.4994 6.07417 87.1751C7.07939 87.8522 8.15571 88.3253 9.26708 88.5787C10.3801 88.8209 11.5052 88.9524 12.633 88.972C13.1522 88.9872 13.6624 88.9958 14.1766 88.9958C14.7909 89.0003 15.3995 89.0003 16.0154 89.0003H184.994C185.597 89.0003 186.211 89.0003 186.814 88.9958C187.326 88.9958 187.851 88.9872 188.363 88.972C189.489 88.9534 190.612 88.8219 191.722 88.5787C192.837 88.3236 193.917 87.8505 194.928 87.1751C195.933 86.499 196.85 85.6135 197.644 84.5525C198.444 83.5006 199.113 82.2885 199.629 80.9607C200.136 79.6266 200.487 78.1978 200.669 76.7236C200.856 75.2512 200.96 73.7623 200.98 72.2694C200.987 71.5783 200.987 70.909 200.987 70.2182C201 69.4098 201 68.6059 201 67.7845V21.2182C201 20.4034 201 19.5951 200.987 18.7889C200.987 18.1067 200.987 17.4222 200.98 16.7399C200.96 15.2469 200.856 13.758 200.669 12.2855C200.486 10.8122 200.135 9.38423 199.629 8.05061C198.592 5.3741 196.948 3.19545 194.928 1.82105C193.917 1.14743 192.837 0.677224 191.722 0.425976C190.612 0.180743 189.489 0.0492565 188.363 0.0326853C187.851 0.0218273 187.326 0.00878875 186.814 0.00445C186.211 0 185.597 0 184.994 0V0.00028925Z" fill="white"/>
<path d="M14.1852 87.0533C13.6734 87.0533 13.174 87.0446 12.6663 87.0295C11.6144 87.0113 10.565 86.89 9.52666 86.6666C8.55847 86.4457 7.62054 86.0348 6.74383 85.4475C5.87516 84.865 5.08286 84.1013 4.39729 83.1855C3.70179 82.2806 3.12276 81.231 2.68314 80.0783C2.23867 78.9182 1.93107 77.6747 1.77106 76.3911C1.59826 75.0118 1.50477 73.6172 1.49139 72.2192C1.48074 71.7499 1.4668 70.1875 1.4668 70.1875V18.7888C1.4668 18.7888 1.48165 17.2504 1.49147 16.7985C1.50428 15.4027 1.59723 14.0102 1.76951 12.6331C1.92982 11.346 2.23766 10.0989 2.68236 8.93492C3.12037 7.78307 3.69619 6.73269 4.3875 5.82448C5.07803 4.90765 5.87286 4.13999 6.74301 3.54949C7.61771 2.96405 8.55386 2.55608 9.52009 2.33922C10.5618 2.11353 11.6149 1.99151 12.6704 1.97419L14.186 1.94702H186.807L188.34 1.97528C189.386 1.99174 190.43 2.11267 191.462 2.33704C192.438 2.55662 193.384 2.96744 194.268 3.55601C196.012 4.74604 197.43 6.62878 198.325 8.94035C198.763 10.0963 199.066 11.3332 199.224 12.6092C199.398 13.9976 199.496 15.401 199.516 16.8082C199.521 17.4384 199.521 18.1152 199.521 18.7888C199.534 19.6232 199.534 20.4173 199.534 21.218V67.7843C199.534 68.5927 199.534 69.3814 199.521 70.1766C199.521 70.9002 199.521 71.563 199.514 72.2452C199.495 73.6273 199.399 75.0057 199.227 76.3693C199.07 77.6621 198.764 78.9154 198.32 80.085C197.877 81.2251 197.302 82.2657 196.614 83.1682C195.928 84.0889 195.134 84.8571 194.264 85.4433C193.381 86.0351 192.437 86.4475 191.462 86.6666C190.424 86.8912 189.374 87.0125 188.322 87.0295C187.83 87.0446 187.315 87.0533 186.815 87.0533L184.994 87.0577L14.1852 87.0533Z" fill="black"/>
<path d="M81.335 24.955L79.58 29.8H83.15L81.395 24.955H81.335ZM78.065 34H76.535L80.585 23.26H82.145L86.195 34H84.665L83.63 31.09H79.115L78.065 34ZM90.0374 34H88.6574L85.6874 26.65H87.1874L89.3474 32.35H89.3774L91.5674 26.65H93.0374L90.0374 34ZM94.7967 31.75C94.7967 32.11 94.9467 32.41 95.2467 32.65C95.5567 32.89 95.9167 33.01 96.3267 33.01C96.9067 33.01 97.4217 32.795 97.8717 32.365C98.3317 31.935 98.5617 31.43 98.5617 30.85C98.1317 30.51 97.5317 30.34 96.7617 30.34C96.2017 30.34 95.7317 30.475 95.3517 30.745C94.9817 31.015 94.7967 31.35 94.7967 31.75ZM96.5817 26.41C97.6017 26.41 98.4067 26.685 98.9967 27.235C99.5867 27.775 99.8817 28.52 99.8817 29.47V34H98.5617V32.98H98.5017C97.9317 33.82 97.1717 34.24 96.2217 34.24C95.4117 34.24 94.7317 34 94.1817 33.52C93.6417 33.04 93.3717 32.44 93.3717 31.72C93.3717 30.96 93.6567 30.355 94.2267 29.905C94.8067 29.455 95.5767 29.23 96.5367 29.23C97.3567 29.23 98.0317 29.38 98.5617 29.68V29.365C98.5617 28.885 98.3717 28.48 97.9917 28.15C97.6117 27.81 97.1667 27.64 96.6567 27.64C95.8867 27.64 95.2767 27.965 94.8267 28.615L93.6117 27.85C94.2817 26.89 95.2717 26.41 96.5817 26.41ZM103.223 24.115C103.223 24.385 103.128 24.615 102.938 24.805C102.748 24.995 102.518 25.09 102.248 25.09C101.978 25.09 101.748 24.995 101.558 24.805C101.368 24.615 101.273 24.385 101.273 24.115C101.273 23.845 101.368 23.615 101.558 23.425C101.748 23.235 101.978 23.14 102.248 23.14C102.518 23.14 102.748 23.235 102.938 23.425C103.128 23.615 103.223 23.845 103.223 24.115ZM102.938 26.65V34H101.558V26.65H102.938ZM106.114 23.26V34H104.734V23.26H106.114ZM108.727 31.75C108.727 32.11 108.877 32.41 109.177 32.65C109.487 32.89 109.847 33.01 110.257 33.01C110.837 33.01 111.352 32.795 111.802 32.365C112.262 31.935 112.492 31.43 112.492 30.85C112.062 30.51 111.462 30.34 110.692 30.34C110.132 30.34 109.662 30.475 109.282 30.745C108.912 31.015 108.727 31.35 108.727 31.75ZM110.512 26.41C111.532 26.41 112.337 26.685 112.927 27.235C113.517 27.775 113.812 28.52 113.812 29.47V34H112.492V32.98H112.432C111.862 33.82 111.102 34.24 110.152 34.24C109.342 34.24 108.662 34 108.112 33.52C107.572 33.04 107.302 32.44 107.302 31.72C107.302 30.96 107.587 30.355 108.157 29.905C108.737 29.455 109.507 29.23 110.467 29.23C111.287 29.23 111.962 29.38 112.492 29.68V29.365C112.492 28.885 112.302 28.48 111.922 28.15C111.542 27.81 111.097 27.64 110.587 27.64C109.817 27.64 109.207 27.965 108.757 28.615L107.542 27.85C108.212 26.89 109.202 26.41 110.512 26.41ZM119.254 34.24C118.714 34.24 118.219 34.125 117.769 33.895C117.329 33.665 116.989 33.36 116.749 32.98H116.689V34H115.369V23.26H116.749V26.65L116.689 27.67H116.749C116.989 27.29 117.329 26.985 117.769 26.755C118.219 26.525 118.714 26.41 119.254 26.41C120.224 26.41 121.044 26.79 121.714 27.55C122.404 28.32 122.749 29.245 122.749 30.325C122.749 31.415 122.404 32.34 121.714 33.1C121.044 33.86 120.224 34.24 119.254 34.24ZM119.029 32.98C119.689 32.98 120.244 32.73 120.694 32.23C121.144 31.74 121.369 31.105 121.369 30.325C121.369 29.555 121.144 28.92 120.694 28.42C120.244 27.92 119.689 27.67 119.029 27.67C118.359 27.67 117.799 27.92 117.349 28.42C116.909 28.92 116.689 29.555 116.689 30.325C116.689 31.105 116.909 31.745 117.349 32.245C117.799 32.735 118.359 32.98 119.029 32.98ZM125.318 23.26V34H123.938V23.26H125.318ZM130.226 34.24C129.146 34.24 128.256 33.87 127.556 33.13C126.856 32.39 126.506 31.455 126.506 30.325C126.506 29.205 126.846 28.275 127.526 27.535C128.206 26.785 129.076 26.41 130.136 26.41C131.226 26.41 132.091 26.765 132.731 27.475C133.381 28.175 133.706 29.16 133.706 30.43L133.691 30.58H127.916C127.936 31.3 128.176 31.88 128.636 32.32C129.096 32.76 129.646 32.98 130.286 32.98C131.166 32.98 131.856 32.54 132.356 31.66L133.586 32.26C133.256 32.88 132.796 33.365 132.206 33.715C131.626 34.065 130.966 34.24 130.226 34.24ZM128.021 29.44H132.236C132.196 28.93 131.986 28.51 131.606 28.18C131.236 27.84 130.736 27.67 130.106 27.67C129.586 27.67 129.136 27.83 128.756 28.15C128.386 28.47 128.141 28.9 128.021 29.44ZM137.844 30.325C137.844 29.195 138.199 28.26 138.909 27.52C139.629 26.78 140.534 26.41 141.624 26.41C142.714 26.41 143.614 26.78 144.324 27.52C145.044 28.26 145.404 29.195 145.404 30.325C145.404 31.465 145.044 32.4 144.324 33.13C143.614 33.87 142.714 34.24 141.624 34.24C140.534 34.24 139.629 33.87 138.909 33.13C138.199 32.39 137.844 31.455 137.844 30.325ZM139.224 30.325C139.224 31.115 139.454 31.755 139.914 32.245C140.374 32.735 140.944 32.98 141.624 32.98C142.304 32.98 142.874 32.735 143.334 32.245C143.794 31.755 144.024 31.115 144.024 30.325C144.024 29.545 143.794 28.91 143.334 28.42C142.864 27.92 142.294 27.67 141.624 27.67C140.954 27.67 140.384 27.92 139.914 28.42C139.454 28.91 139.224 29.545 139.224 30.325ZM146.511 26.65H147.831V27.67H147.891C148.101 27.31 148.421 27.01 148.851 26.77C149.291 26.53 149.746 26.41 150.216 26.41C151.116 26.41 151.806 26.67 152.286 27.19C152.776 27.7 153.021 28.43 153.021 29.38V34H151.641V29.47C151.611 28.27 151.006 27.67 149.826 27.67C149.276 27.67 148.816 27.895 148.446 28.345C148.076 28.785 147.891 29.315 147.891 29.935V34H146.511V26.65ZM160.847 34.12C160.247 34.12 159.747 33.935 159.347 33.565C158.957 33.195 158.757 32.68 158.747 32.02V27.91H157.457V26.65H158.747V24.4H160.127V26.65H161.927V27.91H160.127V31.57C160.127 32.06 160.222 32.395 160.412 32.575C160.602 32.745 160.817 32.83 161.057 32.83C161.167 32.83 161.272 32.82 161.372 32.8C161.482 32.77 161.582 32.735 161.672 32.695L162.107 33.925C161.747 34.055 161.327 34.12 160.847 34.12ZM163.313 23.26H164.693V26.65L164.633 27.67H164.693C164.903 27.31 165.223 27.01 165.653 26.77C166.093 26.53 166.548 26.41 167.018 26.41C167.918 26.41 168.608 26.67 169.088 27.19C169.578 27.7 169.823 28.43 169.823 29.38V34H168.443V29.65C168.443 28.33 167.858 27.67 166.688 27.67C166.128 27.67 165.653 27.905 165.263 28.375C164.883 28.835 164.693 29.375 164.693 29.995V34H163.313V23.26ZM174.743 34.24C173.663 34.24 172.773 33.87 172.073 33.13C171.373 32.39 171.023 31.455 171.023 30.325C171.023 29.205 171.363 28.275 172.043 27.535C172.723 26.785 173.593 26.41 174.653 26.41C175.743 26.41 176.608 26.765 177.248 27.475C177.898 28.175 178.223 29.16 178.223 30.43L178.208 30.58H172.433C172.453 31.3 172.693 31.88 173.153 32.32C173.613 32.76 174.163 32.98 174.803 32.98C175.683 32.98 176.373 32.54 176.873 31.66L178.103 32.26C177.773 32.88 177.313 33.365 176.723 33.715C176.143 34.065 175.483 34.24 174.743 34.24ZM172.538 29.44H176.753C176.713 28.93 176.503 28.51 176.123 28.18C175.753 27.84 175.253 27.67 174.623 27.67C174.103 27.67 173.653 27.83 173.273 28.15C172.903 28.47 172.658 28.9 172.538 29.44Z" fill="white"/>
<path d="M76.637 42.088H81.213L84.765 55.464L85.277 57.928H85.533L86.205 55.464L89.501 45.16H93.533L96.861 55.464L97.501 57.896H97.757L98.237 55.464L101.565 42.088H106.141L100.061 65H95.901L92.317 53.96L91.645 51.432H91.389L90.717 53.96L87.133 65H82.973L76.637 42.088ZM121.546 61.224C120.821 62.504 119.84 63.5387 118.602 64.328C117.386 65.1173 115.893 65.512 114.122 65.512C112.928 65.512 111.818 65.3093 110.794 64.904C109.792 64.4773 108.917 63.8907 108.17 63.144C107.424 62.3973 106.837 61.5227 106.41 60.52C106.005 59.496 105.802 58.376 105.802 57.16C105.802 56.0293 106.005 54.9627 106.41 53.96C106.816 52.936 107.381 52.0507 108.106 51.304C108.832 50.536 109.685 49.928 110.666 49.48C111.669 49.032 112.768 48.808 113.962 48.808C115.221 48.808 116.341 49.0213 117.322 49.448C118.304 49.8533 119.125 50.4293 119.786 51.176C120.448 51.9013 120.949 52.7653 121.29 53.768C121.632 54.7707 121.802 55.8587 121.802 57.032C121.802 57.1813 121.802 57.3093 121.802 57.416C121.781 57.544 121.77 57.6613 121.77 57.768C121.749 57.8747 121.738 57.992 121.738 58.12H109.93C110.016 58.76 110.186 59.3147 110.442 59.784C110.72 60.232 111.05 60.616 111.434 60.936C111.84 61.2347 112.277 61.4587 112.746 61.608C113.216 61.736 113.696 61.8 114.186 61.8C115.146 61.8 115.936 61.5867 116.554 61.16C117.194 60.712 117.696 60.1573 118.058 59.496L121.546 61.224ZM117.738 55.144C117.717 54.8667 117.621 54.5573 117.45 54.216C117.301 53.8747 117.066 53.5547 116.746 53.256C116.448 52.9573 116.064 52.712 115.594 52.52C115.146 52.328 114.602 52.232 113.962 52.232C113.066 52.232 112.277 52.488 111.594 53C110.912 53.512 110.432 54.2267 110.154 55.144H117.738ZM124.48 42.088H128.672V48.968L128.416 51.208H128.672C129.056 50.5467 129.653 49.9813 130.464 49.512C131.274 49.0427 132.277 48.808 133.472 48.808C134.474 48.808 135.424 49.0213 136.32 49.448C137.237 49.8533 138.037 50.4293 138.72 51.176C139.424 51.9013 139.978 52.776 140.384 53.8C140.789 54.824 140.992 55.944 140.992 57.16C140.992 58.376 140.789 59.496 140.384 60.52C139.978 61.544 139.424 62.4293 138.72 63.176C138.037 63.9013 137.237 64.4773 136.32 64.904C135.424 65.3093 134.474 65.512 133.472 65.512C132.277 65.512 131.274 65.2773 130.464 64.808C129.653 64.3387 129.056 63.7733 128.672 63.112H128.416V65H124.48V42.088ZM132.608 61.64C133.162 61.64 133.685 61.5333 134.176 61.32C134.688 61.1067 135.136 60.808 135.52 60.424C135.904 60.04 136.213 59.5707 136.448 59.016C136.682 58.4613 136.8 57.8427 136.8 57.16C136.8 56.4773 136.682 55.8587 136.448 55.304C136.213 54.7493 135.904 54.28 135.52 53.896C135.136 53.512 134.688 53.2133 134.176 53C133.685 52.7867 133.162 52.68 132.608 52.68C132.053 52.68 131.52 52.7867 131.008 53C130.517 53.192 130.08 53.48 129.696 53.864C129.312 54.248 129.002 54.7173 128.768 55.272C128.533 55.8267 128.416 56.456 128.416 57.16C128.416 57.864 128.533 58.4933 128.768 59.048C129.002 59.6027 129.312 60.072 129.696 60.456C130.08 60.84 130.517 61.1387 131.008 61.352C131.52 61.544 132.053 61.64 132.608 61.64Z" fill="white"/>
<path d="M57.5474 37.4971C57.5474 37.4971 57.5474 37.4971 57.5474 37.395C56.1088 33.4673 53.4986 30.0762 50.0698 27.6805C46.641 25.2848 42.559 24 38.3762 24C34.1933 24 30.1114 25.2848 26.6825 27.6805C23.2537 30.0762 20.6435 33.4673 19.2049 37.395C19.2049 37.395 19.2049 37.395 19.2049 37.4971C17.5984 41.9294 17.5984 46.7849 19.2049 51.2171C19.2049 51.2171 19.2049 51.2171 19.2049 51.3192C20.6435 55.2469 23.2537 58.638 26.6825 61.0337C30.1114 63.4295 34.1933 64.7142 38.3762 64.7142C42.559 64.7142 46.641 63.4295 50.0698 61.0337C53.4986 58.638 56.1088 55.2469 57.5474 51.3192C57.5474 51.3192 57.5474 51.3192 57.5474 51.2171C59.1539 46.7849 59.1539 41.9294 57.5474 37.4971ZM22.5328 48.4404C21.8248 45.7643 21.8248 42.95 22.5328 40.2738H26.3303C26.0037 42.9862 26.0037 45.728 26.3303 48.4404H22.5328ZM24.207 52.5238H27.0653C27.5445 54.3446 28.2295 56.105 29.107 57.7709C27.1047 56.4069 25.431 54.6146 24.207 52.5238ZM27.0653 36.1904H24.207C25.4133 34.1061 27.0657 32.3143 29.0457 30.9434C28.1894 32.6119 27.525 34.3722 27.0653 36.1904ZM36.2937 60.0779C33.786 58.2378 32.0248 55.5561 31.3324 52.5238H36.2937V60.0779ZM36.2937 48.4404H30.4545C30.0735 45.7316 30.0735 42.9827 30.4545 40.2738H36.2937V48.4404ZM36.2937 36.1904H31.3324C32.0248 33.1581 33.786 30.4765 36.2937 28.6363V36.1904ZM52.4637 36.1904H49.6053C49.1261 34.3696 48.4411 32.6092 47.5637 30.9434C49.5659 32.3073 51.2397 34.0997 52.4637 36.1904ZM40.377 28.6363C42.8846 30.4765 44.6458 33.1581 45.3382 36.1904H40.377V28.6363ZM40.377 60.0779V52.5238H45.3382C44.6458 55.5561 42.8846 58.2378 40.377 60.0779ZM46.2162 48.4404H40.377V40.2738H46.2162C46.5971 42.9827 46.5971 45.7316 46.2162 48.4404ZM47.6249 57.7709C48.5024 56.105 49.1874 54.3446 49.6666 52.5238H52.5249C51.3009 54.6146 49.6272 56.4069 47.6249 57.7709ZM54.1378 48.4404H50.3403C50.5064 47.0857 50.5882 45.722 50.5853 44.3571C50.5876 42.9923 50.5057 41.6286 50.3403 40.2738H54.1378C54.8458 42.95 54.8458 45.7643 54.1378 48.4404Z" fill="white"/>
</svg>
