<svg width="70" height="70" viewBox="0 0 70 70" fill="none" xmlns="http://www.w3.org/2000/svg">
<path d="M60.4545 70H9.54545C4.27601 69.9942 0.00575909 65.724 0 60.4545V9.54545C0.00575909 4.27601 4.27601 0.00575909 9.54545 0H60.4545C65.724 0.00575909 69.9942 4.27601 70 9.54545V60.4545C69.9942 65.724 65.724 69.9942 60.4545 70Z" fill="#0066F5"/>
<path d="M22.2726 12.727C24.0299 12.727 25.4545 11.3024 25.4545 9.54516C25.4545 7.78789 24.0299 6.36334 22.2726 6.36334C20.5154 6.36334 19.0908 7.78789 19.0908 9.54516C19.0908 11.3024 20.5154 12.727 22.2726 12.727Z" fill="#0066F5"/>
<path d="M9.54559 12.727C11.3029 12.727 12.7274 11.3024 12.7274 9.54516C12.7274 7.78789 11.3029 6.36334 9.54559 6.36334C7.78832 6.36334 6.36377 7.78789 6.36377 9.54516C6.36377 11.3024 7.78832 12.727 9.54559 12.727Z" fill="#0066F5"/>
<path d="M35.0002 12.727C36.7574 12.727 38.182 11.3024 38.182 9.54516C38.182 7.78789 36.7574 6.36334 35.0002 6.36334C33.2429 6.36334 31.8184 7.78789 31.8184 9.54516C31.8184 11.3024 33.2429 12.727 35.0002 12.727Z" fill="#0066F5"/>
<path d="M60.4545 0.000183105H9.54545C4.27363 0.000183105 0 4.27381 0 9.54564V19.0911H70V9.54564C70 4.27381 65.7264 0.000183105 60.4545 0.000183105ZM9.54545 12.7271C7.7881 12.7271 6.36364 11.3026 6.36364 9.54525C6.36364 7.7879 7.7881 6.36344 9.54545 6.36344C11.3028 6.36344 12.7273 7.7879 12.7273 9.54525C12.7273 11.3026 11.3028 12.7271 9.54545 12.7271ZM22.2727 12.7271C20.5154 12.7271 19.0909 11.3026 19.0909 9.54525C19.0909 7.7879 20.5154 6.36344 22.2727 6.36344C24.0301 6.36344 25.4545 7.7879 25.4545 9.54525C25.4545 11.3026 24.0301 12.7271 22.2727 12.7271ZM35 12.7271C33.2426 12.7271 31.8182 11.3026 31.8182 9.54525C31.8182 7.7879 33.2426 6.36344 35 6.36344C36.7573 6.36344 38.1818 7.7879 38.1818 9.54525C38.1818 11.3026 36.7573 12.7271 35 12.7271Z" fill="#5AC8FB"/>
</svg>
